<svg xmlns="http://www.w3.org/2000/svg" xmlns:xlink="http://www.w3.org/1999/xlink" viewBox="0 0 24 24"><defs><path id="a" d="M13.18 2c2.863 0 5.559 1.179 7.473 3.213l.1-1.348 1.194.086-.253 3.425-3.487-.249.087-1.174 1.524.11a9.04 9.04 0 00-6.638-2.886c-4.953 0-8.983 3.959-8.983 8.824 0 4.863 4.03 8.821 8.983 8.821a9.022 9.022 0 007.462-3.916l.995.657A10.232 10.232 0 0113.18 22C7.567 22 3 17.514 3 12S7.567 2 13.18 2zM8.406 9.368c1.256 0 1.955.748 1.955 1.954 0 1.02-.517 1.495-1.255 1.909-.643.361-1.097.685-1.097 1.187h2.36v1.266H6.157c0-1.627.278-2.383 1.423-2.955.675-.334 1.333-.65 1.333-1.39 0-.474-.27-.72-.683-.72-.508 0-.984.37-1.27.694l-.787-.933c.35-.44 1.152-1.012 2.232-1.012zm7.577 0v3.719h.701v1.271h-.7v1.326h-1.277v-1.326h-2.233v-1.271l2.632-3.719h.877zm3.083 0v2.536a1.716 1.716 0 011.511-.849c1.171 0 1.37.935 1.37 1.722v2.907H20.62v-2.552c0-.587-.249-.856-.63-.856-.316 0-.757.32-.923.804v2.604h-1.33V9.368h1.33zm-4.216 2.134l-1.108 1.585h1.108v-1.585z"/></defs><g fill="none" fill-rule="evenodd"><path d="M0 0h24v24H0z"/><mask id="b" fill="#fff"><use xlink:href="#a"/></mask><use fill="#138484" xlink:href="#a"/><g fill="#333" mask="url(#b)"><path d="M0 0h24v24H0z"/></g></g></svg>