<svg width="24px" height="24px" viewBox="0 0 24 24" version="1.1" xmlns="http://www.w3.org/2000/svg" xmlns:xlink="http://www.w3.org/1999/xlink">
    <!-- Generator: Sketch 49.2 (51160) - http://www.bohemiancoding.com/sketch -->
    <title>IconAdd</title>
    <desc>Created with Sketch.</desc>
    <defs></defs>
    <g id="Page-1" stroke="none" stroke-width="1" fill="none" fill-rule="evenodd">
        <g id="IconAdd">
            <path d="M6.33918129,17.6608187 C7.92983251,19.2202807 9.81675322,20 12,20 C14.1832468,20 16.0623703,19.2124835 17.6374269,17.6374269 C19.2124835,16.0623703 20,14.1832468 20,12 C20,9.81675322 19.2124835,7.93762971 17.6374269,6.3625731 C16.0623703,4.78751649 14.1832468,4 12,4 C9.81675322,4 7.93762971,4.78751649 6.3625731,6.3625731 C4.78751649,7.93762971 4,9.81675322 4,12 C4,14.1832468 4.7797193,16.0701675 6.33918129,17.6608187 Z M4.91079812,4.95774648 C6.88263897,2.98590563 9.24568263,2 12,2 C14.7543174,2 17.1095364,2.97808099 19.0657277,4.9342723 C21.021919,6.89046362 22,9.24568263 22,12 C22,14.7543174 21.021919,17.1095364 19.0657277,19.0657277 C17.1095364,21.021919 14.7543174,22 12,22 C9.24568263,22 6.89046362,21.021919 4.9342723,19.0657277 C2.97808099,17.1095364 2,14.7543174 2,12 C2,9.24568263 2.97025634,6.89828826 4.91079812,4.95774648 Z M12.9813084,7 L12.9813084,11.0186916 L17,11.0186916 L17,12.9813084 L12.9813084,12.9813084 L12.9813084,17 L11.0186916,17 L11.0186916,12.9813084 L7,12.9813084 L7,11.0186916 L11.0186916,11.0186916 L11.0186916,7 L12.9813084,7 Z" id="add_circle_outline" fill="currentColor"></path>
        </g>
    </g>
</svg>
