<svg xmlns="http://www.w3.org/2000/svg" viewBox="0 0 24 24"><path d="M6.34 17.66C7.93 19.22 9.816 20 12 20c2.183 0 4.062-.788 5.637-2.363C19.212 16.062 20 14.183 20 12c0-2.183-.788-4.062-2.363-5.637C16.062 4.788 14.183 4 12 4c-2.183 0-4.062.788-5.637 2.363C4.788 7.938 4 9.817 4 12c0 2.183.78 4.07 2.34 5.66zM4.91 4.959C6.884 2.986 9.247 2 12 2c2.754 0 5.11.978 7.066 2.934C21.022 6.89 22 9.246 22 12c0 2.754-.978 5.11-2.934 7.066C17.11 21.022 14.754 22 12 22c-2.754 0-5.11-.978-7.066-2.934C2.978 17.11 2 14.754 2 12c0-2.754.97-5.102 2.91-7.042zM12.982 7v4.019H17v1.962h-4.019V17H11.02v-4.019H7V11.02h4.019V7h1.962z" fill="currentColor" fill-rule="evenodd"/></svg>