<svg xmlns="http://www.w3.org/2000/svg" viewBox="0 0 38 30"><g fill="none" fill-rule="evenodd"><rect width="38" height="30" fill="#0571C1" rx="4"/><path fill="#FFF" fill-rule="nonzero" d="M14.359 15.476l.701.81.756-.81h3.238c.324 0 .971.054 1.241.324v-.324h2.915c.27 0 .863.054 1.187.324v-.324h4.371v.324c.216-.216.702-.324 1.08-.324h2.482v.324c.27-.216.648-.324 1.133-.324h2.267v2.429c.162.27.27.647.27 1.025 0 .702-.324 1.295-.863 1.62l-.13.073c-.316.155-.74.196-1.166.196h-2.32v-.324c-.27.216-.756.324-1.242.324h-7.34v-1.295c-.002-.108-.02-.108-.161-.108h-.108v1.403h-2.43v-1.457c-.378.162-.863.162-1.241.162h-.378v1.241h-2.914l-.702-.81-.755.81H9.5v-5.289h4.858zm-.324.756h-3.616v3.831h3.562l1.133-1.24 1.08 1.24h1.727v-1.295H19c.81 0 1.565-.216 1.619-1.295 0-1.025-.81-1.241-1.511-1.241h-2.86l-1.134 1.241-1.08-1.241zm8.959-.054h-2.051v3.832h.917v-1.404h1.088c.26.003.437.02.531.162.162.162.162.54.162.756v.486h.918v-.756c0-.324-.054-.54-.162-.702-.054-.108-.216-.215-.486-.323.27-.108.648-.432.648-1.026a.954.954 0 00-.486-.863c-.27-.162-.648-.162-1.08-.162zm12.143-.054h-1.781c-.972 0-1.296.593-1.296 1.133 0 1.187 1.026 1.133 1.89 1.187.161 0 .269.054.323.108a.412.412 0 01.108.27.412.412 0 01-.108.27c-.108.108-.216.108-.378.108h-1.727v.81h1.727c.54 0 .918-.162 1.134-.378.215-.216.323-.486.323-.81 0-.27-.054-.54-.215-.755 0 0 0-.054-.054-.054-.216-.216-.54-.324-1.026-.324l-.567-.001a.56.56 0 01-.242-.053c-.162-.054-.216-.108-.216-.27 0-.108 0-.216.108-.27.108-.054.216-.054.377-.054h1.62v-.917zm-3.508 0h-1.781c-.972 0-1.296.593-1.296 1.133 0 1.187 1.026 1.133 1.89 1.187.161 0 .27.054.323.108a.412.412 0 01.108.27.412.412 0 01-.108.27c-.108.108-.216.108-.378.108H28.66v.81h1.727c.918 0 1.403-.378 1.403-1.188 0-.378-.107-.647-.27-.81-.215-.215-.539-.323-1.025-.323l-.566-.001a.562.562 0 01-.243-.053c-.108-.054-.216-.108-.216-.27 0-.108 0-.216.108-.27.108-.054.216-.054.378-.054h1.673v-.917zm-3.508.054h-3.023v3.832h3.023v-.81h-2.105v-.756h2.05v-.755h-2.05v-.702h2.105v-.81zm-11.118.432v3.076L15.6 18.12l1.403-1.511zm-3.508.377l.972 1.134-1.026 1.133H11.23v-.81h1.996v-.755H11.23v-.702h2.266zm5.559 0c.324 0 .54.162.594.486 0 .324-.216.486-.54.486H17.92v-.972zm3.94.054c.162 0 .323 0 .431.054.108.054.216.162.162.378 0 .162-.054.324-.162.378-.108.054-.27.054-.431.054h-1.08v-.864zm8.095-2.752l-.486-.81v.81h-3.13l-.324-.864h-.755l-.324.864h-1.62a3.225 3.225 0 01-1.456-.324v.324h-3.886v-1.247c-.002-.102-.015-.102-.108-.102h-.108v1.403H11.39v-.648l-.27.648H9.557l-.27-.648v.648h-3.13l-.324-.864h-.756l-.324.864H2l1.241-2.806L4.321 9h2.32l.324.648V9h2.752l.594 1.35.594-1.35h8.689c.431 0 .755.108 1.025.324V9h2.429v.324c.431-.216.917-.324 1.51-.324h3.455l.324.648V9h2.536l.324.648V9h2.428v5.289H31.09zM19.445 9.756h-2.226v3.831h.918v-1.403h1.085c.25.003.392.02.534.162.161.216.161.54.161.756v.485h.918v-.755c0-.324-.054-.486-.162-.702-.108-.108-.27-.27-.54-.324.27-.108.648-.431.648-1.025 0-.432-.162-.702-.432-.864-.27-.161-.593-.161-1.08-.161zm-2.82 0h-3.022v3.831h3.022v-.81h-2.104v-.755h2.05v-.755h-2.05v-.702h2.104v-.81zm-10.415 0H4.86l-1.619 3.831h1.026l.323-.863h1.835l.378.81h1.835v-2.969l1.295 2.968h.81l1.295-2.968v2.968h.918V9.756h-1.512l-1.079 2.59-1.187-2.59H7.72v3.615L6.21 9.756zm19.212 0h-.863c-.594 0-1.08.107-1.35.431-.377.432-.485.972-.485 1.511 0 .702.162 1.134.486 1.458.323.323.863.431 1.295.431h1.025l.324-.863h1.889l.324.81h1.835v-2.861l1.727 2.86h1.187V9.81h-.918v2.644L30.333 9.81h-1.349v3.615L27.473 9.81h-1.35l-1.24 2.968h-.378c-.27 0-.486-.054-.648-.216-.216-.216-.27-.486-.27-.918 0-.377.108-.701.27-.863.216-.162.378-.216.702-.216h.863v-.81zm-3.13-.054h-.917v3.831h.917V9.702zm-16.784.701l.594 1.511H4.914l.594-1.51zm21.317 0l.594 1.511h-1.241l.647-1.51zm-7.489.163c.12.002.23.013.312.053.108.054.215.162.162.378 0 .162-.054.324-.162.378-.108.054-.27.054-.432.054h-1.08v-.864z"/></g></svg>