<svg width="38" height="30" xmlns="http://www.w3.org/2000/svg"><g fill="none" fill-rule="evenodd"><rect fill="#0571C1" width="38" height="30" rx="4"/><path d="M4.914 11.914l.594-1.51.594 1.51H4.914zm14.734-1.295c.108.054.215.162.162.378 0 .162-.054.324-.162.378-.108.054-.27.054-.432.054h-1.08v-.864h1.08c.162 0 .324 0 .432.054zM31.197 9h2.428v5.289H31.09l-.486-.81v.81h-3.13l-.324-.864h-.755l-.324.864h-1.62a3.233 3.233 0 01-1.456-.324v.324h-3.886v-1.187c0-.162 0-.162-.108-.162h-.108v1.403H11.39v-.648l-.27.648H9.557l-.27-.648v.648h-3.13l-.324-.864h-.756l-.324.864H2l1.241-2.806L4.321 9h2.32l.324.648V9h2.752l.594 1.35.594-1.35h8.689c.431 0 .755.108 1.025.324V9h2.429v.324c.431-.216.917-.324 1.51-.324h3.455l.324.648V9h2.536l.324.648V9zm-18.241 4.533V9.756h-1.512l-1.079 2.59-1.187-2.59H7.72v3.615L6.21 9.756H4.86l-1.619 3.831h1.026l.323-.863h1.835l.378.81h1.835v-2.969l1.295 2.968h.81l1.295-2.968v2.968h.918zm3.67-2.968v-.81h-3.023v3.832h3.022v-.81h-2.104v-.755h2.05v-.755h-2.05v-.702h2.104zm4.047 1.565c-.108-.108-.27-.27-.54-.324.27-.108.648-.431.648-1.025 0-.432-.162-.702-.432-.864-.27-.161-.593-.161-1.08-.161h-2.05v3.831h.918v-1.403h.97c.325 0 .487 0 .649.162.161.216.161.54.161.756v.485h.918v-.755a1.35 1.35 0 00-.162-.702zm1.62 1.403V9.702h-.918v3.831h.917zm10.63 0h-.107V9.81h-.918v2.644L30.333 9.81h-1.349v3.615L27.473 9.81h-1.35l-1.24 2.968h-.378c-.27 0-.486-.054-.648-.216-.216-.216-.27-.486-.27-.918 0-.377.108-.701.27-.863.216-.162.378-.216.702-.216h.863v-.81h-.863c-.594 0-1.08.108-1.35.432-.377.432-.485.972-.485 1.511 0 .702.162 1.134.486 1.458.323.323.863.431 1.295.431h1.025l.324-.863h1.889l.324.81h1.835v-2.861l1.727 2.86h1.295zm-6.745-1.619l.647-1.51.594 1.51h-1.241zm-9.175 7.772L15.6 18.12l1.403-1.511v3.076zm-5.774-2.699h2.266l.972 1.134-1.026 1.133H11.23v-.81h1.996v-.755H11.23v-.702zm7.825 0c.324 0 .54.162.594.486 0 .324-.216.486-.54.486H17.92v-.972h1.133zm16.676.918c.162.27.27.647.27 1.025 0 .702-.324 1.295-.863 1.62-.324.215-.81.269-1.296.269h-2.32v-.324c-.27.216-.756.324-1.242.324h-7.34v-1.241c0-.162 0-.162-.161-.162h-.108v1.403H20.24v-1.457c-.378.162-.863.162-1.241.162h-.378v1.241h-2.914l-.702-.81-.755.81H9.5v-5.289h4.858l.701.81.756-.81h3.238c.324 0 .971.054 1.241.324v-.324h2.915c.27 0 .863.054 1.187.324v-.324h4.371v.324c.216-.216.702-.324 1.08-.324h2.482v.324c.27-.216.648-.324 1.133-.324H35.73v2.429zM19 18.768c.81 0 1.565-.216 1.619-1.295 0-1.025-.81-1.241-1.511-1.241h-2.86l-1.134 1.241-1.08-1.241H10.42v3.831h3.562l1.133-1.24 1.08 1.24h1.727v-1.295H19zm5.397-.216c-.054-.108-.216-.215-.486-.323.27-.108.648-.432.648-1.026a.955.955 0 00-.486-.863c-.27-.162-.648-.162-1.08-.162h-2.05v3.832h.917v-1.404h.972c.324 0 .54 0 .647.162.162.162.162.54.162.756v.486h.918v-.756c0-.324-.054-.54-.162-.702zm3.724-1.565v-.81h-3.023v3.833h3.023v-.81h-2.105v-.756h2.05v-.755h-2.05v-.702h2.105zm2.266 3.023c.918 0 1.403-.378 1.403-1.188 0-.378-.107-.647-.27-.81-.215-.215-.539-.323-1.025-.323h-.485c-.108 0-.216 0-.324-.054-.108-.054-.216-.108-.216-.27 0-.108 0-.216.108-.27.108-.054.216-.054.378-.054h1.673v-.917h-1.781c-.972 0-1.296.593-1.296 1.133 0 1.187 1.026 1.133 1.89 1.187.161 0 .27.054.323.108a.412.412 0 01.108.27.412.412 0 01-.108.27c-.108.108-.216.108-.378.108H28.66v.81h1.727zm4.642-.378c.215-.216.323-.486.323-.81 0-.27-.054-.54-.215-.755 0 0 0-.054-.054-.054-.216-.216-.54-.324-1.026-.324h-.486c-.108 0-.215 0-.323-.054-.162-.054-.216-.108-.216-.27 0-.108 0-.216.108-.27.108-.054.216-.054.377-.054h1.62v-.917h-1.781c-.972 0-1.296.593-1.296 1.133 0 1.187 1.026 1.133 1.89 1.187.161 0 .269.054.323.108a.412.412 0 01.108.27.412.412 0 01-.108.27c-.108.108-.216.108-.378.108h-1.727v.81h1.727c.54 0 .918-.162 1.134-.378zm-11.604-2.537c.108.054.216.162.162.378 0 .162-.054.324-.162.378-.108.054-.27.054-.431.054h-1.08v-.864h1.08c.162 0 .323 0 .431.054z" fill="#FFF" fill-rule="nonzero"/></g></svg>