<svg viewBox="0 0 18 20" fill="none" xmlns="http://www.w3.org/2000/svg"><path d="M11.3859 3.79795c.5048-.50463.8774-1.05733 1.1179-1.65834.2323-.60101.3485-1.14571.3485-1.63473 0-.03183-.002-.07235-.006-.12021-.0042-.04787-.006-.0877-.006-.12021-.008-.02404-.018-.06812-.03-.13247-.012-.06387-.022-.10795-.0301-.13199-1.4103.32855-2.4118.92155-3.00478 1.77898-.60101.86525-.91355 1.89498-.93759 3.08895.53667-.0483.95334-.11595 1.25007-.20411.4327-.14466.8652-.43294 1.298-.86587z" fill="#fff"/><path d="M15.4725 13.089c-.5529-.7929-.8294-1.6864-.8294-2.6805 0-.90528.2602-1.73445.7813-2.48793.2805-.40846.7372-.88125 1.3703-1.41839-.4167-.51263-.8334-.91308-1.2501-1.20202-.7533-.52022-1.6067-.7813-2.5601-.7813-.569 0-1.2621.13669-2.0795.40893-.7853.27268-1.35826.40845-1.71867.40845-.27243 0-.82535-.12021-1.65878-.36059-.84139-.24041-1.55035-.36062-2.12736-.36062-1.37831 0-2.5162.57696-3.4135 1.73111C1.08118 7.51611.62842 9.01438.62842 10.8412c0 1.9391.58897 3.9542 1.76698 6.046 1.1938 2.0752 2.39978 3.1127 3.61784 3.1127.40868 0 .93734-.1362 1.58644-.4084.64909-.2645 1.2178-.3967 1.70664-.3967.52088 0 1.12568.1283 1.81498.3845.7291.2564 1.29.3844 1.6827.3844 1.0255 0 2.0552-.7851 3.0889-2.3555.6732-1.0015 1.166-2.0034 1.4785-3.0049-.7131-.2161-1.346-.721-1.8989-1.5143z" fill="#fff"/></svg>
