<svg xmlns="http://www.w3.org/2000/svg" viewBox="0 0 24 24"><path d="M20.636 10.912H3.364V9.095h17.272v1.819zM17.91 19.55H6.091l-1.364-7.273h14.546l-1.364 7.273zM14.288 3.2a.682.682 0 01.964 0l4.504 4.504.018.028h.863c.754 0 1.364.61 1.364 1.363v1.819c0 .753-.61 1.363-1.364 1.363-.004.084-.007.168-.023.252L19.249 19.8a1.363 1.363 0 01-1.34 1.113H6.091c-.656 0-1.22-.468-1.34-1.113l-1.364-7.273a1.316 1.316 0 01-.019-.25A1.365 1.365 0 012 10.913v-1.82c0-.753.61-1.363 1.364-1.363h.863c.008-.009.01-.02.018-.028L8.749 3.2a.682.682 0 01.964.964L6.146 7.73h11.708l-3.567-3.567a.682.682 0 010-.964zm-3.423 10.44a.682.682 0 00-.682.683v3.181a.682.682 0 101.363 0v-3.181a.681.681 0 00-.681-.682zm2.727 0a.683.683 0 00-.682.683v3.181a.682.682 0 001.364 0v-3.181a.682.682 0 00-.682-.682zm2.727 0a.683.683 0 00-.682.683v3.181a.682.682 0 001.364 0v-3.181a.682.682 0 00-.682-.682zm-8.182 0a.682.682 0 00-.681.683v3.181a.681.681 0 101.363 0v-3.181a.682.682 0 00-.682-.682z" fill="currentColor" fill-rule="evenodd"/></svg>