<svg xmlns="http://www.w3.org/2000/svg" viewBox="0 0 24 24"><path d="M11.563 19.777c-.327.327-.759.49-1.19.49-.432 0-.863-.163-1.19-.49l-5.157-4.804c-.654-.654-.725-1.879-.07-2.533l8.235-8.94h8.166l.058 7.731-8.852 8.546zM21.856 3.489A1.5 1.5 0 0020.357 2h-8.166c-.419 0-.819.175-1.103.484L2.87 11.405c-1.196 1.226-1.155 3.38.095 4.629l.038.037 5.141 4.788a3.162 3.162 0 002.23.908c.85 0 1.65-.33 2.25-.929l8.833-8.528c.295-.285.46-.679.458-1.091l-.059-7.73zm-4.16 4.127a1.097 1.097 0 01-1.385.684 1.095 1.095 0 01-.683-1.384 1.097 1.097 0 011.383-.683c.57.192.876.815.684 1.383m-.202-2.804A2.592 2.592 0 0015.83 9.72a2.59 2.59 0 101.663-4.908m-6.454 7.402c-.268-.521-.228-.771-.017-1 .22-.235.538-.268.938.008l-.92.992zm-.486 2.954c-.245.264-.572.264-.964-.005l.948-1.021c.267.508.241.784.016 1.026zm2.972-4.173l.096-.103a.519.519 0 00-.027-.737.52.52 0 00-.738.027l-.08.088c-1.014-.763-2.136-.793-2.886.016-.812.873-.665 1.763.127 3.03l-1.084 1.168c-.27-.387-.434-.799-.559-1.284a.73.73 0 00-.198-.361.669.669 0 00-.97.03.673.673 0 00-.16.671c.187.668.51 1.309.97 1.858l-.369.396a.516.516 0 00.028.736c.213.2.54.186.736-.027l.361-.389c1.022.756 2.145.813 2.91-.009.762-.822.708-1.722-.129-3.059l1.036-1.115c.15.235.273.513.378.816.04.117.106.222.196.303.278.26.696.25.955-.029a.673.673 0 00.146-.685 4.216 4.216 0 00-.739-1.341z" fill="currentColor" fill-rule="evenodd"/></svg>