<svg viewBox="0 0 19 19" fill="none" xmlns="http://www.w3.org/2000/svg"><path d="M15 8h-3a4 4 0 00-4 4v3a4 4 0 004 4h3a4 4 0 004-4v-3a4 4 0 00-4-4z" fill="#DEF3F3"/><path fill-rule="evenodd" clip-rule="evenodd" d="M11.5 16.96H9.88l-6.75-.02c-.96 0-1.75-.79-1.75-1.75V3.12c0-.96.79-1.75 1.75-1.75h8.06l.87.06c1.17.02 2.1.97 2.1 2.14v2.02h1.37V3.58c0-1.9-1.55-3.48-3.45-3.51L11.21 0H3.12C1.4 0 0 1.4 0 3.12v12.06c0 1.72 1.4 3.13 3.12 3.13l8.69.02c.38 0 .68-.3.69-.68l-1-.69zm1.14-11.9H3.45c-.33 0-.6-.27-.6-.6 0-.33.27-.6.6-.6h9.18c.33 0 .6.27.6.6 0 .34-.26.6-.59.6zM3.45 8.01h2.36c.33 0 .6-.27.6-.6 0-.33-.27-.6-.6-.6H3.45c-.33 0-.6.27-.6.6.01.33.27.6.6.6z" fill="#333"/><path d="M18.439 10.49l-2.993-3.402A.265.265 0 0015.247 7H8.752a.265.265 0 00-.199.088l-2.992 3.403a.24.24 0 00.001.32l6.24 7.1a.267.267 0 00.398 0l6.24-7.1a.276.276 0 00.037-.055.246.246 0 00-.038-.265zm-.758-.088h-2.937l-2.23-2.904h2.612l2.555 2.904zm-8.478.498l2.078 5.647L6.319 10.9h2.884zm5.042 0L12 17.003 9.755 10.9h4.49zm-4.343-.498L12 7.67l2.098 2.732H9.902v.001zm4.894.498h2.885l-4.962 5.647 2.077-5.647zM8.873 7.498h2.612l-2.23 2.904H6.32l2.554-2.904z" fill="#333" stroke="#333" stroke-width=".6"/></svg>