<svg xmlns="http://www.w3.org/2000/svg" viewBox="0 0 24 24"><path d="M17.454 12.599l.248-1 1.068 1h-1.316zm-.372 1.5h1.723l-2.59 3.5.867-3.5zm-5.364 0l1.087 3.868-3.066-3.868h1.98zm3.82 0l-1.062 4.279-1.202-4.279h2.264zm.371-1.5h-3.056l-.495-1.765 3.986.011-.435 1.754zm-4.921-1.1l.309 1.1h-1.54l1.23-1.1zM15.24 2l.944.068a3.857 3.857 0 013.767 3.838v2.205h-1.5V5.906a2.336 2.336 0 00-2.294-2.338l-.944-.068h-8.8A1.918 1.918 0 004.5 5.413v13.174c0 1.052.86 1.913 1.913 1.913h6.485l-5.462-6.893a.75.75 0 01.088-1.026l3.424-3.059a.756.756 0 01.5-.19h.002l5.747.015c.19.001.372.073.51.203l3.252 3.044c.279.26.317.687.09.993l-5.998 8.108a.736.736 0 01-.41.258l.034.047H6.413A3.417 3.417 0 013 18.587V5.413A3.418 3.418 0 016.413 2h8.826zM8.41 9.45a.65.65 0 110 1.3H6.772a.65.65 0 010-1.3h1.64zm8.392-3.22a.65.65 0 110 1.3H6.772a.65.65 0 110-1.3h10.03z" fill="currentColor" fill-rule="evenodd"/></svg>