<svg viewBox="0 0 47 36" fill="none" xmlns="http://www.w3.org/2000/svg"><path d="M1.729 26.147 1.29 10.188l16.066 7.664-.352 16.14L1.73 26.146Z" fill="#5BC6C6" fill-opacity=".2" stroke="#000"/><path d="M33.435 8.124 18.317.256 18.31.253a2.308 2.308 0 0 0-2.14.02L9.686 3.808c-.053.023-.103.05-.152.083l-7.77 4.235A2.422 2.422 0 0 0 .5 10.27v14.62c0 .905.484 1.726 1.264 2.145l14.4 7.85.006.003a2.308 2.308 0 0 0 2.14.02l15.125-7.87a2.414 2.414 0 0 0 1.303-2.165V10.288c0-.923-.5-1.752-1.303-2.164ZM17.1 2.098a.344.344 0 0 1 .314-.002L31.566 9.46l-5.508 2.816-13.835-7.52L17.1 2.099Zm-.857 30.498L2.701 25.214l-.007-.003a.361.361 0 0 1-.189-.32V11.2l13.738 7.357v14.039Zm1.013-15.82L3.594 9.46l6.488-3.536 13.767 7.482-6.593 3.37Zm15.476 8.097a.36.36 0 0 1-.194.323l-14.29 7.436V18.57l6.58-3.364v3.527c0 .569.449 1.03 1.002 1.03.554 0 1.003-.461 1.003-1.03v-4.552l5.9-3.017v13.709Z" fill="#333"/><rect x="25.363" y="14.232" width="21.195" height="21.767" rx="10.597" fill="#fff"/><path d="M28.189 25.116c0-4.408 3.48-7.981 7.771-7.981 4.292 0 7.772 3.573 7.772 7.981 0 4.408-3.48 7.982-7.772 7.982s-7.771-3.574-7.771-7.982Z" fill="#DEF4F4"/><path fill-rule="evenodd" clip-rule="evenodd" d="M27.2 25.116c0-4.969 3.922-8.997 8.76-8.997 4.838 0 8.76 4.028 8.76 8.997 0 4.97-3.922 8.997-8.76 8.997-4.838 0-8.76-4.028-8.76-8.997Zm8.76-6.965c-3.745 0-6.782 3.118-6.782 6.965s3.037 6.966 6.782 6.966c3.746 0 6.782-3.119 6.782-6.966s-3.036-6.965-6.782-6.965Z" fill="#333"/><path fill-rule="evenodd" clip-rule="evenodd" d="M37.201 19.873a.756.756 0 0 0-.745-.765.756.756 0 0 0-.746.765v1.106h-.393a2.31 2.31 0 0 0-1.654.703 2.436 2.436 0 0 0-.686 1.7c0 .637.247 1.248.686 1.699a2.31 2.31 0 0 0 1.654.703h.393v1.744h-1.987a.756.756 0 0 0-.746.766c0 .422.334.765.746.765h1.987v1.106c0 .423.334.766.746.766a.756.756 0 0 0 .745-.766V29.06h.394c.62 0 1.215-.253 1.654-.704.439-.45.685-1.061.685-1.699 0-.637-.246-1.248-.685-1.699a2.309 2.309 0 0 0-1.654-.704H37.2V22.51h1.532a.756.756 0 0 0 .746-.766.756.756 0 0 0-.746-.765h-1.532v-1.106Zm-1.49 2.637h-.394a.838.838 0 0 0-.6.255.884.884 0 0 0-.249.616c0 .232.09.453.249.617.159.163.375.255.6.255h.393V22.51Zm1.49 3.274v1.744h.394a.838.838 0 0 0 .6-.255.884.884 0 0 0 0-1.233.838.838 0 0 0-.6-.256H37.2Z" fill="#333"/></svg>