<svg viewBox="0 0 47 36" fill="none" xmlns="http://www.w3.org/2000/svg"><path d="M1.729 26.147 1.29 10.1883l16.0655 7.6637-.3511 16.1391L1.729 26.147Z" fill="#5BC6C6" fill-opacity=".2" stroke="#000"/><path d="M33.4354 8.1236 18.3166.256l-.0063-.0032a2.3082 2.3082 0 0 0-2.14.0206L9.6859 3.808a1.0017 1.0017 0 0 0-.1518.0827L1.7636 8.1262C.984 8.5452.5 9.3665.5 10.2704v14.6203c0 .9039.4841 1.7251 1.2636 2.1442l14.4003 7.8494.0065.0035a2.308 2.308 0 0 0 2.1399.0205l15.1251-7.8708c.8035-.4127 1.3025-1.2418 1.3025-2.1647V10.2883c0-.923-.499-1.752-1.3025-2.1647ZM17.0998 2.0984a.3436.3436 0 0 1 .3147-.0029L31.5663 9.46l-5.5078 2.8161L12.223 4.7567l4.8768-2.6583Zm-.8568 30.4973L2.7007 25.214l-.0065-.0035a.3611.3611 0 0 1-.1888-.3198V11.1998l13.7376 7.3571v14.0388Zm1.0133-15.819L3.5943 9.4601l6.488-3.5365 13.7671 7.482-6.5931 3.3711Zm15.4761 8.096c0 .1378-.0746.2616-.1947.323l-14.2892 7.4359V18.5701l6.5791-3.364v3.527c0 .5687.449 1.0298 1.0028 1.0298.5537 0 1.0027-.4611 1.0027-1.0298v-4.5524l5.8993-3.0164v13.7084Z" fill="#333"/><rect x="25.3629" y="14.2325" width="21.1946" height="21.7674" rx="10.5973" fill="#fff"/><path d="M28.1889 25.1163c0-4.408 3.4794-7.9814 7.7714-7.9814s7.7713 3.5734 7.7713 7.9814c0 4.408-3.4793 7.9814-7.7713 7.9814s-7.7714-3.5734-7.7714-7.9814Z" fill="#DEF4F4"/><path fill-rule="evenodd" clip-rule="evenodd" d="M27.1998 25.1162c0-4.969 3.9221-8.9972 8.7604-8.9972s8.7604 4.0282 8.7604 8.9972c0 4.9691-3.9221 8.9972-8.7604 8.9972s-8.7604-4.0281-8.7604-8.9972Zm8.7604-6.9656c-3.7457 0-6.7823 3.1186-6.7823 6.9656 0 3.847 3.0366 6.9656 6.7823 6.9656 3.7457 0 6.7823-3.1186 6.7823-6.9656 0-3.847-3.0366-6.9656-6.7823-6.9656Z" fill="#333"/><path fill-rule="evenodd" clip-rule="evenodd" d="M37.2012 19.8731c0-.4228-.3337-.7655-.7454-.7655-.4117 0-.7454.3427-.7454.7655v1.1055h-.3934c-.6205 0-1.2156.2532-1.6544.7038-.4387.4506-.6852 1.0618-.6852 1.6991s.2465 1.2485.6852 1.6991c.4388.4506 1.0339.7038 1.6544.7038h.3934v1.7437h-1.9877c-.4116 0-.7453.3427-.7453.7655 0 .4228.3337.7655.7453.7655h1.9877v1.106c0 .4228.3337.7656.7454.7656.4117 0 .7454-.3428.7454-.7656v-1.106h.3934c.6205 0 1.2156-.2531 1.6543-.7038.4388-.4506.6853-1.0618.6853-1.6991s-.2465-1.2484-.6853-1.6991c-.4387-.4506-1.0338-.7038-1.6543-.7038h-.3934v-1.7437h1.5321c.4117 0 .7454-.3427.7454-.7655 0-.4228-.3337-.7655-.7454-.7655h-1.5321v-1.1055Zm-1.4908 2.6365h-.3934a.838.838 0 0 0-.6003.2554.884.884 0 0 0-.2486.6165.884.884 0 0 0 .2486.6165.8378.8378 0 0 0 .6003.2553h.3934v-1.7437Zm1.4908 3.2748v1.7437h.3934a.8377.8377 0 0 0 .6002-.2554.8839.8839 0 0 0 .2487-.6165.884.884 0 0 0-.2487-.6165.8376.8376 0 0 0-.6002-.2553h-.3934Z" fill="#333"/></svg>