<svg xmlns="http://www.w3.org/2000/svg" viewBox="0 0 24 24"><path d="M12 2c2.763 0 5.121.978 7.073 2.934C21.024 6.89 22 9.246 22 12c0 2.754-.976 5.11-2.927 7.066C17.12 21.022 14.763 22 12 22c-2.763 0-5.121-.978-7.073-2.934C2.976 17.11 2 14.754 2 12c0-2.754.976-5.11 2.927-7.066C6.88 2.978 9.237 2 12 2zm4.988 13.615L13.382 12l3.606-3.615-1.405-1.408-3.606 3.615-3.56-3.615-1.405 1.408L10.572 12l-3.56 3.615 1.405 1.408 3.56-3.615 3.606 3.615 1.405-1.408z" fill="currentColor" fill-rule="evenodd"/></svg>