<svg xmlns="http://www.w3.org/2000/svg" viewBox="0 0 24 24"><path d="M19.006 18.19H4.994a1.502 1.502 0 01-1.497-1.497v-5.045h17.006v5.045c0 .823-.674 1.497-1.497 1.497M4.994 6.497h14.012c.823 0 1.497.675 1.497 1.497v1.658H3.497V7.994c0-.822.674-1.497 1.497-1.497M19.006 5H4.994A2.998 2.998 0 002 7.994v8.699a2.998 2.998 0 002.994 2.994h14.012A2.999 2.999 0 0022 16.693V7.994A2.998 2.998 0 0019.006 5m-6.37 8.963l-6.931.066a.649.649 0 00.007 1.298h.006l6.93-.066a.65.65 0 00.644-.655c-.004-.359-.336-.66-.655-.643" fill="currentColor" fill-rule="evenodd"/></svg>