<svg xmlns="http://www.w3.org/2000/svg" viewBox="0 0 24 24"><g fill="currentColor" fill-rule="evenodd" transform="translate(0 .18)"><path d="M19.273 5H4.727C3.221 5 2 6.213 2 7.708v9.028c0 1.496 1.221 2.708 2.727 2.708h14.546c1.506 0 2.727-1.212 2.727-2.708V7.708C22 6.213 20.779 5 19.273 5zM4.804 6.926h14.392c.497 0 .9.431.9.963v.963H3.904v-.963c0-.532.402-.963.9-.963zm15.291 3.852v5.898c0 .465-.402.843-.9.843H4.806c-.498 0-.9-.378-.9-.843v-5.898h16.19zm-7.619 3.852H5.81c-.526 0-.953.43-.953.963 0 .531.427.963.953.963h6.666c.526 0 .953-.432.953-.963 0-.532-.427-.963-.953-.963zM9.62 11.74H5.81c-.525 0-.952.432-.952.964s.427.963.953.963H9.62c.526 0 .952-.431.952-.963s-.426-.963-.952-.963z"/></g></svg>
