<svg xmlns="http://www.w3.org/2000/svg" viewBox="0 0 24 24"><g fill="currentColor" fill-rule="evenodd"><path id="prefix__a" d="M19.006 18.19H4.994c-.823 0-1.497-.674-1.497-1.497v-5.045h17.006v5.045c0 .823-.674 1.497-1.497 1.497M4.994 6.497h14.012c.823 0 1.497.675 1.497 1.497v1.658H3.497V7.994c0-.822.674-1.497 1.497-1.497M19.006 5H4.994C3.344 5 2 6.343 2 7.994v8.699c0 1.65 1.343 2.994 2.994 2.994h14.012c1.65 0 2.994-1.344 2.994-2.994V7.994C22 6.344 20.657 5 19.006 5m-6.37 8.963l-6.931.066c-.358.004-.646.297-.642.655.003.357.292.643.649.643h.006l6.93-.066c.36-.004.647-.297.644-.655-.004-.359-.336-.66-.655-.643"/></g></svg>