<svg width="24px" height="24px" viewBox="0 0 24 24" version="1.1" xmlns="http://www.w3.org/2000/svg" xmlns:xlink="http://www.w3.org/1999/xlink">
    <!-- Generator: Sketch 49.2 (51160) - http://www.bohemiancoding.com/sketch -->
    <title>IconCart</title>
    <desc>Created with Sketch.</desc>
    <defs></defs>
    <g id="Page-1" stroke="none" stroke-width="1" fill="none" fill-rule="evenodd">
        <g id="IconCart">
            <path d="M18,18 C19.1,18 20,18.9 20,20 C20,21.1 19.1,22 18,22 C16.9,22 16.01,21.1 16.01,20 C16.01,18.9 16.9,18 18,18 Z M9.1002,13 L8.2002,14.63 L8.1702,14.75 C8.1702,14.89 8.2802,15 8.4202,15 L20.0002,15 L20.0002,17 L8.0002,17 C6.9002,17 6.0002,16.1 6.0002,15 C6.0002,14.65 6.0902,14.32 6.2502,14.04 L7.6002,11.59 L4.0002,4 L2.0002,4 L2.0002,2 L5.2702,2 L6.2102,4 L21.0002,4 C21.5502,4 22.0002,4.45 22.0002,5 C22.0002,5.17 21.9602,5.34 21.8802,5.48 L18.3002,11.97 C17.9602,12.59 17.3002,13 16.5502,13 L9.1002,13 Z M7.1622,6 L9.4072,10.733 L9.5342,11 L16.5502,11 L19.3092,6 L7.1622,6 Z M8,18 C9.1,18 10,18.9 10,20 C10,21.1 9.1,22 8,22 C6.9,22 6.01,21.1 6.01,20 C6.01,18.9 6.9,18 8,18 Z" id="Combined-Shape" fill="currentColor"></path>
        </g>
    </g>
</svg>
