<svg xmlns="http://www.w3.org/2000/svg" viewBox="0 0 24 24"><path d="M7.7 15.17h11.858A2.446 2.446 0 0022 12.73V7.687c0-.008 0-.017-.004-.026 0-.009-.005-.022-.005-.031 0-.009-.004-.018-.004-.027-.005-.008-.005-.017-.01-.03-.004-.01-.004-.018-.008-.027-.004-.009-.004-.018-.009-.027a.216.216 0 01-.013-.03c-.005-.01-.009-.018-.013-.023l-.014-.026c-.004-.01-.008-.014-.013-.022-.004-.01-.013-.018-.018-.027a.078.078 0 00-.017-.022c-.005-.009-.014-.013-.018-.022-.004-.009-.013-.013-.018-.022-.004-.01-.013-.014-.017-.018l-.022-.022c-.01-.005-.014-.013-.023-.018-.008-.004-.017-.013-.026-.018-.009-.004-.013-.008-.022-.013a.093.093 0 01-.027-.017l-.026-.014-.027-.013-.026-.013c-.01-.005-.018-.005-.027-.01a.082.082 0 00-.03-.008c-.01 0-.019-.004-.023-.004-.013-.005-.022-.005-.035-.005-.005 0-.01-.004-.018-.004L6.457 5.072V2.976c0-.022 0-.044-.004-.062 0-.005 0-.009-.005-.018 0-.013-.004-.026-.004-.04-.005-.013-.005-.022-.009-.035 0-.009-.004-.013-.004-.022l-.014-.04c0-.004-.004-.013-.004-.018a.132.132 0 00-.018-.035c-.004-.004-.004-.013-.009-.018a.077.077 0 00-.017-.026c-.005-.01-.01-.014-.014-.022-.004-.01-.008-.014-.013-.023-.004-.008-.013-.017-.018-.026l-.013-.013-.026-.027-.014-.013a.162.162 0 00-.03-.027l-.018-.013c-.01-.009-.018-.013-.027-.022-.013-.009-.026-.018-.035-.022-.005-.005-.01-.005-.013-.009l-.058-.027-3.26-1.37a.596.596 0 00-.783.318.596.596 0 00.319.783l2.892 1.22v13.084c0 1.239.93 2.265 2.128 2.42a2.412 2.412 0 00-.345 1.238 2.413 2.413 0 002.41 2.41 2.416 2.416 0 002.411-2.41c0-.442-.12-.863-.332-1.216h5.37a2.377 2.377 0 00-.332 1.216 2.413 2.413 0 002.411 2.41 2.416 2.416 0 002.41-2.41 2.416 2.416 0 00-2.41-2.41H7.7c-.69 0-1.247-.562-1.247-1.248v-1.619a2.47 2.47 0 001.247.336zm2.972 4.937c0 .672-.548 1.216-1.216 1.216a1.221 1.221 0 01-1.216-1.216c0-.668.548-1.217 1.216-1.217.668 0 1.216.544 1.216 1.217zm9.528 0c0 .672-.549 1.216-1.217 1.216a1.221 1.221 0 01-1.216-1.216c0-.668.549-1.217 1.216-1.217a1.22 1.22 0 011.217 1.217zm-.642-6.13H7.7a1.25 1.25 0 01-1.247-1.248V6.275l14.353 1.978v4.471a1.25 1.25 0 01-1.248 1.252z" fill="currentColor" fill-rule="evenodd"/></svg>
