<svg xmlns="http://www.w3.org/2000/svg" viewBox="0 0 24 24"><path d="M12 22c5.523 0 10-4.477 10-10S17.523 2 12 2 2 6.477 2 12s4.477 10 10 10z" fill="#00AAE5"/><path d="M10 8h2.572c1.173 0 2.024.167 2.553.5.53.334.795.864.795 1.592 0 .494-.116.899-.348 1.215-.232.317-.54.507-.925.571v.057c.524.117.902.335 1.134.656.232.32.348.746.348 1.278 0 .753-.273 1.341-.817 1.764-.545.422-1.285.633-2.22.633H10V8zm1.753 3.274h1.017c.475 0 .82-.074 1.032-.221.213-.147.32-.39.32-.73 0-.316-.116-.543-.348-.68-.232-.138-.598-.207-1.1-.207h-.921v1.838zm0 1.39v2.154h1.142c.482 0 .838-.092 1.068-.277.23-.184.345-.467.345-.848 0-.686-.49-1.029-1.47-1.029h-1.085z" fill="#FFF"/></svg>