<svg xmlns="http://www.w3.org/2000/svg" viewBox="0 0 24 24"><path d="M12 22c5.523 0 10-4.477 10-10S17.523 2 12 2 2 6.477 2 12s4.477 10 10 10z" fill="#D6003A"/><path d="M15.388 14.09c0 .745-.268 1.333-.806 1.763-.537.43-1.284.645-2.241.645-.882 0-1.663-.166-2.341-.498v-1.628c.558.249 1.03.424 1.416.526.387.101.74.152 1.06.152.385 0 .68-.073.885-.22.206-.147.308-.366.308-.656a.724.724 0 00-.135-.433 1.518 1.518 0 00-.399-.364c-.175-.117-.532-.304-1.071-.56-.505-.237-.884-.465-1.137-.684a2.568 2.568 0 01-.605-.763c-.15-.29-.226-.63-.226-1.018 0-.731.248-1.306.744-1.724.495-.419 1.18-.628 2.055-.628.43 0 .84.05 1.23.153.39.101.798.245 1.223.43l-.565 1.362a8.272 8.272 0 00-1.094-.379 3.521 3.521 0 00-.85-.107c-.332 0-.587.077-.764.231a.765.765 0 00-.266.605c0 .155.036.29.108.405.071.115.185.226.342.333.156.108.526.3 1.11.58.773.37 1.303.74 1.59 1.11.286.372.43.827.43 1.366z" fill="#FFF"/></svg>