<svg xmlns="http://www.w3.org/2000/svg" viewBox="0 0 24 24"><path d="M12 22c5.523 0 10-4.477 10-10S17.523 2 12 2 2 6.477 2 12s4.477 10 10 10z" fill="#666"/><path d="M15.87 12.252c0 1.368-.34 2.42-1.018 3.154-.678.735-1.65 1.103-2.917 1.103-1.266 0-2.239-.368-2.917-1.103C8.339 14.671 8 13.616 8 12.24c0-1.375.34-2.426 1.02-3.152C9.7 8.363 10.677 8 11.947 8c1.27 0 2.242.366 2.915 1.097s1.01 1.783 1.01 3.155zm-6.033 0c0 .923.176 1.619.526 2.086.35.467.875.701 1.572.701 1.398 0 2.098-.93 2.098-2.787 0-1.862-.696-2.793-2.087-2.793-.697 0-1.223.234-1.577.704-.354.469-.532 1.165-.532 2.089z" fill="#FFF"/></svg>