<svg xmlns="http://www.w3.org/2000/svg" viewBox="0 0 24 24"><path d="M12 22c5.523 0 10-4.477 10-10S17.523 2 12 2 2 6.477 2 12s4.477 10 10 10z" fill="#FF4D8D"/><path d="M12.585 9.186a.597.597 0 01-.66-.598.597.597 0 01.66-.599v-.838h-1.478v2.82h1.478v-.785zm-2.63.785V6.576c0-.318.257-.576.576-.576h2.63c.318 0 .576.258.576.576V9.97h1.986c.705 0 1.277.577 1.277 1.29v5.449A1.28 1.28 0 0115.723 18H8.277A1.283 1.283 0 017 16.71v-5.45c0-.712.566-1.29 1.277-1.29h1.678zm-1.803 1.29v5.449c0 .072.057.129.125.129h7.446c.071 0 .125-.055.125-.13v-5.448a.127.127 0 00-.125-.129H8.277a.123.123 0 00-.125.129zm1.394 1.856a.578.578 0 01-.576-.58c0-.321.258-.581.576-.581h4.545c.318 0 .576.26.576.58a.579.579 0 01-.576.581H9.546zm.985 1.986a.578.578 0 01-.576-.581c0-.32.257-.58.576-.58h2.727c.318 0 .576.26.576.58 0 .32-.258.58-.576.58h-2.727z" fill="#FFF"/></svg>