<svg xmlns="http://www.w3.org/2000/svg" viewBox="0 0 24 24"><path d="M12 22c5.523 0 10-4.477 10-10S17.523 2 12 2 2 6.477 2 12s4.477 10 10 10z" fill="#F9AD3D"/><path d="M11.505 11.743h3.28v4.285a9.245 9.245 0 01-1.502.365c-.469.07-.948.105-1.438.105-1.248 0-2.2-.367-2.858-1.1C8.329 14.665 8 13.612 8 12.24c0-1.334.382-2.374 1.145-3.12C9.908 8.372 10.966 8 12.319 8c.849 0 1.666.17 2.454.509l-.582 1.402a4.16 4.16 0 00-1.883-.452c-.757 0-1.364.254-1.82.763-.456.509-.684 1.193-.684 2.052 0 .897.183 1.582.55 2.055.368.473.903.71 1.604.71a5.67 5.67 0 001.113-.113V13.2h-1.566v-1.458z" fill="#000"/></svg>