<svg width="24px" height="24px" viewBox="0 0 24 24" version="1.1" xmlns="http://www.w3.org/2000/svg" xmlns:xlink="http://www.w3.org/1999/xlink">
    <path d="M12,22 C17.5228475,22 22,17.5228475 22,12 C22,6.4771525 17.5228475,2 12,2 C6.4771525,2 2,6.4771525 2,12 C2,17.5228475 6.4771525,22 12,22 Z" id="bg_icon" fill="#00AAE5"></path>
    <path d="M10,8 L12.5724712,8 C13.7446947,8 14.5955805,8.16678493 15.1251542,8.50035979 C15.6547278,8.83393464 15.9195107,9.36444263 15.9195107,10.0918997 C15.9195107,10.5856658 15.8036093,10.9908496 15.571803,11.307463 C15.3399968,11.6240764 15.0318687,11.8144185 14.6474095,11.8784951 L14.6474095,11.9350329 C15.1713294,12.0518783 15.5491868,12.2704891 15.780993,12.5908717 C16.0127993,12.9112543 16.1287007,13.3371684 16.1287007,13.8686266 C16.1287007,14.6224681 15.8563795,15.2104557 15.311729,15.6326069 C14.7670786,16.0547581 14.0273827,16.2658306 13.0926192,16.2658306 L10,16.2658306 L10,8 Z M11.7526727,11.2735403 L12.7703536,11.2735403 C13.2452738,11.2735403 13.5892088,11.2000419 13.802169,11.0530428 C14.0151292,10.9060437 14.1216077,10.6629334 14.1216077,10.3237048 C14.1216077,10.0070913 14.0057063,9.78 13.7739001,9.64242393 C13.5420938,9.50484786 13.1755439,9.43606086 12.6742393,9.43606086 L11.7526727,9.43606086 L11.7526727,11.2735403 Z M11.7526727,12.6643709 L11.7526727,14.8184622 L12.8947368,14.8184622 C13.3771954,14.8184622 13.7333802,14.726118 13.9633018,14.5414268 C14.1932235,14.3567356 14.3081826,14.0740493 14.3081826,13.6933594 C14.3081826,13.0073636 13.8181929,12.6643709 12.838199,12.6643709 L11.7526727,12.6643709 Z" id="B" fill="#FFFFFF"></path>
</svg>
