<svg xmlns="http://www.w3.org/2000/svg" viewBox="0 0 24 24"><path d="M12 22c5.523 0 10-4.477 10-10S17.523 2 12 2 2 6.477 2 12s4.477 10 10 10z" fill="#099"/><path d="M11.753 11.67h.565c.554 0 .963-.093 1.227-.278.264-.184.396-.475.396-.87 0-.392-.135-.671-.405-.837-.27-.166-.686-.249-1.252-.249h-.531v2.233zm0 1.424v3.172H10V8h2.409c1.123 0 1.954.204 2.493.613.539.41.808 1.03.808 1.863 0 .487-.133.92-.401 1.298-.268.379-.647.676-1.137.89a333.826 333.826 0 002.432 3.602h-1.945l-1.973-3.172h-.933z" fill="#FFF"/></svg>