<svg xmlns="http://www.w3.org/2000/svg" viewBox="0 0 24 24"><path d="M12 22c5.523 0 10-4.477 10-10S17.523 2 12 2 2 6.477 2 12s4.477 10 10 10z" fill="#18A532"/><path d="M7.646 11.671h.531c.52 0 .905-.092 1.153-.277.247-.185.371-.475.371-.871 0-.392-.126-.671-.38-.837-.252-.166-.645-.25-1.176-.25h-.499v2.235zm0 1.426v3.173H6V8h2.262c1.055 0 1.836.205 2.342.614.506.409.76 1.03.76 1.864 0 .486-.126.919-.378 1.298-.25.379-.607.676-1.067.89a336.1 336.1 0 002.284 3.604h-1.827l-1.854-3.173h-.876zm7.471 3.173h-1.88V8h5.168v1.437h-3.288v2.132h3.06V13h-3.06v3.27z" fill="#FFF"/></svg>