<svg xmlns="http://www.w3.org/2000/svg" viewBox="0 0 24 24"><g fill="currentColor" fill-rule="evenodd" transform="translate(0 .18)"><path id="prefix__a" d="M10.5 1.75c-4.832 0-8.75 3.918-8.75 8.75s3.918 8.75 8.75 8.75 8.75-3.918 8.75-8.75c0-2.32-.922-4.546-2.563-6.187-1.64-1.641-3.866-2.563-6.187-2.563zm0 1.59c3.954 0 7.16 3.206 7.16 7.16s-3.206 7.16-7.16 7.16-7.16-3.206-7.16-7.16 3.206-7.16 7.16-7.16zm0 1.592c-.44 0-.795.356-.795.795v4.884c0 .44.356.796.795.796h3.182c.44 0 .795-.356.795-.796 0-.439-.356-.795-.795-.795h-2.387V5.727c0-.439-.356-.795-.795-.795z"/></g></svg>
