<svg xmlns="http://www.w3.org/2000/svg" viewBox="0 0 24 24"><g fill="currentColor" fill-rule="evenodd"><path id="prefix__a" d="M12 2C6.477 2 2 6.477 2 12s4.477 10 10 10 10-4.477 10-10c0-2.652-1.054-5.196-2.929-7.071C17.196 3.054 14.652 2 12 2zm0 1.818c4.519 0 8.182 3.663 8.182 8.182S16.519 20.182 12 20.182 3.818 16.519 3.818 12 7.481 3.818 12 3.818zm0 1.818c-.502 0-.91.407-.91.91v5.581c0 .502.408.91.91.91h3.636c.502 0 .91-.408.91-.91s-.408-.909-.91-.909H12.91V6.545c0-.502-.407-.909-.909-.909z"/></g></svg>