<svg xmlns="http://www.w3.org/2000/svg" viewBox="0 0 18 18"><path d="M11.705 16.107a.566.566 0 01-.465-.234c-.643-.85-2.378-3.3-3.517-4.942-.395-.57-.117-2.453-.117-2.88 0-.07-.026-.1-.07-.1-.23 0-.942.777-1.119 1.104-.212.394-.294.594-.368 1.592-.018.238-.285.397-.537.397-.228 0-.443-.13-.451-.448-.021-.855.166-2.09.57-2.646.45-.622 1.635-1.76 2.377-1.96.114-.03.26-.046.416-.046.316 0 .672.062.881.18.49.275 1.144 1.39 1.617 1.692.295.189 1.266.095 1.75.155.774.096.686 1.252.071 1.252h-.013c-.362-.01-.715-.013-1.04-.013-.94 0-1.646.03-1.646.03l-.043 1.558s1.847 3.27 2.428 4.322c.257.466-.25.987-.724.987m-4.147-1.53c-.052.132-.582.582-1.388 1.31-.217.195-.42.272-.596.272-.479 0-.746-.572-.475-.881.301-.345 1.203-1.296 1.401-1.547.199-.252.595-1.68.595-1.68l.953 1.389s-.436 1.005-.49 1.137m.925-12.054a1.114 1.114 0 110 2.228 1.114 1.114 0 010-2.228m0-1.023a2.14 2.14 0 012.137 2.137c0 .655-.302 1.235-.767 1.627.403.244.74.654 1.094 1.093.133.165.342.422.465.545.157.017.44.02.62.02.277.003.537.005.767.034.882.11 1.506.878 1.448 1.784-.053.859-.7 1.506-1.504 1.506h-.04a40.646 40.646 0 00-1.664-.009l-.008.306c.443.783 1.81 3.208 2.293 4.082.273.495.26 1.087-.035 1.586a1.877 1.877 0 01-1.584.919 1.59 1.59 0 01-1.28-.64c-.332-.438-.942-1.284-1.617-2.234-.123.285-.27.626-.3.7-.13.327-.352.526-1.178 1.264l-.475.426c-.491.443-.968.536-1.281.536-.626 0-1.2-.373-1.462-.95-.255-.56-.171-1.183.217-1.627.128-.147.362-.401.607-.666.256-.278.598-.648.729-.801.08-.172.247-.674.392-1.175a1.618 1.618 0 01-.545.103c-.834 0-1.453-.606-1.473-1.444-.02-.797.118-2.383.763-3.273.399-.55 1.38-1.562 2.32-2.078a2.125 2.125 0 01-.776-1.634A2.14 2.14 0 018.483 1.5zM2.06 11.676c.308 0 .56.252.56.56v1.184a.561.561 0 01-1.12 0v-1.184c0-.308.252-.56.56-.56zm1.992 0c.308 0 .56.252.56.56v1.184a.562.562 0 01-1.121 0v-1.183c0-.31.253-.562.56-.562zm9.71 0c.308 0 .56.252.56.56v1.184a.561.561 0 01-1.12 0v-1.184c0-.308.251-.56.56-.56zm2.178 0c.308 0 .56.252.56.56v1.184c0 .308-.252.56-.56.56a.562.562 0 01-.56-.56v-1.184c0-.308.252-.56.56-.56z" fill-rule="evenodd"/></svg>
