<svg xmlns="http://www.w3.org/2000/svg" viewBox="0 0 24 24"><path d="M4.604 5C3.202 5 2.056 6.237 2.048 7.758L2.04 9.263c-.003.404.15.791.424 1.075.267.278.628.433 1.005.433h.025c.274 0 .503.069.708.206.724.483.964 1.604.523 2.445-.261.499-.715.798-1.215.798l-.04-.001c-.37 0-.744.151-1.01.422a1.55 1.55 0 00-.454 1.069L2 17.113c-.008 1.529 1.131 2.78 2.54 2.789L19.38 20c1.417 0 2.563-1.237 2.571-2.758l.008-1.493c.005-.817-.615-1.487-1.393-1.508a1.194 1.194 0 01-.657-.201c-.724-.484-.963-1.604-.523-2.446.259-.494.706-.793 1.198-.801.779-.012 1.405-.675 1.408-1.491L22 7.887c.007-1.529-1.132-2.78-2.54-2.789L4.62 5h-.016zm.007 1.5l14.84.098c.62.004 1.124.581 1.12 1.281l-.007 1.414c-.966.015-1.902.571-2.43 1.579-.805 1.539-.354 3.524 1.008 4.434.437.292.914.423 1.388.435l-.007 1.493c-.004.698-.51 1.266-1.128 1.266h-.006l-14.841-.098c-.62-.004-1.123-.581-1.12-1.281l.007-1.403.076.002c.979 0 1.932-.554 2.466-1.575.806-1.539.354-3.524-1.006-4.434a2.594 2.594 0 00-1.453-.44H3.47l.006-1.505c.004-.698.51-1.266 1.128-1.266h.007zm9.888 2.409c-.455-.005-.83.38-.837.859l-.054 5.517c-.005.477.363.872.818.877.455.005.83-.382.835-.86l.056-5.516c.003-.478-.363-.872-.818-.877z" fill="currentColor" fill-rule="evenodd"/></svg>