<svg width="36" height="31" viewBox="0 0 36 31" fill="none" xmlns="http://www.w3.org/2000/svg">
<path fill-rule="evenodd" clip-rule="evenodd" d="M23.5933 0.10483L15.6221 0.100098L15.6389 7.98737C15.6389 7.98737 22.5568 7.97723 22.8476 7.97656C25.7173 7.97047 28.0487 10.2759 28.0547 13.1588C28.0608 16.0018 25.8035 18.3174 22.9889 18.387L17.094 18.3999L25.6951 30.9001L34.7694 30.8798L30.0751 24.1101C33.6051 21.7593 35.9283 17.7292 35.9189 13.1568C35.9041 6.17207 30.4507 0.47668 23.5933 0.10483Z" fill="#40C0C0"/>
<path fill-rule="evenodd" clip-rule="evenodd" d="M13.0478 18.405C13.0343 18.405 13.0215 18.4057 13.0081 18.4057C10.1316 18.4057 7.80027 16.0631 7.80027 13.1734C7.80027 10.2838 10.1316 7.94118 13.0081 7.94118C13.0215 7.94118 13.0343 7.94186 13.0478 7.94186V0.106633C13.0343 0.106633 13.0215 0.105957 13.0081 0.105957C5.82429 0.105957 0 5.95617 0 13.1734C0 20.3907 5.82429 26.2409 13.0081 26.2409C13.0215 26.2409 13.0343 26.2409 13.0478 26.2409V18.405Z" fill="#138484"/>
</svg>
