<svg xmlns="http://www.w3.org/2000/svg" viewBox="0 0 24 24"><g fill="currentColor" fill-rule="evenodd"><path d="M5.265 13.355c-.942 0-1.706-.814-1.706-1.816 0-1.003.764-1.816 1.706-1.816V7C2.91 7 1 9.032 1 11.539c0 2.506 1.91 4.539 4.265 4.539v-2.723zM8.737 7.022V7.02h-.11l.11.002m4.385 4.507c0-2.464-1.953-4.468-4.385-4.528L8.627 7H6.163v2.724h2.574v-.003a1.806 1.806 0 011.688 1.808c0 1-.805 1.812-1.798 1.812v.026H6.672l2.932 4.3h3.128L11.118 15.3a4.534 4.534 0 002.004-3.77"/><path d="M13.571 13.858h.846c.467 0 .813.083 1.037.25.225.167.337.449.337.844 0 .218-.041.4-.124.545a1.084 1.084 0 01-.31.351 1.22 1.22 0 01-.4.191 1.562 1.562 0 01-.4.057h-.533v1.476h-.453v-3.714zm.453 1.83h.496c.122 0 .232-.012.331-.036a.656.656 0 00.256-.12.547.547 0 00.167-.228.96.96 0 00.06-.363.842.842 0 00-.063-.35.449.449 0 00-.183-.205.815.815 0 00-.304-.095 3.249 3.249 0 00-.426-.025h-.334v1.422zm2.457-1.83h.905c.198 0 .378.017.541.051.164.035.303.093.418.175a.79.79 0 01.264.324c.061.134.092.303.092.506a1.244 1.244 0 01-.114.548c-.071.14-.16.252-.264.337a1.01 1.01 0 01-.36.188v.011a3.512 3.512 0 01.145.18l1.04 1.394h-.534l-1.066-1.476h-.615v1.476h-.452v-3.714zm1.762 1.132c0-.152-.02-.276-.057-.373a.465.465 0 00-.167-.22.668.668 0 00-.272-.104 2.22 2.22 0 00-.366-.027h-.448v1.422h.534c.14 0 .258-.018.355-.055a.593.593 0 00.372-.37.939.939 0 00.049-.273zm1.131.725c0-.352.055-.65.164-.893.11-.244.25-.44.42-.589.171-.149.362-.257.572-.324.21-.067.415-.1.617-.1.2 0 .406.028.617.084.21.056.4.156.57.3.171.143.311.338.42.585.11.247.165.561.165.942 0 .356-.055.656-.164.9a1.74 1.74 0 01-.42.593c-.171.152-.361.262-.571.33-.21.066-.416.1-.617.1a2.07 2.07 0 01-.617-.098 1.57 1.57 0 01-.571-.321 1.673 1.673 0 01-.42-.594c-.11-.247-.165-.552-.165-.915zm3.033.027c0-.49-.112-.862-.336-1.116-.225-.255-.526-.382-.903-.382-.19 0-.364.03-.52.09-.156.06-.29.15-.404.27a1.24 1.24 0 00-.264.45c-.063.179-.094.39-.094.634 0 .49.112.866.337 1.127.224.262.525.392.902.392.187 0 .36-.03.517-.09.158-.06.294-.151.407-.275.113-.123.201-.276.264-.457.063-.182.094-.396.094-.643z" fill-rule="nonzero"/></g></svg>