<svg width="24px" height="24px" viewBox="0 0 24 24" version="1.1" xmlns="http://www.w3.org/2000/svg" xmlns:xlink="http://www.w3.org/1999/xlink">
    <!-- Generator: Sketch 50.2 (55047) - http://www.bohemiancoding.com/sketch -->
    <title>IconDeliveryEcpress</title>
    <desc>Created with Sketch.</desc>
    <defs></defs>
    <g id="Page-1" stroke="none" stroke-width="1" fill="none" fill-rule="evenodd">
        <g id="iconDeliveryExpress">
           <path d="M6.3442623,14.3604651 C6.70983607,14.3604651 7.06229508,14.4897209 7.34098361,14.7215349 L6.07016393,15.2268372 C5.69278689,15.3769302 5.50852459,15.804093 5.65934426,16.1791628 C5.80721311,16.5451163 6.24327869,16.7362326 6.61803279,16.5871163 L7.89180328,16.0811628 C7.8042623,16.8521395 7.14360656,17.4534884 6.3442623,17.4534884 C5.48557377,17.4534884 4.78688525,16.7596744 4.78688525,15.9069767 C4.78688525,15.0542791 5.48557377,14.3604651 6.3442623,14.3604651 Z M12.3560656,14.3080465 C12.7334426,14.1579535 12.9180328,13.7304651 12.7668852,13.3557209 C12.6163934,12.9816279 12.1865574,12.7996279 11.8081967,12.9477674 L10.6990164,13.3882791 C10.5491803,13.1310698 10.3754098,12.8846047 10.1806557,12.6511628 L10.647541,12.6511628 C11.8839344,12.6511628 13.1783607,11.6617209 14.8163934,10.4092093 C14.9616393,10.298186 15.1091803,10.1858605 15.2586885,10.0722326 C15.5111475,10.5804651 15.8206557,11.2049302 16.157377,11.8844186 C14.6780328,12.9223721 14.0508197,14.3396279 13.7967213,15.1744186 L11.3534426,15.1744186 C11.3268852,15.031814 11.2947541,14.8895349 11.2563934,14.7449767 L12.3560656,14.3080465 Z M19.2914754,16.5649767 C19.4685246,16.4786977 19.6013115,16.3292558 19.6652459,16.1443256 C19.7288525,15.9590698 19.7163934,15.7604651 19.6298361,15.5849767 L19.0259016,14.3614419 C19.857377,14.3923721 20.5245902,15.0734884 20.5245902,15.9069767 C20.5245902,16.7596744 19.8259016,17.4534884 18.9672131,17.4534884 C18.1085246,17.4534884 17.4098361,16.7596744 17.4098361,15.9069767 C17.4098361,15.5810698 17.512459,15.2688372 17.7016393,15.0077209 L18.3045902,16.2289767 C18.4291803,16.4822791 18.6836066,16.6395349 18.9678689,16.6395349 C19.0793443,16.6395349 19.1911475,16.613814 19.2914754,16.5649767 Z M18.9672131,12.8953488 C20.6396721,12.8953488 22,14.246186 22,15.9069767 C22,17.5677674 20.6396721,18.9186047 18.9672131,18.9186047 C17.2947541,18.9186047 15.9344262,17.5677674 15.9344262,15.9069767 C15.9344262,15.016186 16.324918,14.1866047 17.0111475,13.6106512 L16.8154098,13.2144186 C15.347541,14.3438605 15.1180328,15.9320465 15.1081967,16.0013953 C15.0596721,16.3650698 14.7452459,16.6395349 14.3770492,16.6395349 L10.704918,16.6395349 C10.3213115,16.6395349 9.99803279,16.3419535 9.96918033,15.9616744 C9.95213115,15.7353953 9.91967213,15.5159535 9.87016393,15.2955349 L9.34786885,15.5029302 C9.36754098,15.6422791 9.37704918,15.7754419 9.37704918,15.9069767 C9.37704918,17.5677674 8.01672131,18.9186047 6.3442623,18.9186047 C4.67180328,18.9186047 3.31147541,17.5677674 3.31147541,15.9069767 C3.31147541,14.246186 4.67180328,12.8953488 6.3442623,12.8953488 C7.31967213,12.8953488 8.22754098,13.3593023 8.79934426,14.1426512 L9.30295082,13.9427442 C7.76557377,11.6154884 4.08590164,11.5119535 4.04852459,11.5116279 C3.64229508,11.5116279 3.31147541,11.1831163 3.31147541,10.7790698 C3.31147541,10.3750233 3.64229508,10.0465116 4.04918033,10.0465116 C5.10622951,10.0465116 6.86819672,10.3453953 8.37704918,11.1860465 L10.647541,11.1860465 C11.3816393,11.1860465 12.6704918,10.2008372 13.9170492,9.24818605 C14.135082,9.08148837 14.3596721,8.91088372 14.587541,8.73962791 C14.5678689,8.70674419 14.5521311,8.68167442 14.5393443,8.6627907 L12.6557377,8.6627907 C12.2488525,8.6627907 11.9180328,8.33427907 11.9180328,7.93023256 C11.9180328,7.52618605 12.2488525,7.19767442 12.6557377,7.19767442 L14.6639344,7.19767442 C15.4140984,7.19767442 15.7754098,7.84395349 15.9114754,8.08716279 C15.9704918,8.19330233 16.4898361,9.23516279 17.455082,11.1853953 C18.3983607,10.8073953 19.4852459,10.6162791 20.6885246,10.6162791 C21.095082,10.6162791 21.4262295,10.9447907 21.4262295,11.3488372 C21.4262295,11.7528837 21.095082,12.0813953 20.6885246,12.0813953 C19.7236066,12.0813953 18.8563934,12.2236744 18.1081967,12.5046512 L18.335082,12.9643721 C18.5478689,12.9184651 18.76,12.8953488 18.9672131,12.8953488 Z M7.3312459,9.9857907 L3.48567213,9.9857907 C3.10829508,9.9857907 2.80108197,9.68072093 2.80108197,9.30597674 C2.80108197,8.93123256 3.10829508,8.62616279 3.48567213,8.62616279 L6.64665574,8.62616279 L6.64665574,6.3597907 L2.68468852,6.3597907 C2.30731148,6.3597907 2.00009836,6.05472093 2.00009836,5.67997674 C2.00009836,5.30523256 2.30731148,5.00016279 2.68468852,5.00016279 L7.3312459,5.00016279 C7.70862295,5.00016279 8.01583607,5.30523256 8.01583607,5.67997674 L8.01583607,9.30597674 C8.01583607,9.68072093 7.70862295,9.9857907 7.3312459,9.9857907 Z M3.48580328,8.0404093 C3.10842623,8.0404093 2.80121311,7.73533953 2.80121311,7.36059535 C2.80121311,6.98552558 3.10842623,6.68045581 3.48580328,6.68045581 L5.67760656,6.68045581 C6.05498361,6.68045581 6.36219672,6.98552558 6.36219672,7.36059535 C6.36219672,7.73533953 6.05498361,8.0404093 5.67760656,8.0404093 L3.48580328,8.0404093 Z" id="Combined-Shape" fill="currentColor"></path>
        </g>
    </g>
</svg>
