<svg viewBox="0 0 28 28" fill="none" xmlns="http://www.w3.org/2000/svg"><mask id="a" style="mask-type:alpha" maskUnits="userSpaceOnUse" x="0" y="0" width="28" height="28"><path fill="#fff" d="M0 0h28v28H0z"/></mask><g mask="url(#a)"><rect x="1.96001" y="8.02666" width="14.56" height="14.56" rx="4" fill="#DEF3F3"/><path fill-rule="evenodd" clip-rule="evenodd" d="M23.9034 18.9666c-.0886.4034-.4454.6855-.8581.6832l-.5747-.0023c-.2705-1.3536-1.4631-2.3737-2.8959-2.3737-1.4235 0-2.6091 1.0062-2.8901 2.3468l-2.77-.0139c-.3008-1.3128-1.4701-2.2955-2.8749-2.2955-1.39432 0-2.55548.9687-2.86558 2.2675l-1.01543-.0047c-.33576-.0594-1.46894-.3591-1.46894-1.6415 0-.647.14456-1.9819.32993-3.4321l6.59152-.0607c.4197-.0046.7555-.3474.752-.7647-.0047-.4162-.3428-.752-.7578-.752h-.007l-6.37587.0595c.05713-.4069.11309-.8068.16788-1.1892l2.50069-.0349c.41853-.0047.75428-.3451.75195-.7648-.00466-.4162-.34275-.7508-.75895-.7508h-.00699l-2.26403.0303c.12941-.86038.22034-1.44329.22034-1.44795.02332-.09793.58524-2.40976 2.89124-2.40976.86504 0 1.83504.00933 2.87024.02099 1.1903.01166 2.4669.02332 3.7679.02332.3521 0 1.4993.11541 1.4993 1.59834 0 1.06206-.0093 3.62216-.0163 4.97576-.0012.4826.3882.8755.8708.8778.4827.0024.8767-.3847.8791-.8673.0035-.7718.0081-1.9365.0105-2.9927.0081-.0012.0163-.0023.0233-.0023.0268-.0047 2.5426-.23554 4.0034 1.0772.7415.6668 1.1017 1.6123 1.1017 2.8947 0 .9385-.4663 3.2771-.8312 4.9454m-4.3287 2.3573c-.5853 0-1.0586-.4733-1.0586-1.0586 0-.584.4733-1.0574 1.0586-1.0574.5841 0 1.0574.4734 1.0574 1.0574 0 .5853-.4733 1.0586-1.0574 1.0586m-8.535 0c-.5841 0-1.0574-.4733-1.0574-1.0586 0-.584.4733-1.0574 1.0574-1.0574.5852 0 1.0586.4734 1.0586 1.0574 0 .5853-.4734 1.0586-1.0586 1.0586M24.8022 9.82542c-1.8152-1.62749-4.4872-1.56919-5.1914-1.52956v-.23782c0-2.299-1.6834-3.34707-3.248-3.34707-1.2952 0-2.5659-.01166-3.7516-.02332-1.0399-.01049-2.0168-.02099-2.88654-.02099-2.97984 0-4.31004 2.47154-4.60733 3.82972-.01515.09094-.12707.80325-.27513 1.80002l-1.75689.0233c-.4197.0047-.75545.3486-.75195.7648.00466.4174.34275.752.75778.752h.00699l1.52257-.0199c-.0548.3824-.11076.78-.16555 1.1822l-.2763.0023c-.41853.0047-.75429.3474-.75079.7648.0035.4162.34159.7519.75778.7519H4.25579c-.17837 1.427-.31477 2.7351-.31477 3.4147 0 2.3597 1.9819 3.2445 3.14072 3.3902l1.20896.0059c.42785 1.1052 1.49342 1.8909 2.749 1.8909 1.2463 0 2.3072-.7741 2.7408-1.8641l3.0685.0151c.4465 1.0644 1.4981 1.8117 2.7257 1.8117 1.2159 0 2.2605-.7368 2.7117-1.7872l2.1521.0105h.0046c.4046 0 .7555-.2774.8499-.6715.1224-.5106 1.1903-5.0305 1.1903-6.7128 0-1.7825-.5654-3.192-1.6811-4.19578" fill="#231F20"/><mask id="b" style="mask-type:alpha" maskUnits="userSpaceOnUse" x="2" y="4" width="25" height="20"><path fill-rule="evenodd" clip-rule="evenodd" d="M23.9034 18.9666c-.0886.4034-.4454.6855-.8581.6832l-.5747-.0023c-.2705-1.3536-1.4631-2.3737-2.8959-2.3737-1.4235 0-2.6091 1.0062-2.8901 2.3468l-2.77-.0139c-.3008-1.3128-1.4701-2.2955-2.8749-2.2955-1.39432 0-2.55548.9687-2.86558 2.2675l-1.01543-.0047c-.33576-.0594-1.46894-.3591-1.46894-1.6415 0-.647.14456-1.9819.32993-3.4321l6.59152-.0607c.4197-.0046.7555-.3474.752-.7647-.0047-.4162-.3428-.752-.7578-.752h-.007l-6.37587.0595c.05713-.4069.11309-.8068.16788-1.1892l2.50069-.0349c.41853-.0047.75428-.3451.75195-.7648-.00466-.4162-.34275-.7508-.75895-.7508h-.00699l-2.26403.0303c.12941-.86038.22034-1.44329.22034-1.44795.02332-.09793.58524-2.40976 2.89124-2.40976.86504 0 1.83504.00933 2.87024.02099 1.1903.01166 2.4669.02332 3.7679.02332.3521 0 1.4993.11541 1.4993 1.59834 0 1.06206-.0093 3.62216-.0163 4.97576-.0012.4826.3882.8755.8708.8778.4827.0024.8767-.3847.8791-.8673.0035-.7718.0081-1.9365.0105-2.9927.0081-.0012.0163-.0023.0233-.0023.0268-.0047 2.5426-.23554 4.0034 1.0772.7415.6668 1.1017 1.6123 1.1017 2.8947 0 .9385-.4663 3.2771-.8312 4.9454m-4.3287 2.3573c-.5853 0-1.0586-.4733-1.0586-1.0586 0-.584.4733-1.0574 1.0586-1.0574.5841 0 1.0574.4734 1.0574 1.0574 0 .5853-.4733 1.0586-1.0574 1.0586m-8.535 0c-.5841 0-1.0574-.4733-1.0574-1.0586 0-.584.4733-1.0574 1.0574-1.0574.5852 0 1.0586.4734 1.0586 1.0574 0 .5853-.4734 1.0586-1.0586 1.0586M24.8022 9.82542c-1.8152-1.62749-4.4872-1.56919-5.1914-1.52956v-.23782c0-2.299-1.6834-3.34707-3.248-3.34707-1.2952 0-2.5659-.01166-3.7516-.02332-1.0399-.01049-2.0168-.02099-2.88654-.02099-2.97984 0-4.31004 2.47154-4.60733 3.82972-.01515.09094-.12707.80325-.27513 1.80002l-1.75689.0233c-.4197.0047-.75545.3486-.75195.7648.00466.4174.34275.752.75778.752h.00699l1.52257-.0199c-.0548.3824-.11076.78-.16555 1.1822l-.2763.0023c-.41853.0047-.75429.3474-.75079.7648.0035.4162.34159.7519.75778.7519H4.25579c-.17837 1.427-.31477 2.7351-.31477 3.4147 0 2.3597 1.9819 3.2445 3.14072 3.3902l1.20896.0059c.42785 1.1052 1.49342 1.8909 2.749 1.8909 1.2463 0 2.3072-.7741 2.7408-1.8641l3.0685.0151c.4465 1.0644 1.4981 1.8117 2.7257 1.8117 1.2159 0 2.2605-.7368 2.7117-1.7872l2.1521.0105h.0046c.4046 0 .7555-.2774.8499-.6715.1224-.5106 1.1903-5.0305 1.1903-6.7128 0-1.7825-.5654-3.192-1.6811-4.19578" fill="#fff"/></mask><g mask="url(#b)"><path fill="#333" d="M0 0h28v28H0z"/></g></g></svg>
