<svg xmlns="http://www.w3.org/2000/svg" viewBox="0 0 38 30"><g fill="none" fill-rule="evenodd"><rect width="38" height="30" fill="#006AC9" rx="4"/><path fill="#FFF" fill-rule="nonzero" d="M21.022 7.001c.24.003.478.015.717.063l-.047-.008c3.877.45 7.25 3.553 7.308 7.906 0 4.331-3.949 7.834-8.28 7.834h-3.695a8.001 8.001 0 01-6.028-2.715l-.086-.087C9.7 18.656 9 16.873 9 14.962 9 10.248 12.567 7 16.962 7zm-3.997.636l-.24.004c-3.84.129-6.957 3.326-6.957 7.257 0 .087.002.174.004.26.137 3.83 3.27 6.938 7.193 6.938 3.95 0 7.198-3.185 7.262-7.198a7.258 7.258 0 00-7.262-7.261zM15.37 10.63v8.535c-1.72-.637-2.93-2.293-2.93-4.268 0-1.974 1.21-3.63 2.93-4.267zm3.249 0c1.72.637 2.93 2.293 2.93 4.267 0 1.91-1.21 3.63-2.93 4.268z"/></g></svg>