<svg width="38" height="30" xmlns="http://www.w3.org/2000/svg"><g fill="none" fill-rule="evenodd"><rect fill="#006AC9" width="38" height="30" rx="4"/><path d="M10.993 20.075l-.082-.081A7.483 7.483 0 019 14.962C9 10.248 12.567 7 16.962 7h3.821c.31 0 .62 0 .93.059 3.868.458 7.228 3.558 7.287 7.903 0 4.331-3.949 7.834-8.28 7.834h-3.695a7.999 7.999 0 01-6.032-2.72zM9.829 15.04a7.19 7.19 0 007.196 7.056c3.95 0 7.198-3.185 7.262-7.198a7.258 7.258 0 00-7.262-7.261c-3.949 0-7.197 3.248-7.197 7.261l.001.142zm2.61-.142c0-1.974 1.21-3.63 2.93-4.267v8.535c-1.72-.637-2.93-2.293-2.93-4.268zm6.179-4.267c1.72.637 2.93 2.293 2.93 4.267 0 1.91-1.21 3.63-2.93 4.268V10.63z" fill="#FFF" fill-rule="nonzero"/></g></svg>