<svg width="38" height="30" xmlns="http://www.w3.org/2000/svg"><g fill="none" fill-rule="evenodd"><rect fill="#000" width="38" height="30" rx="4"/><g fill-rule="nonzero"><path d="M7.308 10.837a3.923 3.923 0 011.222-.193c1.865 0 3.422 1.297 3.779 3.023l2.643-.528C14.346 10.206 11.702 8 8.53 8c-.727 0-1.424.116-2.078.33l.856 2.507z" fill="#FFCA05"/><path d="M4.238 19.333l1.81-2a3.772 3.772 0 01-1.317-2.857c0-1.138.508-2.158 1.315-2.857l-1.808-2C2.866 10.807 2 12.543 2 14.476c0 1.933.866 3.669 2.238 4.857" fill="#00A4DF"/><path d="M12.31 15.286c-.359 1.725-1.914 3.022-3.777 3.022a3.9 3.9 0 01-1.224-.195l-.857 2.51c.654.214 1.353.33 2.08.33 3.168 0 5.811-2.205 6.42-5.136l-2.643-.531z" fill="#EE4123"/><path d="M22.435 16.603l-.002.002-.075-.05a2.118 2.118 0 01-.976.82c-.807.353-1.555.262-2.093-.211l-.049.075-.002-.001-.916 1.376c.228.16.472.294.729.401 1.012.423 2.047.403 3.067-.043.738-.32 1.317-.81 1.713-1.431l-1.396-.938zm-2.86-3.396c-.853.367-1.292 1.17-1.202 2.113l3.612-1.562c-.622-.733-1.43-.975-2.41-.551zM17.177 17.4a4.709 4.709 0 01-.274-.53 3.906 3.906 0 01-.085-2.943c.387-1.058 1.126-1.869 2.081-2.281 1.2-.52 2.528-.417 3.679.269.73.42 1.25 1.071 1.642 1.99.05.118.095.244.138.351l-7.18 3.143zm9.69-7.782v7.654l1.185.483-.673 1.577-1.307-.546a1.488 1.488 0 01-.645-.544c-.145-.225-.253-.533-.253-.95V9.62h1.693zm3.07 5.704a2.17 2.17 0 00.735 1.632l-1.214 1.363a3.996 3.996 0 01-1.341-2.997 3.995 3.995 0 011.345-2.992l1.215 1.36a2.169 2.169 0 00-.74 1.634zm2.159 2.173a2.164 2.164 0 002.118-1.73l1.784.365a3.988 3.988 0 01-3.904 3.193c-.43 0-.856-.07-1.263-.207l.58-1.733c.215.071.446.111.685.112zm.005-6.17A3.988 3.988 0 0136 14.53l-1.785.363a2.163 2.163 0 00-2.8-1.628l-.576-1.735a3.96 3.96 0 011.262-.204z" fill="#FFF"/></g></g></svg>