<svg xmlns="http://www.w3.org/2000/svg" viewBox="0 0 16 16"><g fill-rule="nonzero" fill="none"><circle fill="#FFD93B" cx="8" cy="8" r="8"/><path d="M8 13.333c-2.187 0-4.108-1.312-4.781-3.266-.065-.187.045-.389.245-.45a.387.387 0 01.48.23c.572 1.658 2.202 2.771 4.056 2.771s3.484-1.113 4.055-2.77a.387.387 0 01.48-.23c.201.06.311.262.246.45-.673 1.953-2.594 3.265-4.781 3.265z" fill="#3E4347"/><path d="M16 7.903a8.096 8.096 0 01-14.4 5.083 8.054 8.054 0 005.083 1.794 8.096 8.096 0 008.097-8.097c0-1.925-.67-3.694-1.794-5.083A8.088 8.088 0 0116 7.903z" fill="#F4C534"/><g fill="#3E4347"><path d="M6.919 6.378c-.381-.446-1.068-.741-1.851-.741-.787.003-1.474.299-1.855.744.017-.863.84-1.558 1.855-1.558 1.007 0 1.833.692 1.85 1.555zM13.321 6.378c-.38-.446-1.068-.741-1.851-.741-.787.003-1.474.299-1.855.744.018-.863.84-1.558 1.855-1.558 1.008 0 1.833.692 1.851 1.555z"/></g></g></svg>