<?xml version="1.0" encoding="UTF-8"?>
<svg width="24px" height="24px" viewBox="0 0 20 20" version="1.1" xmlns="http://www.w3.org/2000/svg" xmlns:xlink="http://www.w3.org/1999/xlink">
    <!-- Generator: Sketch 51.2 (57519) - http://www.bohemiancoding.com/sketch -->
    <title>outline-remove_shopping_cart-24px</title>
    <desc>Created with Sketch.</desc>
    <defs></defs>
    <g id="Page-1" stroke="none" stroke-width="1" fill="none" fill-rule="evenodd">
        <g transform="translate(0.000000, -1.000000)">
            <polygon id="Shape" points="0 0 20 0 20 20 0 20"></polygon>
            <path d="M1.175,0.941666667 L0,2.11666667 L3.65833333,5.775 L5.5,9.65833333 L4.375,11.7 C4.24166667,11.9333333 4.16666667,12.2083333 4.16666667,12.5 C4.16666667,13.4166667 4.91666667,14.1666667 5.83333333,14.1666667 L12.05,14.1666667 L13.2,15.3166667 C12.7833333,15.6166667 12.5083333,16.1083333 12.5083333,16.6666667 C12.5083333,17.5833333 13.25,18.3333333 14.1666667,18.3333333 C14.725,18.3333333 15.2166667,18.0583333 15.5166667,17.6333333 L17.8833333,20 L19.0583333,18.825 L1.175,0.941666667 Z M5.83333333,12.5 L6.75,10.8333333 L8.71666667,10.8333333 L10.3833333,12.5 L5.83333333,12.5 Z M16.6666667,3.33333333 C17.3,3.33333333 17.7083333,4.01666667 17.4,4.56666667 L14.4166667,9.975 C14.2,10.375 13.825,10.6666667 13.375,10.7833333 L11.7583333,9.16666667 L12.9583333,9.16666667 L15.2583333,5 L7.6,5 L5.93333333,3.33333333 L16.6666667,3.33333333 Z M5.83333333,15 C6.75,15 7.5,15.75 7.5,16.6666667 C7.5,17.5833333 6.75,18.3333333 5.83333333,18.3333333 C4.91666667,18.3333333 4.175,17.5833333 4.175,16.6666667 C4.175,15.75 4.91666667,15 5.83333333,15 Z" id="Combined-Shape" fill="currentColor" fill-rule="nonzero"></path>
        </g>
    </g>
</svg>
