<svg viewBox="0 0 60 61" fill="none" xmlns="http://www.w3.org/2000/svg"><path d="M19.331 42.53h.003l.007-.001h31.87c.785 0 1.474-.52 1.69-1.275l7.031-24.61a1.758 1.758 0 00-1.69-2.24H15.277l-1.256-5.655a1.758 1.758 0 00-1.716-1.376H1.758a1.758 1.758 0 100 3.515h9.137l6.346 28.56a5.281 5.281 0 00-3.178 4.839 5.28 5.28 0 005.273 5.273h31.875a1.758 1.758 0 100-3.516H19.336a1.76 1.76 0 01-1.758-1.757 1.76 1.76 0 011.753-1.758zm36.58-24.61l-6.026 21.093h-29.14L16.059 17.92h39.854zM17.578 54.834a5.28 5.28 0 005.274 5.273 5.28 5.28 0 005.273-5.273 5.28 5.28 0 00-5.273-5.274 5.28 5.28 0 00-5.274 5.274zm5.274-1.758c.969 0 1.757.788 1.757 1.758a1.76 1.76 0 01-1.757 1.757 1.76 1.76 0 01-1.758-1.757c0-.97.788-1.758 1.758-1.758zM42.422 54.834a5.28 5.28 0 005.274 5.273 5.28 5.28 0 005.273-5.273 5.28 5.28 0 00-5.273-5.274 5.28 5.28 0 00-5.274 5.274zm5.274-1.758c.969 0 1.757.788 1.757 1.758a1.76 1.76 0 01-1.757 1.757 1.76 1.76 0 01-1.758-1.757c0-.97.788-1.758 1.758-1.758z" fill="#333"/><rect x="21.081" y=".893" width="30" height="30" rx="15" fill="#fff"/><path d="M28.32 24.347l-2.306 3.167a1.402 1.402 0 102.268 1.651l2.323-3.192a10.834 10.834 0 005.112 1.276c6.014 0 10.906-4.892 10.906-10.906 0-3.066-1.273-5.838-3.316-7.82l2.377-3.386a1.403 1.403 0 00-2.267-1.65l-2.356 3.355a10.833 10.833 0 00-5.344-1.405c-6.014 0-10.906 4.893-10.906 10.906 0 3.161 1.352 6.01 3.508 8.004zm15.498-8.004c0 4.467-3.634 8.102-8.101 8.102-1.23 0-2.391-.284-3.436-.775l9.35-12.846a8.06 8.06 0 012.187 5.519zm-8.101-8.101a8.04 8.04 0 013.675.891l-9.409 12.928a8.075 8.075 0 01-2.368-5.718c0-4.467 3.634-8.101 8.102-8.101z" fill="#259591"/></svg>
