<svg width="24" height="24" viewBox="0 0 20 20" xmlns="http://www.w3.org/2000/svg"><g fill="none" fill-rule="evenodd"><path d="M0-1h20v20H0z"/><path d="M1.175-.058L0 1.117l3.658 3.658L5.5 8.658 4.375 10.7a1.611 1.611 0 00-.208.8c0 .917.75 1.667 1.666 1.667h6.217l1.15 1.15a1.664 1.664 0 00.967 3.017c.558 0 1.05-.276 1.35-.7L17.883 19l1.175-1.175L1.175-.058zM5.833 11.5l.917-1.667h1.967l1.666 1.667h-4.55zm10.834-9.167c.633 0 1.041.684.733 1.234l-2.983 5.408c-.217.4-.592.692-1.042.808l-1.617-1.616h1.2L15.258 4H7.6L5.933 2.333h10.734zM5.833 14c.917 0 1.667.75 1.667 1.667 0 .916-.75 1.666-1.667 1.666-.916 0-1.658-.75-1.658-1.666 0-.917.742-1.667 1.658-1.667z" fill="currentColor" fill-rule="nonzero"/></g></svg>