<svg xmlns="http://www.w3.org/2000/svg" xmlns:xlink="http://www.w3.org/1999/xlink" viewBox="0 0 24 24"><defs><path id="a" d="M4.324 16.192l1.652-.001c-.331.364-.634.694-.69.75a.723.723 0 000 1c.261.268.715.27.983-.007.079-.084.5-.546.845-.923l.543.562c-.063 1.01-.893 1.822-1.882 1.822-1.041 0-1.888-.875-1.888-1.952 0-.458.155-.9.437-1.251zm-.191-1.417l-.568-.734c.158-.217.355-.502.602-.867h5.152v3.563h-.525l-1.698-1.753a.677.677 0 00-.489-.208H4.133zm6.397-3.013H4.528c.158-.874.907-1.533 1.776-1.533h4.106c.13 0 .234.111.234.249v1.161c0 .065-.055.123-.115.123zm6.272 1.879a.671.671 0 00.068-.303v-2.533h.232c.163 0 .326-.018.486-.052l1.937 2.179-2.596 2.502-.076.066-.026.03-1.25 1.207h-.179l1.404-3.096zm.964-4.536a.94.94 0 01-.668.285h-.228V7.435h.228c.521 0 .944.439.944.977a.997.997 0 01-.276.693zm-.439 7.886l1.25 1.289a.692.692 0 00.976-.001.726.726 0 000-.998l-1.22-1.257.551-.53c.98.08 1.738.922 1.738 1.944 0 1.078-.846 1.953-1.887 1.953-1.037 0-1.881-.868-1.888-1.938l.48-.462zm2.729-2.623l.913-.878a.73.73 0 00.036-.992l-2.19-2.462a2.406 2.406 0 00.613-1.615c0-1.32-1.043-2.394-2.326-2.394h-.673l-.867-1.655A.682.682 0 0014.956 4h-1.48a.698.698 0 00-.688.706c0 .389.31.705.689.705h1.069l.948 1.812v5.954l-1.541 3.41c-.024.05-.04.1-.052.15h-3.205l.002-3.574c.744-.086 1.33-.741 1.33-1.53v-1.16c0-.918-.726-1.664-1.618-1.664h-4.1c-1.76 0-3.194 1.476-3.194 3.29a.82.82 0 00.01.134c-.46.685-.824 1.203-.907 1.292a.726.726 0 00-.07.96l.88 1.139a3.43 3.43 0 00-.52 1.819c0 1.853 1.466 3.364 3.266 3.364 1.548 0 2.873-1.11 3.196-2.659h6.572c.319 1.548 1.641 2.659 3.192 2.659 1.8 0 3.265-1.51 3.265-3.364 0-1.335-.771-2.54-1.944-3.075z"/></defs><g fill="none" fill-rule="evenodd"><path d="M0 0h24v24H0z"/><mask id="b" fill="#fff"><use xlink:href="#a"/></mask><use fill="#231F20" xlink:href="#a"/><g fill="#333" mask="url(#b)"><path d="M0 0h24v24H0z"/></g></g></svg>