<svg viewBox="0 0 20 20" fill="currentColor" xmlns="http://www.w3.org/2000/svg"><g clip-path="url(#clip0)"><path fill-rule="evenodd" clip-rule="evenodd" d="M1.42259.24408c-.32544-.32544-.85308-.32544-1.17851 0-.32544.32543-.32544.85307 0 1.17851l3.56299 3.563A16.20834 16.20834 0 00.09904 9.606a.83333.83333 0 00-.01106.7667L.83333 10c-.74535.3727-.74484.3737-.74469.374l.00098.002.00287.0057.00946.0185c.00795.0154.01918.0371.03368.0645.02899.0547.07106.1326.12601.2303.10985.1953.27157.4704.48364.7988.42311.6551 1.05208 1.5307 1.87594 2.4095C4.25373 15.6447 6.75041 17.5 10 17.5l.0136-.0001a9.22571 9.22571 0 004.8415-1.4663l3.7223 3.7223c.3254.3255.8531.3255 1.1785 0 .3255-.3254.3255-.8531 0-1.1785l-4.2166-4.2166-3.1801-3.1801-.0058-.0058-3.52829-3.52828-.00579-.00579-3.18006-3.18006L1.42259.24407zM13.6428 14.8214l-1.9347-1.9347a3.33014 3.33014 0 01-.4138.2204 3.33336 3.33336 0 01-1.29786.2881 3.33237 3.33237 0 01-1.3072-.2421 3.33352 3.33352 0 01-1.84233-1.8423 3.3338 3.3338 0 01-.24209-1.3072 3.33355 3.33355 0 01.50855-1.7117L4.98925 6.16778a14.54102 14.54102 0 00-3.20377 3.83492c.09089.1569.21112.3566.35987.5869.38418.5948.95312 1.3859 1.69176 2.1738 1.49118 1.5906 3.57549 3.0674 6.15609 3.07a7.55894 7.55894 0 003.6496-1.012zM8.35658 9.53511a1.66656 1.66656 0 00.03569 1.15149c.08383.2075.20859.396.36686.5543.15826.1583.34678.283.55431.3668a1.66578 1.66578 0 001.15146.0357L8.35658 9.53511zm8.93722 1.87129L10.061 4.16696c2.5556.02303 4.6212 1.49024 6.1019 3.06968.7386.78788 1.3076 1.57895 1.6918 2.17382.1489.23069.2693.4306.3603.5877a14.60117 14.60117 0 01-.9212 1.40824zm2.6182-1.77906L19.1667 10c.3722-.18609.5586-.27918.6519-.32578.0935-.04672.0935-.04672.0934-.04688zm-.0104.76556a.83343.83343 0 00.0104-.76556l-.0016-.00326-.0029-.00569-.0094-.01852c-.008-.01545-.0192-.03709-.0337-.06448-.029-.05479-.0711-.13268-.126-.23038-.1099-.19529-.2716-.47039-.4837-.79876-.4231-.65514-1.0521-1.53073-1.8759-2.40951-1.6324-1.74118-4.1287-3.59635-7.3778-3.59672H10v.83333l.002-.83333h-.001a8.4336 8.4336 0 00-1.94093.22193.83335.83335 0 00-.3996 1.40039l9.11663 9.12496a.83348.83348 0 00.6252.2436.83292.83292 0 00.602-.296 16.24995 16.24995 0 001.8973-2.802z" fill="currentColor"/></g><defs><clipPath id="clip0"><path fill="#fff" d="M0 0h20v20H0z"/></clipPath></defs></svg>
