<svg viewBox="0 0 20 20" fill="none" xmlns="http://www.w3.org/2000/svg"><path fill-rule="evenodd" clip-rule="evenodd" d="M1.78395 10c.09108.1574.21182.358.3614.5896.38418.5948.95312 1.3859 1.69176 2.1738C5.3296 14.3554 7.41626 15.8333 10 15.8333c2.5837 0 4.6704-1.4779 6.1629-3.0699.7386-.7879 1.3076-1.579 1.6918-2.1738.1495-.2316.2703-.4322.3613-.5896-.091-.15739-.2118-.35796-.3613-.58956-.3842-.59487-.9532-1.38594-1.6918-2.17382C14.6704 5.64463 12.5837 4.16667 10 4.16667c-2.58374 0-4.6704 1.47796-6.16289 3.06995-.73864.78788-1.30758 1.57895-1.69176 2.17382-.14958.2316-.27032.43217-.3614.58956zm17.38275 0c.7453-.37268.7452-.37296.745-.37327l-.0013-.00267-.0029-.00569-.0094-.01852a7.36913 7.36913 0 00-.0337-.06448c-.029-.05479-.0711-.13268-.126-.23038-.1099-.19529-.2716-.47039-.4837-.79876-.4231-.65514-1.0521-1.53073-1.8759-2.40951C15.7463 4.35537 13.2496 2.5 10 2.5c-3.24959 0-5.74627 1.85537-7.37878 3.59672-.82386.87878-1.45283 1.75437-1.87594 2.40951-.21207.32837-.37379.60347-.48364.79876-.05495.0977-.09702.17559-.12601.23038a6.14347 6.14347 0 00-.03368.06448l-.00946.01852-.00287.00569-.00098.00194c-.00015.0003-.00066.00132.7447.374l-.74536-.37268a.83338.83338 0 000 .74538L.83333 10c-.74535.3727-.7455.3724-.74535.3727l.00164.0032.00287.0057.00946.0185c.00795.0155.01918.0371.03368.0645.02899.0548.07106.1327.12601.2304.10985.1953.27157.4704.48364.7988.42311.6551 1.05208 1.5307 1.87594 2.4095C4.25373 15.6446 6.75041 17.5 10 17.5c3.2496 0 5.7463-1.8554 7.3788-3.5967.8238-.8788 1.4528-1.7544 1.8759-2.4095.2121-.3284.3738-.6035.4837-.7988.0549-.0977.097-.1756.126-.2304a6.9133 6.9133 0 00.0337-.0645l.0094-.0185.0029-.0057.001-.0019c.0001-.0003.0006-.0013-.7447-.374zm0 0l.7453.3727c.1173-.2346.117-.51136-.0003-.74597L19.1667 10z" fill="currentColor"/><path fill-rule="evenodd" clip-rule="evenodd" d="M10 8.33335c-.92045 0-1.66665.7462-1.66665 1.66665 0 .9205.7462 1.6667 1.66665 1.6667.9205 0 1.6667-.7462 1.6667-1.6667 0-.92045-.7462-1.66665-1.6667-1.66665zM6.66669 10c0-1.84093 1.49238-3.33331 3.33331-3.33331 1.841 0 3.3334 1.49238 3.3334 3.33331 0 1.841-1.4924 3.3334-3.3334 3.3334-1.84093 0-3.33331-1.4924-3.33331-3.3334z" fill="currentColor"/></svg>
