<svg viewBox="0 0 18 18" fill="none" xmlns="http://www.w3.org/2000/svg">
<rect x="6.75" y="7.85999" width="9" height="9" rx="4" fill="#DEF3F3"/>
<path fill-rule="evenodd" clip-rule="evenodd" d="M14.7681 15.3763H12.7866H10.1654L10.1527 15.3591H7.4378V11.486L9.62004 12.5917C9.79309 12.6794 10.0013 12.6719 10.1677 12.5693C10.334 12.4674 10.4359 12.2861 10.4359 12.0906V11.4381L13.0841 12.7625C13.2586 12.8487 13.4631 12.8397 13.6287 12.7386C13.7942 12.6374 13.8961 12.4584 13.8976 12.2644L13.9321 8.06319H14.8011L14.7681 15.3763ZM15.7637 7.10505C15.6581 6.99943 15.515 6.93949 15.3659 6.93949H13.3747C13.0661 6.93949 12.8151 7.18821 12.8129 7.49685L12.7814 11.3542L10.1257 10.0259C9.95039 9.93979 9.74513 9.94804 9.57807 10.0507C9.41326 10.1525 9.31213 10.3338 9.31213 10.5286V11.1759L7.12989 10.0701C6.95534 9.981 6.74783 9.98924 6.58152 10.0919C6.41596 10.1945 6.31408 10.3758 6.31408 10.5706V15.3591H4.80681C4.01872 15.3591 3.37371 14.7141 3.37371 13.9252V4.05681C3.37371 3.26872 4.01872 2.62371 4.80681 2.62371H11.3985L12.1072 2.67465C13.0616 2.69188 13.8257 3.47098 13.8257 4.42539V6.07724H14.9494V4.42539C14.9494 2.86943 13.6841 1.57941 12.1281 1.55094L11.4195 1.5H11.3985H4.80681C3.39693 1.5 2.25 2.64693 2.25 4.05681V13.9252C2.25 15.3358 3.39693 16.4828 4.80681 16.4828H6.79053C6.80207 16.4845 6.81303 16.4876 6.82396 16.4907L6.82398 16.4907C6.84071 16.4953 6.85736 16.5 6.87593 16.5H15.327C15.6364 16.5 15.8873 16.2505 15.8888 15.9404L15.9278 7.50434C15.9285 7.35452 15.8693 7.21143 15.7637 7.10505ZM12.5902 5.64192H5.07561C4.80592 5.64192 4.58792 5.42392 4.58792 5.15498C4.58792 4.88604 4.80592 4.66804 5.07561 4.66804H12.5902C12.8592 4.66804 13.0772 4.88604 13.0772 5.15498C13.0772 5.42392 12.8592 5.64192 12.5902 5.64192ZM5.07551 8.05429H11.0948C11.3638 8.05429 11.5818 7.83629 11.5818 7.56735C11.5818 7.2984 11.3638 7.08041 11.0948 7.08041H5.07551C4.80582 7.08041 4.58782 7.2984 4.58782 7.56735C4.58782 7.83629 4.80582 8.05429 5.07551 8.05429Z" fill="#333333"/>
<mask id="mask0" mask-type="alpha" maskUnits="userSpaceOnUse" x="2" y="1" width="14" height="16">
<path fill-rule="evenodd" clip-rule="evenodd" d="M14.7681 15.3763H12.7866H10.1654L10.1527 15.3591H7.4378V11.486L9.62004 12.5917C9.79309 12.6794 10.0013 12.6719 10.1677 12.5693C10.334 12.4674 10.4359 12.2861 10.4359 12.0906V11.4381L13.0841 12.7625C13.2586 12.8487 13.4631 12.8397 13.6287 12.7386C13.7942 12.6374 13.8961 12.4584 13.8976 12.2644L13.9321 8.06319H14.8011L14.7681 15.3763ZM15.7637 7.10505C15.6581 6.99943 15.515 6.93949 15.3659 6.93949H13.3747C13.0661 6.93949 12.8151 7.18821 12.8129 7.49685L12.7814 11.3542L10.1257 10.0259C9.95039 9.93979 9.74513 9.94804 9.57807 10.0507C9.41326 10.1525 9.31213 10.3338 9.31213 10.5286V11.1759L7.12989 10.0701C6.95534 9.981 6.74783 9.98924 6.58152 10.0919C6.41596 10.1945 6.31408 10.3758 6.31408 10.5706V15.3591H4.80681C4.01872 15.3591 3.37371 14.7141 3.37371 13.9252V4.05681C3.37371 3.26872 4.01872 2.62371 4.80681 2.62371H11.3985L12.1072 2.67465C13.0616 2.69188 13.8257 3.47098 13.8257 4.42539V6.07724H14.9494V4.42539C14.9494 2.86943 13.6841 1.57941 12.1281 1.55094L11.4195 1.5H11.3985H4.80681C3.39693 1.5 2.25 2.64693 2.25 4.05681V13.9252C2.25 15.3358 3.39693 16.4828 4.80681 16.4828H6.79053C6.80207 16.4845 6.81303 16.4876 6.82396 16.4907L6.82398 16.4907C6.84071 16.4953 6.85736 16.5 6.87593 16.5H15.327C15.6364 16.5 15.8873 16.2505 15.8888 15.9404L15.9278 7.50434C15.9285 7.35452 15.8693 7.21143 15.7637 7.10505ZM12.5902 5.64192H5.07561C4.80592 5.64192 4.58792 5.42392 4.58792 5.15498C4.58792 4.88604 4.80592 4.66804 5.07561 4.66804H12.5902C12.8592 4.66804 13.0772 4.88604 13.0772 5.15498C13.0772 5.42392 12.8592 5.64192 12.5902 5.64192ZM5.07551 8.05429H11.0948C11.3638 8.05429 11.5818 7.83629 11.5818 7.56735C11.5818 7.2984 11.3638 7.08041 11.0948 7.08041H5.07551C4.80582 7.08041 4.58782 7.2984 4.58782 7.56735C4.58782 7.83629 4.80582 8.05429 5.07551 8.05429Z" fill="white"/>
</mask>
<g mask="url(#mask0)">
<rect width="18" height="18" fill="#333333"/>
</g>
</svg>
