<svg viewBox="0 0 19 19" fill="none" xmlns="http://www.w3.org/2000/svg">
<rect x="8" y="8" width="11" height="11" rx="4" fill="#DEF3F3"/>
<path fill-rule="evenodd" clip-rule="evenodd" d="M16.2999 16.9599H13.8781H10.6744L10.6588 16.9388H7.34064V12.2051L10.0078 13.5566C10.2193 13.6637 10.4739 13.6545 10.6771 13.5291C10.8804 13.4046 11.0049 13.183 11.0049 12.944V12.1465L14.2416 13.7653C14.455 13.8706 14.7049 13.8596 14.9073 13.736C15.1096 13.6124 15.2341 13.3936 15.236 13.1564L15.2781 8.02168H16.3402L16.2999 16.9599ZM17.5168 6.85062C17.3877 6.72152 17.2128 6.64827 17.0306 6.64827H14.5969C14.2196 6.64827 13.9129 6.95226 13.9102 7.32949L13.8717 12.044L10.6258 10.4206C10.4116 10.3153 10.1607 10.3254 9.95653 10.4508C9.7551 10.5753 9.63149 10.7969 9.63149 11.035V11.8261L6.96431 10.4746C6.75097 10.3657 6.49734 10.3757 6.29408 10.5012C6.09173 10.6266 5.9672 10.8482 5.9672 11.0863V16.9389H4.12499C3.16176 16.9389 2.37342 16.1505 2.37342 15.1864V3.12499C2.37342 2.16176 3.16176 1.37342 4.12499 1.37342H12.1815L13.0476 1.43568C14.2141 1.45674 15.1481 2.40898 15.1481 3.57547V5.5944H16.5215V3.57547C16.5215 1.67374 14.975 0.0970551 13.0733 0.0622617L12.2071 0H12.1815H4.12499C2.4018 0 1 1.4018 1 3.12499V15.1864C1 16.9105 2.4018 18.3123 4.12499 18.3123H6.54953C6.56365 18.3144 6.57706 18.3182 6.59043 18.3219C6.61086 18.3276 6.63122 18.3333 6.65391 18.3333H16.983C17.3611 18.3333 17.6678 18.0284 17.6697 17.6494L17.7173 7.33864C17.7182 7.15552 17.6459 6.98064 17.5168 6.85062ZM13.638 5.06235H4.45352C4.1239 5.06235 3.85746 4.79591 3.85746 4.4672C3.85746 4.1385 4.1239 3.87205 4.45352 3.87205H13.638C13.9667 3.87205 14.2332 4.1385 14.2332 4.4672C14.2332 4.79591 13.9667 5.06235 13.638 5.06235ZM4.45339 8.01079H11.8103C12.1391 8.01079 12.4055 7.74435 12.4055 7.41564C12.4055 7.08694 12.1391 6.82049 11.8103 6.82049H4.45339C4.12377 6.82049 3.85733 7.08694 3.85733 7.41564C3.85733 7.74435 4.12377 8.01079 4.45339 8.01079Z" fill="#333333"/>
</svg>
