<svg xmlns="http://www.w3.org/2000/svg" viewBox="0 0 24 24"><path d="M16.473 3c1.561 0 2.873.522 3.934 1.565C21.47 5.61 22 6.882 22 8.386c0 .737-.156 1.481-.468 2.233-.313.752-.656 1.42-1.03 2.002-.376.584-1.008 1.336-1.898 2.256-.89.921-1.64 1.665-2.248 2.233-.609.568-1.585 1.435-2.927 2.601L11.977 21l-1.452-1.243c-1.312-1.197-2.28-2.08-2.904-2.647a50.97 50.97 0 01-2.272-2.233c-.89-.92-1.522-1.672-1.897-2.256-.375-.583-.71-1.25-1.007-2.002A6.051 6.051 0 012 8.386c0-1.504.53-2.777 1.593-3.82C4.654 3.521 5.95 3 7.48 3c1.811 0 3.31.69 4.497 2.072C13.163 3.69 14.662 3 16.473 3zM12.07 18.284c1.53-1.35 2.647-2.356 3.35-3.015.702-.66 1.475-1.45 2.318-2.371s1.428-1.727 1.756-2.417a4.84 4.84 0 00.492-2.095c0-.982-.336-1.795-1.007-2.44-.671-.644-1.507-.966-2.506-.966-.75 0-1.46.214-2.131.644C13.67 6.054 12.28 7.324 12 8c-.25-.675-1.67-1.946-2.342-2.376A3.965 3.965 0 007.48 4.98c-1 0-1.827.322-2.482.966-.656.645-.984 1.458-.984 2.44 0 .706.156 1.404.468 2.095.313.69.898 1.496 1.757 2.417.859.92 1.64 1.71 2.342 2.37.702.66 1.803 1.665 3.302 3.016l.094.092.093-.092z" fill="currentColor" fill-rule="evenodd"/></svg>