<svg width="18" height="12" viewBox="0 0 18 12" fill="none" xmlns="http://www.w3.org/2000/svg">
<path d="M16.5707 8.17294H14.5401C14.2099 7.07415 13.2003 6.26663 11.9955 6.26663C10.7907 6.26663 9.78189 7.07415 9.45097 8.17294H1.42902C1.0081 8.17294 0.666504 8.51458 0.666504 8.93549C0.666504 9.35641 1.0081 9.69801 1.42902 9.69801H9.45094C9.7811 10.7968 10.7907 11.6043 11.9955 11.6043C13.2003 11.6043 14.2091 10.7968 14.54 9.69801H16.5707C16.9923 9.69801 17.3332 9.35641 17.3332 8.93549C17.3332 8.51458 16.9924 8.17294 16.5707 8.17294ZM11.9955 10.0793C11.3649 10.0793 10.8517 9.56612 10.8517 8.93549C10.8517 8.30487 11.3649 7.7917 11.9955 7.7917C12.6261 7.7917 13.1393 8.30487 13.1393 8.93549C13.1393 9.56612 12.6261 10.0793 11.9955 10.0793Z" fill="#333333"/>
<path d="M16.5707 2.07297H8.54877C8.21782 0.974174 7.209 0.166656 6.00423 0.166656C4.79946 0.166656 3.7906 0.974174 3.45968 2.07297H1.42902C1.0081 2.07297 0.666504 2.41457 0.666504 2.83548C0.666504 3.2564 1.0081 3.598 1.42902 3.598H3.45965C3.7906 4.69679 4.79942 5.50431 6.00419 5.50431C7.20896 5.50431 8.21782 4.69679 8.54874 3.598H16.5707C16.9923 3.598 17.3332 3.2564 17.3332 2.83548C17.3332 2.41457 16.9924 2.07297 16.5707 2.07297ZM6.00419 3.97928C5.37357 3.97928 4.8604 3.46611 4.8604 2.83548C4.8604 2.20486 5.37357 1.69169 6.00419 1.69169C6.63482 1.69169 7.14798 2.20486 7.14798 2.83548C7.14798 3.46611 6.63482 3.97928 6.00419 3.97928Z" fill="#333333"/>
</svg>
