<svg viewBox="0 0 24 24" xmlns="http://www.w3.org/2000/svg"><path d="M10 6.294c-2.01 0-3.636 1.61-3.636 3.596 0 1.987 1.627 3.597 3.636 3.597 2.01 0 3.636-1.61 3.636-3.597 0-1.987-1.627-3.596-3.636-3.596Zm8.127 2.697a8.051 8.051 0 0 0-2.344-4.82 8.213 8.213 0 0 0-4.874-2.319V0H9.091v1.852a8.213 8.213 0 0 0-4.874 2.319 8.052 8.052 0 0 0-2.344 4.82H0v1.799h1.873a8.051 8.051 0 0 0 2.344 4.82 8.213 8.213 0 0 0 4.874 2.319v1.852h1.818v-1.852a8.213 8.213 0 0 0 4.874-2.319 8.051 8.051 0 0 0 2.344-4.82H20V8.99h-1.873ZM10 16.184c-3.518 0-6.364-2.814-6.364-6.294 0-3.48 2.846-6.293 6.364-6.293s6.364 2.814 6.364 6.293c0 3.48-2.846 6.294-6.364 6.294Z" fill="currentColor"/></svg>
