<svg viewBox="0 0 18 18" fill="none" xmlns="http://www.w3.org/2000/svg">
<rect x="7.5" y="7.85999" width="9" height="9" rx="4" fill="#DEF3F3"/>
<path fill-rule="evenodd" clip-rule="evenodd" d="M14.2272 15.3668C14.7079 15.3668 15.0484 15.2731 15.1377 15.1156C15.2479 14.9191 15.0994 14.4668 14.9487 14.2148L14.0974 12.9271H9.00642L8.22792 14.0956C8.02917 14.3753 7.81767 14.8718 7.92492 15.0796C7.99692 15.2191 8.32092 15.3668 9.01767 15.3668H14.2272ZM10.4329 10.617C10.4329 10.7273 10.3999 10.836 10.3384 10.929L9.75644 11.802H13.3542L12.7849 10.9418C12.7242 10.8495 12.6919 10.7415 12.6919 10.6313V8.1623C11.5894 8.1728 10.8882 8.1788 10.4329 8.17205V10.617ZM13.8169 10.4618L15.9004 13.6141C15.9829 13.7498 16.5994 14.8096 16.1187 15.6653C15.8104 16.2143 15.1744 16.4918 14.2272 16.4918H10.9414L10.9504 16.5001H4.80944C3.39869 16.5001 2.24969 15.3518 2.24969 13.9403V4.05981C2.24969 2.64831 3.39869 1.50006 4.80944 1.50006H11.4087H11.4304L12.1392 1.55106C13.6969 1.58031 14.9644 2.87106 14.9644 4.42881V6.29406H13.8394V4.42881C13.8394 3.47331 13.0737 2.69406 12.1182 2.67606L11.4087 2.62506H4.80944C4.02119 2.62506 3.37469 3.27081 3.37469 4.05981V13.9403C3.37469 14.7293 4.02119 15.3751 4.80944 15.3751H6.84719C6.58095 14.5103 7.22219 13.5676 7.30394 13.4543L9.30795 10.4461V8.12106H8.81594C8.50545 8.12106 8.25344 7.86906 8.25344 7.55856C8.25344 7.24806 8.50545 6.99606 8.81594 6.99606H14.2557C14.5662 6.99606 14.8182 7.24806 14.8182 7.55856C14.8182 7.86906 14.5662 8.12106 14.2557 8.12106H13.8169V10.4618ZM12.3738 4.68502C12.643 4.68502 12.8613 4.90327 12.8613 5.17252C12.8613 5.44177 12.643 5.66002 12.3738 5.66002H4.85053C4.58128 5.66002 4.36303 5.44177 4.36303 5.17252C4.36303 4.90327 4.58128 4.68502 4.85053 4.68502H12.3738ZM4.85087 10.4903H7.87262C8.14262 10.4903 8.36087 10.2721 8.36087 10.0028C8.36087 9.73356 8.14262 9.51531 7.87262 9.51531H4.85087C4.58162 9.51531 4.36337 9.73356 4.36337 10.0028C4.36337 10.2721 4.58162 10.4903 4.85087 10.4903ZM6.95837 8.07509H4.85087C4.58162 8.07509 4.36337 7.85684 4.36337 7.58759C4.36337 7.31834 4.58162 7.10009 4.85087 7.10009H6.95837C7.22762 7.10009 7.44587 7.31834 7.44587 7.58759C7.44587 7.85684 7.22762 8.07509 6.95837 8.07509Z" fill="#333333"/>
<mask id="mask0" mask-type="alpha" maskUnits="userSpaceOnUse" x="2" y="1" width="15" height="16">
<path fill-rule="evenodd" clip-rule="evenodd" d="M14.2272 15.3668C14.7079 15.3668 15.0484 15.2731 15.1377 15.1156C15.2479 14.9191 15.0994 14.4668 14.9487 14.2148L14.0974 12.9271H9.00642L8.22792 14.0956C8.02917 14.3753 7.81767 14.8718 7.92492 15.0796C7.99692 15.2191 8.32092 15.3668 9.01767 15.3668H14.2272ZM10.4329 10.617C10.4329 10.7273 10.3999 10.836 10.3384 10.929L9.75644 11.802H13.3542L12.7849 10.9418C12.7242 10.8495 12.6919 10.7415 12.6919 10.6313V8.1623C11.5894 8.1728 10.8882 8.1788 10.4329 8.17205V10.617ZM13.8169 10.4618L15.9004 13.6141C15.9829 13.7498 16.5994 14.8096 16.1187 15.6653C15.8104 16.2143 15.1744 16.4918 14.2272 16.4918H10.9414L10.9504 16.5001H4.80944C3.39869 16.5001 2.24969 15.3518 2.24969 13.9403V4.05981C2.24969 2.64831 3.39869 1.50006 4.80944 1.50006H11.4087H11.4304L12.1392 1.55106C13.6969 1.58031 14.9644 2.87106 14.9644 4.42881V6.29406H13.8394V4.42881C13.8394 3.47331 13.0737 2.69406 12.1182 2.67606L11.4087 2.62506H4.80944C4.02119 2.62506 3.37469 3.27081 3.37469 4.05981V13.9403C3.37469 14.7293 4.02119 15.3751 4.80944 15.3751H6.84719C6.58095 14.5103 7.22219 13.5676 7.30394 13.4543L9.30795 10.4461V8.12106H8.81594C8.50545 8.12106 8.25344 7.86906 8.25344 7.55856C8.25344 7.24806 8.50545 6.99606 8.81594 6.99606H14.2557C14.5662 6.99606 14.8182 7.24806 14.8182 7.55856C14.8182 7.86906 14.5662 8.12106 14.2557 8.12106H13.8169V10.4618ZM12.3738 4.68502C12.643 4.68502 12.8613 4.90327 12.8613 5.17252C12.8613 5.44177 12.643 5.66002 12.3738 5.66002H4.85053C4.58128 5.66002 4.36303 5.44177 4.36303 5.17252C4.36303 4.90327 4.58128 4.68502 4.85053 4.68502H12.3738ZM4.85087 10.4903H7.87262C8.14262 10.4903 8.36087 10.2721 8.36087 10.0028C8.36087 9.73356 8.14262 9.51531 7.87262 9.51531H4.85087C4.58162 9.51531 4.36337 9.73356 4.36337 10.0028C4.36337 10.2721 4.58162 10.4903 4.85087 10.4903ZM6.95837 8.07509H4.85087C4.58162 8.07509 4.36337 7.85684 4.36337 7.58759C4.36337 7.31834 4.58162 7.10009 4.85087 7.10009H6.95837C7.22762 7.10009 7.44587 7.31834 7.44587 7.58759C7.44587 7.85684 7.22762 8.07509 6.95837 8.07509Z" fill="white"/>
</mask>
<g mask="url(#mask0)">
<rect width="18" height="18" fill="#333333"/>
</g>
</svg>