<svg xmlns="http://www.w3.org/2000/svg" viewBox="0 0 24 24"><path d="M20.184 20.154c-.12.21-.573.335-1.214.335h-6.946c-.93 0-1.361-.197-1.457-.383-.143-.277.139-.939.404-1.312l1.038-1.558h6.788l1.135 1.717c.2.336.399.94.252 1.201zm-6.4-5.582a.749.749 0 00.127-.416v-3.26c.607.01 1.542.001 3.012-.013v3.292c0 .147.043.291.124.414l.759 1.147h-4.797l.776-1.164zM15.242 2l.945.068c2.077.04 3.767 1.76 3.767 3.837v2.487h-1.5V5.905a2.338 2.338 0 00-2.295-2.337l-.946-.068h-8.8a1.92 1.92 0 00-1.912 1.913v13.174A1.92 1.92 0 006.414 20.5H9.13c-.355-1.153.5-2.41.609-2.56l2.672-4.012v-3.1h-.656a.75.75 0 010-1.5h7.253a.75.75 0 010 1.5h-.585v3.121l2.778 4.203c.11.181.932 1.594.29 2.735-.41.732-1.258 1.102-2.521 1.102h-4.381L14.6 22H6.413A3.417 3.417 0 013 18.587V5.413A3.417 3.417 0 016.413 2h8.828zm-4.744 10.687a.65.65 0 110 1.3h-4.03a.65.65 0 110-1.3zm-1.22-3.22a.65.65 0 110 1.3h-2.81a.65.65 0 010-1.3zm7.221-3.22a.65.65 0 110 1.3H6.468a.65.65 0 110-1.3z" fill="currentColor" fill-rule="evenodd"/></svg>