<svg viewBox="0 0 19 19" fill="none" xmlns="http://www.w3.org/2000/svg">
<rect x="8" y="8" width="11" height="11" rx="4" fill="#DEF3F3"/>
<path fill-rule="evenodd" clip-rule="evenodd" d="M15.6365 16.9451C16.2239 16.9451 16.64 16.8306 16.7491 16.6381C16.8838 16.398 16.7023 15.8453 16.5181 15.5374L15.4779 13.9638H9.2567L8.30538 15.3917C8.06251 15.7335 7.80405 16.3402 7.93511 16.5942C8.0231 16.7646 8.41902 16.9451 9.27045 16.9451H15.6365ZM10.9999 11.1409C10.9999 11.2757 10.9595 11.4085 10.8844 11.5221L10.1732 12.5889H14.5697L13.874 11.5378C13.7998 11.425 13.7603 11.293 13.7603 11.1583V8.14124C12.4131 8.15407 11.5562 8.1614 10.9999 8.15315V11.1409ZM15.1351 10.9512L17.6811 14.8033C17.7819 14.9691 18.5353 16.2642 17.9479 17.3099C17.5711 17.9808 16.794 18.3199 15.6365 18.3199H11.6212L11.6322 18.33H4.12801C2.40407 18.33 1 16.9268 1 15.2019V3.12801C1 1.40316 2.40407 0 4.12801 0H12.1923H12.2188L13.0849 0.0623218C14.9885 0.0980652 16.5373 1.67536 16.5373 3.57892V5.85825H15.1626V3.57892C15.1626 2.41131 14.2269 1.45906 13.0593 1.43707L12.1923 1.37475H4.12801C3.16477 1.37475 2.37475 2.16385 2.37475 3.12801V15.2019C2.37475 16.1661 3.16477 16.9553 4.12801 16.9553H6.61813C6.29279 15.8985 7.07638 14.7465 7.17628 14.608L9.62517 10.932V8.09084H9.02394C8.64452 8.09084 8.33656 7.7829 8.33656 7.40347C8.33656 7.02404 8.64452 6.71609 9.02394 6.71609H15.6713C16.0507 6.71609 16.3587 7.02404 16.3587 7.40347C16.3587 7.7829 16.0507 8.09084 15.6713 8.09084H15.1351V10.9512ZM13.3716 3.89201C13.7006 3.89201 13.9674 4.15871 13.9674 4.48773C13.9674 4.81676 13.7006 5.08346 13.3716 5.08346H4.17822C3.8492 5.08346 3.58249 4.81676 3.58249 4.48773C3.58249 4.15871 3.8492 3.89201 4.17822 3.89201H13.3716ZM4.17863 10.986H7.8712C8.20114 10.986 8.46784 10.7194 8.46784 10.3903C8.46784 10.0613 8.20114 9.79461 7.8712 9.79461H4.17863C3.84961 9.79461 3.58291 10.0613 3.58291 10.3903C3.58291 10.7194 3.84961 10.986 4.17863 10.986ZM6.75399 8.03467H4.17863C3.84961 8.03467 3.58291 7.76796 3.58291 7.43894C3.58291 7.10992 3.84961 6.84322 4.17863 6.84322H6.75399C7.08301 6.84322 7.34972 7.10992 7.34972 7.43894C7.34972 7.76796 7.08301 8.03467 6.75399 8.03467Z" fill="#333333"/>
</svg>