<svg viewBox="0 0 20 20" fill="none" xmlns="http://www.w3.org/2000/svg"><g clip-path="url(#clip0)"><path d="M19.2447 8.26132l-8.1578-.00039c-.3602 0-.6522.29195-.6522.65218v2.60609c0 .3601.292.6522.6522.6522h4.5939c-.503 1.3055-1.4419 2.3988-2.6398 3.0935l1.9589 3.3909c3.1422-1.8173 5-5.0059 5-8.5753 0-.50829-.0375-.87161-.1124-1.28071-.057-.31082-.3268-.53847-.6428-.53847z" fill="#167EE6"/><path d="M10.0001 16.087c-2.24818 0-4.21084-1.2283-5.26494-3.046L1.3443 14.9954c1.72559 2.9907 4.95816 5.0047 8.6558 5.0047 1.814 0 3.5256-.4884 5-1.3396v-.0046l-1.9588-3.391c-.8961.5196-1.9329.8221-3.0412.8221z" fill="#12B347"/><path d="M15 18.6604v-.0046l-1.9589-3.391c-.896.5196-1.9328.8221-3.0411.8221V20c1.8139 0 3.5256-.4884 5-1.3396z" fill="#0F993E"/><path d="M3.91305 10.0001c0-1.10816.30242-2.14491.82199-3.04089L1.34418 5.00476C.48836 6.47456 0 8.18151 0 10.0001c0 1.8186.48836 3.5255 1.34418 4.9953l3.39086-1.9544c-.51957-.896-.82199-1.9327-.82199-3.0409z" fill="#FFD500"/><path d="M10.0001 3.91305c1.4661 0 2.8127.52093 3.8646 1.38746.2594.21375.6366.19832.8743-.03938l1.8465-1.84648c.2697-.26969.2504-.71113-.0376-.96106C14.7855.92473 12.4926 0 10.0001 0 6.30246 0 3.06989 2.01395 1.3443 5.00465L4.73516 6.9591c1.0541-1.81769 3.01676-3.04605 5.26494-3.04605z" fill="#FF4B26"/><path d="M13.8645 5.30051c.2595.21375.6367.19832.8744-.03938l1.8465-1.84648c.2696-.26969.2504-.71113-.0377-.96106C14.7854.92469 12.4925 0 10 0v3.91305c1.466 0 2.8127.52093 3.8645 1.38746z" fill="#D93F21"/></g><defs><clipPath id="clip0"><path fill="#fff" d="M0 0h20v20H0z"/></clipPath></defs></svg>
