<svg xmlns="http://www.w3.org/2000/svg" viewBox="0 0 38 30"><g fill="none" fill-rule="evenodd"><rect width="38" height="30" fill="#B3131A" rx="4"/><path fill="#FFF" fill-rule="nonzero" d="M9.47 12.778c.177-.121.405-.676.145-.907-.083-.073-.22-.094-.413-.062-.178.03-.28.09-.35.186-.112.152-.215.613-.042.784.17.166.548.077.66 0zm-2.516-.907c-.127.822-.27 1.628-.413 2.434-.919.01-1.857.045-2.743-.02.167-.79.287-1.625.454-2.414h-.99c-.355 2.01-.677 4.054-1.073 6.023H3.2c.16-1.01.308-2.03.516-2.99.862-.022 1.895-.06 2.723.02-.17.998-.377 1.96-.536 2.97h1.01c.326-2.04.668-4.064 1.073-6.023H6.954zm14.294 1.733c-.786-.318-1.404.219-1.691.722.065-.224.092-.486.144-.722h-.783c-.192 1.486-.474 2.88-.743 4.29h.887c.124-.836.178-1.964.454-2.764.22-.64.797-1.184 1.63-.887.01-.236.078-.416.102-.64zm.495 3.28c-.081-.212-.103-.56-.082-.826.046-.596.263-1.321.598-1.65.463-.453 1.376-.378 2.104-.124.023-.245.072-.464.103-.701-1.194-.195-2.328-.074-2.929.557-.588.617-.974 2.036-.701 2.929.319 1.045 1.75 1.101 2.908.701.052-.21.079-.444.124-.66-.633.33-1.843.5-2.125-.227zm9.963-3.26c-.784-.392-1.436.266-1.691.66.072-.202.076-.473.144-.68h-.784a63.58 63.58 0 01-.763 4.29h.908c.005-.569.117-.99.206-1.547.19-1.19.468-2.497 1.857-2.104.045-.201.065-.43.123-.619zm-23.143-.02c-.024.003-.023.032-.02.061a60.907 60.907 0 01-.743 4.229h.887c.213-1.472.457-2.912.763-4.29h-.887zm7.797-.083c-.641.05-1.183.234-1.568.64-.472.497-.854 1.597-.742 2.599.16 1.429 1.939 1.377 3.362 1.03.024-.25.085-.464.123-.7-.586.219-1.604.525-2.207.144-.455-.288-.458-1.017-.31-1.65.957-.03 1.951-.025 2.91 0 .06-.45.234-.939.082-1.382-.2-.586-.92-.737-1.65-.68zm.845 1.568h-2.083a1.23 1.23 0 011.176-1.032c.639-.024 1.096.235.907 1.032zm-4.207-1.485c-.751-.282-1.666.054-2.063.374.002.015-.01.016-.02.017l.02-.017v-.003c.007-.138.055-.234.062-.371h-.763a142.94 142.94 0 01-1.094 6.208h.887c.129-.793.213-1.63.392-2.372.203.781 1.525.632 2.084.33 1.151-.623 2.04-3.586.495-4.166zm-.702 3.486c-.474.502-1.64.495-1.732-.351-.04-.368.097-.754.165-1.135.068-.385.118-.755.185-1.093.468-.57 1.841-.64 1.98.31.121.824-.205 1.852-.598 2.269zm22.71-5.343a19.555 19.555 0 01-.309 1.918c-2.176-.688-3.51.912-3.486 2.888.005.382.07.761.31 1.032.411.465 1.59.577 2.186.185a1.57 1.57 0 00.31-.31c.057-.071.148-.26.164-.205-.031.209-.078.403-.082.639h.804c.156-2.224.635-4.124.99-6.147h-.887zm-1.98 5.673c-.597.012-.894-.357-.907-.97-.024-1.073.447-2.265 1.402-2.372.445-.05.768.054 1.094.165-.3 1.205-.192 3.147-1.589 3.177zm-7.652-3.816c-.044.245-.111.466-.165.7.523-.13 2.153-.533 2.31.166.052.232-.038.479-.103.66-1.474-.14-2.675.105-2.991 1.155-.212.703.024 1.395.474 1.588.868.372 1.924-.054 2.29-.639a2.693 2.693 0 00-.062.66h.763c.008-.73.115-1.323.227-1.98.096-.56.276-1.115.248-1.61-.066-1.131-1.942-.73-2.991-.7zm1.444 3.465c-.458.447-1.74.574-1.61-.495.11-.889 1.077-1.077 2.125-.95-.078.487-.167 1.104-.515 1.445z"/></g></svg>