<svg width="24" height="24" xmlns="http://www.w3.org/2000/svg"><defs><radialGradient cx="20.499%" cy="87.392%" fx="20.499%" fy="87.392%" r="115.618%" id="instagram-icon"><stop stop-color="#FAE100" offset="0%"/><stop stop-color="#FADC04" offset="5.44%"/><stop stop-color="#FBCE0E" offset="11.67%"/><stop stop-color="#FCB720" offset="18.29%"/><stop stop-color="#FE9838" offset="25.14%"/><stop stop-color="#FF7950" offset="30.54%"/><stop stop-color="#FF1C74" offset="49.22%"/><stop stop-color="#6C1CD1" offset="100%"/></radialGradient></defs><g fill="none" fill-rule="evenodd"><rect fill="url(#instagram-icon)" width="24" height="24" rx="5"/><path d="M15.375 3h-6.75A5.626 5.626 0 0 0 3 8.625v6.75A5.626 5.626 0 0 0 8.625 21h6.75A5.626 5.626 0 0 0 21 15.375v-6.75A5.626 5.626 0 0 0 15.375 3zm3.938 12.375a3.942 3.942 0 0 1-3.938 3.938h-6.75a3.942 3.942 0 0 1-3.938-3.938v-6.75a3.942 3.942 0 0 1 3.938-3.938h6.75a3.942 3.942 0 0 1 3.938 3.938v6.75zM12 7.5a4.5 4.5 0 1 0 0 9 4.5 4.5 0 0 0 0-9zm0 7.313A2.816 2.816 0 0 1 9.187 12 2.816 2.816 0 0 1 12 9.187 2.816 2.816 0 0 1 14.813 12 2.816 2.816 0 0 1 12 14.813zm4.837-7.05a.6.6 0 1 0 0-1.2.6.6 0 0 0 0 1.2z" fill="#FFF" fill-rule="nonzero"/></g></svg>
