<?xml version="1.0" encoding="UTF-8"?>
<svg width="24px" height="24px" viewBox="0 0 24 24" version="1.1" xmlns="http://www.w3.org/2000/svg" xmlns:xlink="http://www.w3.org/1999/xlink">
    <!-- Generator: Sketch 51.2 (57519) - http://www.bohemiancoding.com/sketch -->
    <title>IconInstagram</title>
    <desc>Created with Sketch.</desc>
    <defs></defs>
    <g id="IconInstagram" transform="translate(2.000000, 2.000000)">
        <g id="instagram" fill="currentColor">
            <path d="M13.75,0 L6.25,0 C2.79875,0 0,2.79875 0,6.25 L0,13.75 C0,17.20125 2.79875,20 6.25,20 L13.75,20 C17.20125,20 20,17.20125 20,13.75 L20,6.25 C20,2.79875 17.20125,0 13.75,0 Z M18.125,13.75 C18.125,16.1625 16.1625,18.125 13.75,18.125 L6.25,18.125 C3.8375,18.125 1.875,16.1625 1.875,13.75 L1.875,6.25 C1.875,3.8375 3.8375,1.875 6.25,1.875 L13.75,1.875 C16.1625,1.875 18.125,3.8375 18.125,6.25 L18.125,13.75 Z M10,5 C7.23875,5 5,7.23875 5,10 C5,12.76125 7.23875,15 10,15 C12.76125,15 15,12.76125 15,10 C15,7.23875 12.76125,5 10,5 Z M10,13.125 C8.2775,13.125 6.875,11.7225 6.875,10 C6.875,8.27625 8.2775,6.875 10,6.875 C11.7225,6.875 13.125,8.27625 13.125,10 C13.125,11.7225 11.7225,13.125 10,13.125 Z M15.375,5.29125 C15.7429597,5.29125 16.04125,4.99295971 16.04125,4.625 C16.04125,4.25704029 15.7429597,3.95875 15.375,3.95875 C15.0070403,3.95875 14.70875,4.25704029 14.70875,4.625 C14.70875,4.99295971 15.0070403,5.29125 15.375,5.29125 Z" id="Combined-Shape"></path>
        </g>
    </g>
</svg>