<svg xmlns="http://www.w3.org/2000/svg" viewBox="0 0 24 24"><path d="M15.75 2h-7.5A6.25 6.25 0 002 8.25v7.5A6.25 6.25 0 008.25 22h7.5A6.25 6.25 0 0022 15.75v-7.5A6.25 6.25 0 0015.75 2zm4.375 13.75a4.38 4.38 0 01-4.375 4.375h-7.5a4.38 4.38 0 01-4.375-4.375v-7.5A4.38 4.38 0 018.25 3.875h7.5a4.38 4.38 0 014.375 4.375v7.5zM12 7a5 5 0 100 10 5 5 0 000-10zm0 8.125A3.13 3.13 0 018.875 12 3.129 3.129 0 0112 8.875 3.129 3.129 0 0115.125 12 3.13 3.13 0 0112 15.125zm5.375-7.834a.666.666 0 100-1.332.666.666 0 000 1.332z" fill="currentColor"/></svg>