<svg xmlns="http://www.w3.org/2000/svg" viewBox="0 0 24 24"><path d="M16.084 15.652c-1.18.8-2.789.492-3.589-.686a2.586 2.586 0 012.134-4.035c.828 0 1.642.397 2.142 1.132a2.587 2.587 0 01-.687 3.589zM15.239 2l.947.068a3.857 3.857 0 013.765 3.837V8.04h-1.5V5.905a2.336 2.336 0 00-2.294-2.337l-.945-.068H6.413A1.918 1.918 0 004.5 5.413v13.174c0 1.052.86 1.913 1.913 1.913h11.662l-1.867-2.749a4.518 4.518 0 01-1.568.294 4.532 4.532 0 01-3.756-1.984 4.537 4.537 0 011.204-6.296 4.535 4.535 0 016.294 1.203c1.102 1.625.99 3.706-.105 5.209l2.632 3.877a1.083 1.083 0 01-.287 1.501l-.358.244a1.05 1.05 0 01-.679.165l.009.036H6.413A3.417 3.417 0 013 18.587V5.413A3.417 3.417 0 016.413 2h8.826zM8.331 13.077a.65.65 0 110 1.3h-1.56a.65.65 0 110-1.3h1.56zm1.25-3.22a.65.65 0 110 1.3h-2.81a.65.65 0 110-1.3h2.81zm7.22-3.22a.65.65 0 110 1.3H6.772a.65.65 0 110-1.3h10.03z" fill="currentColor" fill-rule="evenodd"/></svg>