<svg xmlns="http://www.w3.org/2000/svg" viewBox="0 0 24 24"><path d="M20.88 3.099C20.147 2.366 19.265 2 18.233 2H5.746C4.714 2 3.832 2.366 3.1 3.099 2.367 3.832 2 4.714 2 5.746v12.487c0 1.032.367 1.914 1.1 2.647.732.733 1.614 1.099 2.646 1.099h12.487c1.032 0 1.914-.366 2.647-1.1.732-.732 1.099-1.614 1.099-2.646V5.746c0-1.032-.367-1.914-1.1-2.647zM8.087 18.727H5.083V9.7h3.004v9.027zM7.814 8.029c-.312.299-.724.449-1.235.449h-.013c-.495 0-.896-.15-1.203-.45C5.055 7.73 4.9 7.36 4.9 6.918c0-.451.158-.824.474-1.119.317-.295.727-.442 1.23-.442.502 0 .906.147 1.21.442.303.295.459.668.467 1.119 0 .442-.155.812-.468 1.112zm11.082 10.698h-3.004v-4.826c0-1.36-.503-2.042-1.51-2.042-.38 0-.702.107-.962.32-.26.211-.455.47-.585.773-.06.156-.091.399-.091.728v5.047H9.739c.026-5.446.026-8.455 0-9.027h3.005v1.274c.632-.987 1.529-1.482 2.693-1.482 1.04 0 1.877.342 2.51 1.027.633.685.95 1.696.95 3.03v5.178z" fill="currentColor"/></svg>