<?xml version="1.0" encoding="UTF-8"?>
<svg width="24px" height="24px" viewBox="0 0 24 24" version="1.1" xmlns="http://www.w3.org/2000/svg" xmlns:xlink="http://www.w3.org/1999/xlink">
    <!-- Generator: Sketch 51.2 (57519) - http://www.bohemiancoding.com/sketch -->
    <title>linkedin.icon</title>
    <desc>Created with Sketch.</desc>
    <defs></defs>
        <g id="IconLinkedIn" transform="translate(2.000000, 2.000000)">
            <rect id="viewBox" fill="#fff" opacity="0" x="0" y="0" width="20" height="20"></rect>
            <g id="linkedin-sign" fill="currentColor" fill-rule="nonzero">
                <path d="M18.8797267,1.09899772 C18.1472893,0.366378132 17.2648292,0 16.2330296,0 L3.74615034,0 C2.7143508,0 1.83189066,0.366378132 1.0991344,1.09899772 C0.366514806,1.83175399 0.00013667426,2.71416856 0.00013667426,3.74601367 L0.00013667426,16.2327563 C0.00013667426,17.2645103 0.366514806,18.1470159 1.0991344,18.8797722 C1.83189066,19.6125285 2.7143508,19.9789066 3.74615034,19.9789066 L16.2328929,19.9789066 C17.2646925,19.9789066 18.1471526,19.6125285 18.87959,18.8797722 C19.6123462,18.1470159 19.9787244,17.2645558 19.9787244,16.2327563 L19.9787244,3.74601367 C19.9786788,2.71416856 19.6123007,1.83161731 18.8797267,1.09899772 Z M6.08738041,16.7269704 L3.08273349,16.7269704 L3.08273349,7.70004556 L6.08738041,7.70004556 L6.08738041,16.7269704 Z M5.81439636,6.02879271 C5.5022779,6.32797267 5.09034169,6.47758542 4.57867882,6.47758542 L4.56555809,6.47758542 C4.07134396,6.47758542 3.6704328,6.32797267 3.36250569,6.02879271 C3.05453303,5.72961276 2.90063781,5.35895216 2.90063781,4.91671982 C2.90063781,4.46583144 3.05899772,4.09289294 3.37539863,3.79799544 C3.69202733,3.50318907 4.10168565,3.35571754 4.60455581,3.35571754 C5.10747153,3.35571754 5.51070615,3.50318907 5.81425968,3.79799544 C6.1177221,4.09289294 6.27384966,4.46583144 6.28246014,4.91671982 C6.28241458,5.35876993 6.12651481,5.72943052 5.81439636,6.02879271 Z M16.8962642,16.7269704 L13.8916173,16.7269704 L13.8916173,11.9014579 C13.8916173,10.5402278 13.3888383,9.85940774 12.3829157,9.85940774 C12.0014123,9.85940774 11.68041,9.96560364 11.4203645,10.1780866 C11.16,10.3904328 10.9649658,10.6484282 10.8350797,10.952164 C10.7742597,11.1080638 10.7440091,11.3507973 10.7440091,11.6802278 L10.7440091,16.7269248 L7.73936219,16.7269704 C7.76537585,11.2814123 7.76537585,8.27230068 7.73936219,7.69995444 L10.7440091,7.69995444 L10.7440091,8.97439636 C11.3757631,7.98665148 12.2728474,7.49175399 13.4365376,7.49175399 C14.4770843,7.49175399 15.3139863,7.8343508 15.9469704,8.51927107 C16.58,9.20432802 16.8964465,10.2146697 16.8964465,11.5497494 L16.8964465,16.7269704 L16.8962642,16.7269704 Z" id="Shape"></path>
            </g>
        </g>
</svg>