<svg width="24px" height="24px" viewBox="0 0 24 24" version="1.1" xmlns="http://www.w3.org/2000/svg" xmlns:xlink="http://www.w3.org/1999/xlink">
    <g id="Page-1" stroke="none" stroke-width="1" fill="none" fill-rule="evenodd">
        <g id="Group" transform="translate(11.000000, 10.000000) scale(-1, 1) translate(-11.000000, -10.000000) translate(-1.000000, 2.000000)" fill-rule="nonzero">
            <g id="mask" fill="currentColor">
                <path d="M19.9173475,12.1321971 C19.6735874,13.914402 18.8962801,15.6029827 17.6596745,16.9688328 C15.9137393,18.8972456 13.418123,19.9992734 10.7998654,20.0000862 C8.36183401,20.0032721 6.0220805,19.049033 4.29754078,17.3469416 C3.90446655,16.958984 3.90031868,16.3258326 4.28827627,15.9327584 C4.67623386,15.5396841 5.30938525,15.5355363 5.70245949,15.9234939 C7.05128019,17.254757 8.88492705,18.0025868 10.7982481,18.0000871 C12.8541327,17.9994485 14.8110172,17.1353168 16.1770547,15.626507 C17.1465153,14.5557228 17.753074,13.2324693 17.938981,11.8374514 L17.728617,12.061234 C17.3503436,12.4636364 16.7174808,12.4831968 16.3150784,12.1049234 C15.912676,11.72665 15.8931156,11.0937872 16.271389,10.6913848 L18.505139,8.31515029 C18.9618683,7.82928752 19.7571766,7.91808965 20.0954933,8.49272526 L21.8617433,11.4927253 C22.1419448,11.9686513 21.9832786,12.5816137 21.5073526,12.8618152 C21.0314266,13.1420166 20.4184641,12.9833505 20.1382627,12.5074245 L19.9173475,12.1321971 Z M2.08265529,7.86787751 C2.3264184,6.08567976 3.10372453,4.3971065 4.34032559,3.03126133 C6.08626087,1.10284855 8.58187716,0.000820762752 11.2001347,7.95099779e-06 C13.6381661,-0.00317792459 15.9779196,0.951061173 17.7024594,2.65315256 C18.0955336,3.04111015 18.0996815,3.67426155 17.7117239,4.06733578 C17.3237663,4.46041002 16.6906149,4.46455788 16.2975406,4.07660029 C14.9487199,2.74533719 13.1150731,1.99750733 11.2017521,2.00000705 C9.14586739,2.00064567 7.18898292,2.86477734 5.82294539,4.37358712 C4.85348926,5.44436655 4.24693164,6.76761284 4.06102162,8.16262384 L4.27138603,7.93884088 C4.64965943,7.5364385 5.2825222,7.51687809 5.68492458,7.8951515 C6.08732697,8.2734249 6.10688737,8.90628767 5.72861397,9.30869005 L3.49486397,11.6849246 C3.03813466,12.1707874 2.2428264,12.0819852 1.90450968,11.5073496 L0.138259684,8.50734961 C-0.141941769,8.03142358 0.0167243541,7.41846114 0.492650389,7.13825968 C0.968576424,6.85805823 1.58153886,7.01672435 1.86174032,7.49265039 L2.08265529,7.86787751 Z" id="Combined-Shape"></path>
            </g>
        </g>
    </g>
</svg>
