<svg xmlns="http://www.w3.org/2000/svg" viewBox="0 0 24 24"><path d="M3.083 14.132A9.03 9.03 0 005.34 18.97 9.258 9.258 0 0012.2 22a9.24 9.24 0 006.502-2.653 1 1 0 10-1.404-1.424A7.241 7.241 0 0112.202 20a7.259 7.259 0 01-5.38-2.373 7.029 7.029 0 01-1.761-3.79l.21.224a1 1 0 001.458-1.37l-2.234-2.376a1 1 0 00-1.59.178l-1.767 3a1 1 0 101.724 1.014l.22-.375zm17.834-4.264A9.03 9.03 0 0018.66 5.03 9.258 9.258 0 0011.8 2a9.24 9.24 0 00-6.502 2.653 1 1 0 101.404 1.424A7.241 7.241 0 0111.798 4c2.056 0 4.013.865 5.38 2.374a7.029 7.029 0 011.761 3.789l-.21-.224a1 1 0 10-1.458 1.37l2.234 2.376a1 1 0 001.59-.178l1.767-3a1 1 0 00-1.724-1.014l-.22.375z" fill="currentColor" fill-rule="nonzero"/></svg>