<svg width="38" height="30" xmlns="http://www.w3.org/2000/svg"><g fill="none" fill-rule="evenodd"><rect fill="#000" width="38" height="30" rx="4"/><g fill-rule="nonzero"><path d="M35.158 15c0 5.474-4.421 9.947-9.947 9.947-5.474 0-9.948-4.473-9.948-9.947 0-5.474 4.421-9.947 9.895-9.947 5.579 0 10 4.473 10 9.947z" fill="#FFB600"/><path d="M11.842 5.053C6.422 5.105 2 9.526 2 15c0 5.474 4.421 9.947 9.947 9.947 2.58 0 4.895-1 6.685-2.579.368-.315.684-.684 1-1.052h-2.053a12.142 12.142 0 01-.737-1h3.526c.21-.316.421-.684.58-1.053h-4.685a6.273 6.273 0 01-.42-1.052h5.473c.316-1 .526-2.053.526-3.158 0-.737-.105-1.421-.21-2.106h-6.106c.053-.368.158-.684.263-1.052h5.474a6.273 6.273 0 00-.42-1.053H16.21c.157-.368.368-.684.578-1.053h3.527a5.005 5.005 0 00-.79-1.052H17.58a8.97 8.97 0 011-1c-1.737-1.632-4.105-2.58-6.684-2.58 0-.104 0-.104-.053-.104z" fill="#FF5050"/><g fill="#FFF"><path d="M15.474 17.526l.158-.894c-.053 0-.158.052-.264.052-.368 0-.42-.21-.368-.316l.316-1.842h.579l.158-1h-.527l.106-.631h-1.053s-.632 3.473-.632 3.894c0 .632.369.895.842.895.316 0 .58-.105.685-.158zM15.842 15.842c0 1.474 1 1.842 1.842 1.842.79 0 1.105-.158 1.105-.158l.211-1s-.579.263-1.105.263c-1.158 0-.948-.842-.948-.842h2.158s.158-.684.158-.947c0-.684-.368-1.526-1.526-1.526-1.105-.106-1.895 1.052-1.895 2.368zm1.842-1.526c.58 0 .474.684.474.737H17c0-.053.105-.737.684-.737zM24.368 17.526l.21-1.158s-.525.264-.894.264c-.737 0-1.052-.58-1.052-1.21 0-1.264.631-1.948 1.368-1.948.526 0 .947.315.947.315l.158-1.105s-.631-.263-1.21-.263c-1.21 0-2.421 1.053-2.421 3.053 0 1.315.631 2.21 1.894 2.21.421 0 1-.158 1-.158zM9.684 13.368c-.737 0-1.263.21-1.263.21l-.158.896s.474-.21 1.158-.21c.368 0 .684.052.684.368 0 .21-.052.263-.052.263h-.474c-.895 0-1.895.368-1.895 1.579 0 .947.632 1.158 1 1.158.737 0 1.053-.474 1.105-.474l-.052.42h.947l.421-2.894c0-1.263-1.052-1.316-1.42-1.316zm.21 2.369c0 .158-.105 1-.736 1-.316 0-.421-.263-.421-.421 0-.263.158-.632.947-.632.158.053.21.053.21.053zM12.105 17.632c.263 0 1.58.052 1.58-1.369 0-1.316-1.264-1.052-1.264-1.579 0-.263.21-.368.579-.368.158 0 .737.052.737.052l.158-.947s-.369-.105-1-.105c-.79 0-1.58.316-1.58 1.368 0 1.21 1.317 1.105 1.317 1.58 0 .315-.369.368-.632.368-.474 0-.947-.158-.947-.158l-.158.947c.052.105.316.21 1.21.21zM33.105 12.526l-.21 1.421s-.421-.526-1-.526c-.948 0-1.79 1.158-1.79 2.526 0 .842.421 1.737 1.316 1.737.632 0 1-.42 1-.42l-.053.368h1.053l.79-5.053-1.106-.053zm-.473 2.79c0 .579-.264 1.316-.843 1.316-.368 0-.578-.316-.578-.843 0-.842.368-1.368.842-1.368.368 0 .579.263.579.895zM3.947 17.579l.632-3.79.105 3.79h.737l1.368-3.79-.578 3.79h1.105l.842-5.053H6.42l-1.053 3.106-.052-3.106H3.789l-.842 5.053zM20.263 17.579c.316-1.737.369-3.158 1.105-2.895.106-.684.264-.947.369-1.21h-.21c-.474 0-.843.631-.843.631l.105-.579h-1l-.684 4.106h1.158v-.053zM26.79 13.368c-.737 0-1.264.21-1.264.21l-.158.896s.474-.21 1.158-.21c.369 0 .685.052.685.368 0 .21-.053.263-.053.263h-.474c-.895 0-1.895.368-1.895 1.579 0 .947.632 1.158 1 1.158.737 0 1.053-.474 1.106-.474l-.053.42h.947l.422-2.894c.052-1.263-1.053-1.316-1.422-1.316zm.263 2.369c0 .158-.106 1-.737 1-.316 0-.421-.263-.421-.421 0-.263.158-.632.947-.632.158.053.158.053.21.053zM29.105 17.579c.316-1.737.369-3.158 1.106-2.895.105-.684.263-.947.368-1.21h-.21c-.474 0-.843.631-.843.631l.106-.579h-1l-.685 4.106h1.158v-.053z"/></g></g></g></svg>