<svg xmlns="http://www.w3.org/2000/svg" viewBox="0 0 38 30"><g fill="none" fill-rule="evenodd"><rect width="38" height="30" fill="#000" rx="4"/><g fill-rule="nonzero"><path fill="#FFB600" d="M35.158 15c0 5.474-4.421 9.947-9.947 9.947-5.474 0-9.948-4.473-9.948-9.947 0-5.474 4.421-9.947 9.895-9.947 5.579 0 10 4.473 10 9.947z"/><path fill="#FF5050" d="M11.842 5.053C6.422 5.105 2 9.526 2 15c0 5.474 4.421 9.947 9.947 9.947 2.58 0 4.895-1 6.685-2.579.368-.315.684-.684 1-1.052h-2.053a12.292 12.292 0 01-.737-1h3.526a6.87 6.87 0 00.58-1.053h-4.685a6.17 6.17 0 01-.42-1.052h5.473c.316-1 .526-2.053.526-3.158 0-.737-.105-1.421-.21-2.106h-6.106c.053-.368.158-.684.263-1.052h5.474a6.316 6.316 0 00-.42-1.053H16.21c.157-.368.368-.684.578-1.053h3.527a4.995 4.995 0 00-.79-1.052H17.58a8.993 8.993 0 011-1c-1.737-1.632-4.105-2.58-6.684-2.58 0-.104 0-.104-.053-.104z"/><path d="M15.474 17.526l.158-.895c-.053 0-.158.053-.264.053-.368 0-.42-.21-.368-.316l.316-1.842h.579l.158-1h-.527l.106-.632h-1.053s-.632 3.474-.632 3.895c0 .632.369.895.842.895.316 0 .58-.105.685-.158zm.368-1.684c0 1.473 1 1.842 1.842 1.842.79 0 1.105-.158 1.105-.158l.21-1s-.578.263-1.104.263c-1.158 0-.948-.842-.948-.842h2.158s.158-.684.158-.947c0-.685-.368-1.527-1.526-1.527-1.106-.105-1.896 1.053-1.896 2.369zm1.842-1.527c.58 0 .474.685.474.737H17c0-.052.105-.737.684-.737zm6.684 3.211l.21-1.158s-.525.263-.894.263c-.737 0-1.052-.579-1.052-1.21 0-1.264.631-1.948 1.368-1.948.526 0 .947.316.947.316l.158-1.105s-.631-.263-1.21-.263c-1.21 0-2.421 1.052-2.421 3.052 0 1.316.631 2.21 1.894 2.21.421 0 1-.157 1-.157zM9.684 13.368c-.737 0-1.263.21-1.263.21l-.158.895s.474-.21 1.158-.21c.368 0 .684.052.684.368 0 .21-.052.263-.052.263h-.474c-.895 0-1.895.369-1.895 1.58 0 .947.632 1.157 1 1.157.737 0 1.053-.474 1.105-.474l-.052.422h.947l.421-2.895c0-1.263-1.052-1.316-1.42-1.316zm.21 2.368c0 .158-.105 1-.736 1-.316 0-.421-.263-.421-.42 0-.264.158-.632.947-.632.158.052.21.052.21.052zm2.211 1.895c.263 0 1.58.053 1.58-1.368 0-1.316-1.264-1.053-1.264-1.58 0-.262.21-.368.579-.368.158 0 .737.053.737.053l.158-.947s-.369-.106-1-.106c-.79 0-1.58.316-1.58 1.369 0 1.21 1.317 1.105 1.317 1.579 0 .316-.369.368-.632.368-.474 0-.947-.158-.947-.158l-.158.948c.052.105.315.21 1.21.21zm21-5.105l-.21 1.42s-.421-.525-1-.525c-.948 0-1.79 1.158-1.79 2.526 0 .842.421 1.737 1.316 1.737.632 0 1-.421 1-.421l-.053.368h1.053l.79-5.052-1.106-.053zm-.473 2.79c0 .578-.264 1.315-.843 1.315-.368 0-.579-.316-.579-.842 0-.842.369-1.368.843-1.368.368 0 .579.263.579.894zM3.947 17.579l.632-3.79.105 3.79h.737l1.368-3.79-.579 3.79h1.106l.842-5.053H6.421l-1.053 3.105-.052-3.105H3.789l-.842 5.053zm16.316-.001c.316-1.736.369-3.157 1.105-2.894.106-.684.264-.948.369-1.21h-.21c-.474 0-.843.63-.843.63l.105-.578h-1l-.684 4.105h1.158v-.052zm6.526-4.21c-.736 0-1.263.21-1.263.21l-.158.895s.474-.21 1.158-.21c.369 0 .684.052.684.368 0 .21-.052.263-.052.263h-.474c-.895 0-1.895.369-1.895 1.58 0 .947.632 1.157 1 1.157.737 0 1.053-.474 1.106-.474l-.053.422h.947l.421-2.895c.053-1.263-1.052-1.316-1.419-1.316zm.264 2.368c0 .158-.106 1-.737 1-.316 0-.421-.263-.421-.42 0-.264.158-.632.947-.632.158.052.158.052.21.052zm2.052 1.842c.316-1.736.369-3.157 1.105-2.894.106-.684.264-.948.369-1.21h-.21c-.474 0-.843.63-.843.63l.106-.578h-1l-.685 4.105h1.158v-.052z" fill="#FFF"/></g></g></svg>