<svg xmlns="http://www.w3.org/2000/svg" viewBox="0 0 24 24"><path d="M19.083 13.44V9.702c.93.24 1.613.98 1.613 1.868 0 .887-.683 1.627-1.613 1.868zm-1.532 5.435l-6.61-4.246V8.527l6.61-4.26v14.608zm-9.16-4.252H4.524c-.671 0-1.22-.482-1.22-1.071v-3.96c0-.59.549-1.072 1.22-1.072H8.39c.672 0 1.22.482 1.22 1.071v3.96c0 .59-.548 1.072-1.22 1.072zM19.42 8.478a1.33 1.33 0 00-.337-.042c-.077 0-.152.022-.227.036V4.268c0-.467-.264-.896-.687-1.117a1.335 1.335 0 00-1.339.06L10.22 7.47a1.258 1.258 0 00-.297.275 2.632 2.632 0 00-1.533-.493H4.525C3.133 7.252 2 8.302 2 9.592v3.96c0 1.289 1.133 2.339 2.525 2.339H8.39c.33 0 .639-.067.927-.176l-.002.009v3.758c0 .35.292.634.652.634.36 0 .652-.284.652-.634v-3.54l6.213 3.99a1.33 1.33 0 001.337.059c.423-.222.687-.65.687-1.116v-4.204c.075.013.15.036.227.036.113 0 .226-.014.337-.043C20.94 14.271 22 13 22 11.571c0-1.427-1.06-2.7-2.58-3.093z" fill="currentColor" fill-rule="evenodd"/></svg>