<svg xmlns="http://www.w3.org/2000/svg" viewBox="0 0 24 24"><path d="M4 16.286v4.4A1.315 1.315 0 005.315 22h8.8a1.313 1.313 0 001.314-1.315v-4.4A5.715 5.715 0 0013.524 12v-1.429a2.857 2.857 0 00-2.857-2.857V5.81h.952c.054.004.108.004.162 0a2.856 2.856 0 002.695 1.904h1.905a2.857 2.857 0 100-5.714h-1.905a2.859 2.859 0 00-2.695 1.905.877.877 0 00-.162 0h-.952v-.953a.953.953 0 00-1.905 0v4.762a2.857 2.857 0 00-2.857 2.857V12A5.715 5.715 0 004 16.286zM14.476 3.905h1.905a.952.952 0 110 1.905h-1.905a.953.953 0 010-1.905zM7.81 10.57c0-.526.426-.952.952-.952h1.905c.526 0 .952.426.952.952v.334a5.604 5.604 0 00-3.81 0v-.334zm-1.905 5.715a3.81 3.81 0 117.619 0v3.81h-7.62v-3.81z" fill="currentColor" fill-rule="evenodd"/></svg>