<svg xmlns="http://www.w3.org/2000/svg" viewBox="0 0 24 24"><path d="M8.338 19.226a1.605 1.605 0 01-1.885-.457 1.707 1.707 0 01-.133-2.004l2.119-3.393a3.348 3.348 0 012.852-1.601 3.35 3.35 0 012.851 1.6l2.12 3.394c.393.63.34 1.435-.135 2.004a1.603 1.603 0 01-1.906.447 7.07 7.07 0 00-2.93-.63 7.105 7.105 0 00-2.953.64zm2.953-9.096c1.706 0 3.276.881 4.197 2.356l2.12 3.394c.379.607.553 1.306.504 2.023a3.348 3.348 0 01-.769 1.932A3.203 3.203 0 0114.877 21c-.448 0-.886-.095-1.3-.283a5.562 5.562 0 00-4.536-.016 3.19 3.19 0 01-2.063.214 3.196 3.196 0 01-1.74-1.08 3.35 3.35 0 01-.77-1.932 3.383 3.383 0 01.504-2.023l2.12-3.394c.922-1.475 2.49-2.356 4.199-2.356zm5.74.913c.99-1.37 2.763-1.752 3.956-.849 1.191.906 1.355 2.758.367 4.132-.606.84-1.53 1.34-2.475 1.34-.546 0-1.058-.17-1.483-.492-1.19-.906-1.355-2.758-.365-4.13zm2.466.297c-.427 0-.88.26-1.182.679-.23.32-.35.692-.337 1.048.013.337.144.616.37.788.226.172.524.217.842.132a1.63 1.63 0 00.878-.637c.466-.646.451-1.47-.03-1.837a.889.889 0 00-.54-.173zM3.65 7.044c.69-.273 1.455-.212 2.148.174.65.363 1.163.975 1.445 1.725.28.75.3 1.557.055 2.273-.263.764-.789 1.335-1.481 1.608-.28.11-.572.166-.871.166-1.164 0-2.258-.83-2.722-2.065-.596-1.595.043-3.336 1.426-3.881zm1.385 1.615c-.272-.152-.562-.184-.812-.084-.56.22-.788 1.01-.507 1.761.282.749.97 1.18 1.527.957.249-.098.443-.32.546-.621.12-.349.107-.754-.038-1.14a1.657 1.657 0 00-.716-.873zm9.46-3.65c.718-.446 1.523-.551 2.275-.295.749.255 1.335.836 1.65 1.635.297.753.315 1.617.05 2.432-.447 1.382-1.649 2.347-2.923 2.347-.277 0-.55-.045-.812-.134-.73-.249-1.307-.814-1.628-1.59a3.598 3.598 0 01-.071-2.477c.263-.816.782-1.496 1.459-1.918zM9.847 3c1.708 0 3.097 1.61 3.097 3.59 0 1.98-1.389 3.59-3.097 3.59-1.707 0-3.098-1.61-3.098-3.59C6.75 4.61 8.14 3 9.847 3zm6.107 3.22c-.21 0-.427.065-.632.193-.353.22-.626.586-.77 1.031l-.052.186c-.085.371-.069.748.05 1.076.134.365.378.624.69.731.311.105.658.048.977-.162.335-.222.596-.581.735-1.011a1.93 1.93 0 00-.014-1.3c-.138-.346-.376-.592-.673-.693a.961.961 0 00-.311-.051zM9.847 4.64c-.826 0-1.499.876-1.499 1.95 0 1.076.673 1.95 1.499 1.95.826 0 1.5-.874 1.5-1.95 0-1.074-.674-1.95-1.5-1.95z" fill="currentColor" fill-rule="evenodd"/></svg>