<svg xmlns="http://www.w3.org/2000/svg" viewBox="0 0 24 24"><path d="M13.144 2.05a6.341 6.341 0 00-4.995 1.537A6.34 6.34 0 006 8.35v7.253a6.35 6.35 0 007.144 6.346c3.218-.39 5.548-3.291 5.548-7.253v-6.11a6.5 6.5 0 00-5.548-6.537zm3.736 10.82l-.001 2.734a4.532 4.532 0 01-5.439 4.441 4.648 4.648 0 01-3.627-4.614V12.87a5 5 0 00.302.009h8.462c.103 0 .204-.003.303-.01zm-1.667-8.03a4.53 4.53 0 011.666 3.511v2.724c-.098-.006-.2-.01-.302-.01H8.115c-.102 0-.203.004-.302.01V8.523A4.647 4.647 0 0111.44 3.91a4.536 4.536 0 013.773.93z" fill="currentColor" fill-rule="evenodd"/></svg>