<?xml version="1.0" encoding="UTF-8"?>
<svg width="14px" height="20px" viewBox="0 0 24 24" version="1.1" xmlns="http://www.w3.org/2000/svg" xmlns:xlink="http://www.w3.org/1999/xlink">
    <!-- Generator: Sketch 50.2 (55047) - http://www.bohemiancoding.com/sketch -->
    <title>IconPinOutline</title>
    <desc>Created with Sketch.</desc>
    <defs></defs>
    <path d="M12,2 C8.13,2 5,5.13 5,9 C5,14.25 12,22 12,22 C12,22 19,14.25 19,9 C19,5.13 15.87,2 12,2 Z M7,9 C7,6.24 9.24,4 12,4 C14.76,4 17,6.24 17,9 C17,11.88 14.12,16.19 12,18.88 C9.92,16.21 7,11.85 7,9 Z M12,11.5 C13.3807119,11.5 14.5,10.3807119 14.5,9 C14.5,7.61928813 13.3807119,6.5 12,6.5 C10.6192881,6.5 9.5,7.61928813 9.5,9 C9.5,10.3807119 10.6192881,11.5 12,11.5 Z" id="mask" fill="currentColor" fill-rule="nonzero"></path>
</svg>
