<svg viewBox="0 0 28 28" fill="none" xmlns="http://www.w3.org/2000/svg"><path d="M21.8363 21.4198c-1.0985 0-2.1317-.4277-2.9085-1.2042l-4.1997-4.1998c-.2949-.2956-.8088-.2947-1.1035 0L9.40954 20.231c-.77683.7764-1.81006 1.2042-2.90857 1.2042h-.82763l5.31906 5.3189c1.6611 1.6611 4.3544 1.6611 6.0156 0l5.3342-5.3343h-.5059zM6.50073 6.56473c1.09851 0 2.13174.42773 2.90857 1.20418l4.215 4.21579c.3036.3037.7992.3048 1.1036-.0004l4.1996-4.20002c.7769-.77646 1.8101-1.20419 2.9086-1.20419h.5058l-5.334-5.33417c-1.6613-1.66123-4.3546-1.66123-6.0157 0L5.67334 6.56475l.82739-.00002z" fill="#000"/><path d="M26.7542 10.9921l-3.2235-3.22341c-.0709.02843-.1478.04617-.2289.04617h-1.4656c-.7578 0-1.4995.30734-2.0349.84313l-4.1996 4.19971c-.393.393-.9094.5896-1.4253.5896-.5164 0-1.0324-.1966-1.4253-.5892L8.53566 8.64264c-.53541-.53592-1.27714-.84312-2.03485-.84312H4.69869c-.07687 0-.14869-.01812-.2165-.04366L1.24592 10.9921c-1.66123 1.6613-1.66123 4.3545 0 6.0157l3.23614 3.2361c.06793-.0255.13976-.0436.21663-.0436h1.80212c.75771 0 1.49944-.3072 2.03485-.843l4.21504-4.215c.7618-.7613 2.0899-.7615 2.851.0003l4.1996 4.1993c.5354.5358 1.2771.8432 2.0349.8432h1.4656c.0811 0 .158.0177.2289.0461l3.2235-3.2234c1.6611-1.6613 1.6611-4.3544 0-6.0157" fill="#000"/></svg>
