<svg width="15" height="16" fill="none" xmlns="http://www.w3.org/2000/svg"><path fill-rule="evenodd" clip-rule="evenodd" d="M11.01 3.208a4.951 4.951 0 011.463 3.522c-.001 1.09-.33 2.078-1.034 3.108a.402.402 0 11-.665-.455c.608-.89.892-1.732.893-2.653a4.186 4.186 0 00-4.18-4.174 4.186 4.186 0 00-4.181 4.175c.002 1.83 1.112 3.044 2.396 4.45l.003.004c.58.635 1.179 1.291 1.706 2.044l.075.109.076-.109c.524-.748 1.122-1.404 1.702-2.04l.007-.008.077-.083a.4.4 0 01.569-.026.4.4 0 01.026.57l-.079.085c-.66.723-1.341 1.47-1.888 2.335a.401.401 0 01-.34.188h-.298a.4.4 0 01-.34-.188c-.549-.867-1.231-1.614-1.892-2.337l-.01-.01c-.663-.727-1.29-1.414-1.771-2.2-.554-.903-.824-1.814-.825-2.784a4.955 4.955 0 011.462-3.523A4.955 4.955 0 017.486 1.75c1.332 0 2.583.518 3.524 1.458zM7.462 8.935a2.2 2.2 0 01-2.198-2.199 2.2 2.2 0 012.198-2.198A2.2 2.2 0 019.66 6.736a2.2 2.2 0 01-2.198 2.199zm0-5.203a3.008 3.008 0 00-3.005 3.004A3.008 3.008 0 007.462 9.74a3.007 3.007 0 003.005-3.004 3.008 3.008 0 00-3.005-3.004z" fill="currentColor"/><mask id="a" maskUnits="userSpaceOnUse" x="2" y="1" width="11" height="14"><path fill-rule="evenodd" clip-rule="evenodd" d="M11.01 3.208a4.951 4.951 0 011.463 3.522c-.001 1.09-.33 2.078-1.034 3.108a.402.402 0 11-.665-.455c.608-.89.892-1.732.893-2.653a4.186 4.186 0 00-4.18-4.174 4.186 4.186 0 00-4.181 4.175c.002 1.83 1.112 3.044 2.396 4.45l.003.004c.58.635 1.179 1.291 1.706 2.044l.075.109.076-.109c.524-.748 1.122-1.404 1.702-2.04l.007-.008.077-.083a.4.4 0 01.569-.026.4.4 0 01.026.57l-.079.085c-.66.723-1.341 1.47-1.888 2.335a.401.401 0 01-.34.188h-.298a.4.4 0 01-.34-.188c-.549-.867-1.231-1.614-1.892-2.337l-.01-.01c-.663-.727-1.29-1.414-1.771-2.2-.554-.903-.824-1.814-.825-2.784a4.955 4.955 0 011.462-3.523A4.955 4.955 0 017.486 1.75c1.332 0 2.583.518 3.524 1.458zM7.462 8.935a2.2 2.2 0 01-2.198-2.199 2.2 2.2 0 012.198-2.198A2.2 2.2 0 019.66 6.736a2.2 2.2 0 01-2.198 2.199zm0-5.203a3.008 3.008 0 00-3.005 3.004A3.008 3.008 0 007.462 9.74a3.007 3.007 0 003.005-3.004 3.008 3.008 0 00-3.005-3.004z" fill="#fff"/></mask><g mask="url(#a)"><path fill="currentColor" d="M0 .5h15v15H0z"/></g></svg>
