<svg width="24" height="24" viewBox="0 0 20 14" xmlns="http://www.w3.org/2000/svg" xmlns:xlink="http://www.w3.org/1999/xlink"><defs><path d="M15.762 6.43v5.857h4.852v-1.674a.108.108 0 00-.048-.088l-1.46-1.012a.71.71 0 01-.248-.303l-1.196-2.78h-1.9zm-1.386 0H4.98v.957c0 .395-.31.715-.693.715a.704.704 0 01-.693-.715V5.715c0-.395.31-.715.693-.715h13.825c.274 0 .523.167.634.425l1.298 3.016 1.295.897c.413.286.661.763.661 1.275v6.1c0 .395-.31.716-.693.716h-1.04C19.96 18.344 19.11 19 18.112 19c-1.141 0-2.09-.86-2.252-1.983H9.772C9.609 18.14 8.66 19 7.519 19c-1.012 0-1.872-.676-2.168-1.612H4.267a.704.704 0 01-.693-.715v-4.319c0-.394.31-.714.693-.714.36 0 .657.284.69.647h9.419V6.43zm6.238 7.287H4.96v2.24h.391c.296-.936 1.156-1.612 2.168-1.612.873 0 1.633.503 2.015 1.242h6.564a2.272 2.272 0 012.014-1.242c1.027 0 1.898.696 2.18 1.654h.322v-2.282zm-2.502 3.853a.894.894 0 00.891-.897.894.894 0 00-.89-.898.894.894 0 00-.892.898c0 .493.397.897.891.897zm-10.593 0a.894.894 0 00.891-.897.894.894 0 00-.89-.898.894.894 0 00-.892.898c0 .493.397.897.891.897zm-2.394-7.482c.382 0 .693.32.693.715 0 .394-.31.715-.693.715H3.504a.704.704 0 01-.694-.715c0-.395.31-.715.694-.715h1.62zm-2.432-.22A.704.704 0 012 9.153c0-.395.31-.715.693-.715h3.242c.383 0 .693.32.693.715 0 .395-.31.715-.693.715H2.693z" id="a"/></defs><use fill="currentColor" fill-rule="nonzero" xlink:href="#a" transform="translate(-2 -5)"/></svg>