<svg xmlns="http://www.w3.org/2000/svg" viewBox="0 0 24 24"><path d="M20.712 15.906l-2.813 3.75a2.944 2.944 0 01-2.344 1.172h-5.31c-1.374 0-2.454-.21-3.567-.523.003-.067.002.29.002-4.485l.416-.36a2.938 2.938 0 013.871 0c.498.439 1.139.68 1.803.68h2.785a.587.587 0 010 1.172h-4.218a.587.587 0 000 1.172h4.61c.486 0 .955-.203 1.287-.559l2.58-2.77a.586.586 0 01.898.751zM5.516 13.897v-7.21h4.726v4.14c0 .468.523.748.912.489l1.432-.956 1.433.956a.586.586 0 00.91-.488v-4.14h4.727v7.21c-.264.094-.506.25-.7.46l-1.722 1.848a1.761 1.761 0 00-1.679-1.237H12.77a1.56 1.56 0 01-1.029-.388 4.109 4.109 0 00-5.375-.037 1.771 1.771 0 00-.85-.647zm0 6.346a.586.586 0 01-.586.585H3.172v-5.859H4.93c.323 0 .586.263.586.586v4.688zm2.071-17.07h2.655v2.343H6.024l1.563-2.344zm3.828 3.515h2.343v3.045l-.847-.564a.583.583 0 00-.65 0l-.846.564V6.688zm0-1.172h2.344V3.172h-2.344v2.344zm3.514-2.344h2.656l1.563 2.344h-4.219V3.172zm5.9 10.725V6.102l-.001-.009a.586.586 0 00-.094-.31c-.002-.002-.002-.005-.004-.006v-.002l-.002-.002-2.341-3.513a.591.591 0 00-.488-.26H7.274a.587.587 0 00-.488.26L4.444 5.773v.002l-.002.002-.005.008a.584.584 0 00-.093.308v7.703H2.585a.586.586 0 00-.586.587v7.03c0 .325.262.587.586.587H4.93c.526 0 .999-.233 1.321-.6.616.173 2.02.6 3.993.6h5.311a4.123 4.123 0 003.281-1.64l2.813-3.751a1.76 1.76 0 00-.82-2.712z" fill="currentColor"/></svg>