<svg xmlns="http://www.w3.org/2000/svg" viewBox="0 0 16 16"><g fill="none" fill-rule="evenodd"><rect width="8" height="8" x="6.667" y="6.987" fill="#DEF3F3" rx="4"/><path fill="#333" d="M12.405 6.375a.93.93 0 01.682.218c.19.161.307.387.33.65a.916.916 0 01-.117.536l-1.407-1.2a.936.936 0 01.511-.204zM7.84 12.793l.145-1.072.89.753-1.035.32zm.416-1.936l3.086-3.64 1.428 1.208-3.087 3.628-1.427-1.196zm1.894-9.524l.63.046a2.568 2.568 0 012.507 2.555v1.054h-.998V3.934c0-.849-.68-1.54-1.529-1.557l-.629-.045h-5.86c-.7 0-1.273.574-1.273 1.274v8.773c0 .7.573 1.273 1.274 1.273l2.767.01a.442.442 0 01-.123-.332l.329-2.488a.396.396 0 01.116-.218l3.763-4.454a1.735 1.735 0 011.211-.632 1.78 1.78 0 011.296.412 1.8 1.8 0 01.62 1.223 1.76 1.76 0 01-.412 1.295l-3.787 4.467a.404.404 0 01-.207.128l-2.007.6 2.241.007-.003.5a.5.5 0 01-.499.497l-5.305-.016A2.275 2.275 0 012 12.38V3.606a2.276 2.276 0 012.273-2.273h5.878zM6.649 8.71a.433.433 0 010 .866H4.511a.432.432 0 010-.866zm1.742-2.28a.433.433 0 110 .865H4.51a.432.432 0 110-.865zm2.8-2.28a.432.432 0 110 .865H4.51a.433.433 0 010-.866z"/></g></svg>
