<svg viewBox="0 0 19 19" fill="none" xmlns="http://www.w3.org/2000/svg">
<rect x="7" y="8" width="11" height="11" rx="4" fill="#DEF3F3"/>
<path fill-rule="evenodd" clip-rule="evenodd" d="M16.244 7.23243C15.9822 7.01085 15.6553 6.90464 15.3064 6.93211H15.3055C15.0482 6.95225 14.8019 7.05297 14.6023 7.2132L16.5379 8.86314C16.6643 8.64156 16.722 8.38336 16.6973 8.12699C16.6661 7.7644 16.5068 7.45401 16.244 7.23243ZM9.23135 14.2836L9.03175 15.7577L10.4555 15.3182L9.23135 14.2836ZM13.846 8.09128L9.60401 13.0951L11.5653 14.7395L15.81 9.75129L13.846 8.09128ZM17.2805 9.80989L12.0734 15.9518C11.9956 16.0406 11.8976 16.1002 11.7878 16.1276L9.0281 16.9544L12.1101 16.9636L12.1064 17.6494C12.1046 18.0275 11.7978 18.3333 11.4197 18.3333L4.12499 18.3123C2.4018 18.3123 1 16.9105 1 15.1873V3.12499C1 1.4018 2.4018 0 4.12499 0H12.1815H12.2071L13.0733 0.0622617C14.975 0.0979707 16.5215 1.67374 16.5215 3.57547V5.0258H15.1481V3.57547C15.1481 2.40898 14.2141 1.45766 13.0467 1.43568L12.1815 1.37342H4.12499C3.16176 1.37342 2.37342 2.16176 2.37342 3.12499V15.1873C2.37342 16.1505 3.16176 16.9389 4.12499 16.9389L7.93028 16.9508C7.81583 16.8253 7.74624 16.6642 7.76089 16.4948L8.2132 13.075C8.23701 12.9514 8.29195 12.8525 8.37344 12.7746L13.5467 6.65102C13.9532 6.14835 14.563 5.83063 15.2122 5.7821C15.854 5.72625 16.5023 5.93135 16.9939 6.34795C17.492 6.78012 17.7942 7.37618 17.8473 8.02902C17.905 8.66995 17.698 9.31912 17.2805 9.80989ZM13.6375 3.87213C13.9662 3.87213 14.2326 4.13857 14.2326 4.46728C14.2326 4.79598 13.9662 5.06243 13.6375 5.06243H4.45294C4.12423 5.06243 3.85779 4.79598 3.85779 4.46728C3.85779 4.13857 4.12423 3.87213 4.45294 3.87213H13.6375ZM10.3824 7.60261C10.3824 7.27391 10.1159 7.00747 9.78722 7.00747H4.45285C4.12415 7.00747 3.85771 7.27391 3.85771 7.60261C3.85771 7.93132 4.12415 8.19776 4.45285 8.19776H9.78722C10.1159 8.19776 10.3824 7.93132 10.3824 7.60261ZM3.85809 10.738C3.85809 10.4093 4.12453 10.1429 4.45323 10.1429H7.39235C7.72106 10.1429 7.9875 10.4093 7.9875 10.738C7.9875 11.0667 7.72106 11.3332 7.39235 11.3332H4.45323C4.12453 11.3332 3.85809 11.0667 3.85809 10.738Z" fill="#333333"/>
</svg>
