<svg xmlns="http://www.w3.org/2000/svg" viewBox="0 0 24 24"><path d="M6.82 20.107V3.893h5.72v3.882c0 .523.408.947.91.947h3.73v11.385H6.82zm7.54-14.875l1.534 1.596H14.36V5.232zm4.57 2.179a.99.99 0 01.07.364v13.278c0 .524-.407.947-.91.947H5.91c-.502 0-.91-.423-.91-.947V2.947C5 2.424 5.408 2 5.91 2h7.54a.906.906 0 01.643.278l4.64 4.827a.98.98 0 01.197.306zm-3.74 6.66H8.81c-.502 0-.91.423-.91.947 0 .523.408.946.91.946h6.38c.503 0 .91-.423.91-.946 0-.524-.407-.947-.91-.947zM8.81 9.929h2.32c.503 0 .91-.424.91-.947 0-.522-.407-.946-.91-.946H8.81c-.502 0-.91.424-.91.946 0 .523.408.947.91.947zm6.38 1.124H8.81c-.502 0-.91.424-.91.947 0 .523.408.947.91.947h6.38c.503 0 .91-.424.91-.947 0-.523-.407-.947-.91-.947zm-1.16 6.036H8.81c-.502 0-.91.423-.91.947 0 .523.408.946.91.946h5.22c.504 0 .91-.423.91-.946 0-.524-.406-.947-.91-.947z" fill="currentColor" fill-rule="evenodd"/></svg>