<svg viewBox="0 0 18 18" fill="none" xmlns="http://www.w3.org/2000/svg">
<rect x="7.5" y="7.85999" width="9" height="9" rx="4" fill="#DEF3F3"/>
<path fill-rule="evenodd" clip-rule="evenodd" d="M14.7224 7.41745C14.5081 7.23615 14.2407 7.14925 13.9553 7.17173H13.9545C13.744 7.18821 13.5425 7.27061 13.3792 7.40171L14.9629 8.75166C15.0662 8.57037 15.1134 8.35911 15.0932 8.14935C15.0677 7.85269 14.9374 7.59874 14.7224 7.41745ZM8.98474 13.1866L8.82143 14.3927L9.98634 14.0331L8.98474 13.1866ZM12.7604 8.12014L9.28965 12.2142L10.8943 13.5596L14.3673 9.47832L12.7604 8.12014ZM15.5704 9.52627L11.3101 14.5515C11.2464 14.6242 11.1662 14.6729 11.0763 14.6953L8.81845 15.3718L11.34 15.3793L11.3371 15.9404C11.3356 16.2498 11.0846 16.5 10.7752 16.5L4.80681 16.4828C3.39693 16.4828 2.25 15.3358 2.25 13.926V4.05681C2.25 2.64693 3.39693 1.5 4.80681 1.5H11.3985H11.4195L12.1281 1.55094C13.6841 1.58016 14.9494 2.86943 14.9494 4.42539V5.61202H13.8257V4.42539C13.8257 3.47098 13.0616 2.69263 12.1064 2.67465L11.3985 2.62371H4.80681C4.01872 2.62371 3.37371 3.26872 3.37371 4.05681V13.926C3.37371 14.7141 4.01872 15.3591 4.80681 15.3591L7.92023 15.3688C7.82659 15.2662 7.76965 15.1343 7.78164 14.9957L8.15171 12.1977C8.17119 12.0966 8.21614 12.0157 8.28281 11.952L12.5154 6.94174C12.8481 6.53046 13.347 6.27051 13.8781 6.23081C14.4033 6.18511 14.9337 6.35292 15.336 6.69378C15.7435 7.04737 15.9907 7.53506 16.0341 8.0692C16.0813 8.59359 15.912 9.12473 15.5704 9.52627ZM12.5897 4.66811C12.8587 4.66811 13.0767 4.88611 13.0767 5.15505C13.0767 5.42399 12.8587 5.64199 12.5897 5.64199H5.07513C4.80619 5.64199 4.58819 5.42399 4.58819 5.15505C4.58819 4.88611 4.80619 4.66811 5.07513 4.66811H12.5897ZM9.92648 7.72032C9.92648 7.45138 9.70848 7.23338 9.43954 7.23338H5.07506C4.80612 7.23338 4.58812 7.45138 4.58812 7.72032C4.58812 7.98926 4.80612 8.20726 5.07506 8.20726H9.43954C9.70848 8.20726 9.92648 7.98926 9.92648 7.72032ZM4.58843 10.2857C4.58843 10.0167 4.80643 9.79873 5.07537 9.79873H7.48011C7.74905 9.79873 7.96705 10.0167 7.96705 10.2857C7.96705 10.5546 7.74905 10.7726 7.48011 10.7726H5.07537C4.80643 10.7726 4.58843 10.5546 4.58843 10.2857Z" fill="#333333"/>
</svg>
