<svg xmlns="http://www.w3.org/2000/svg" viewBox="0 0 24 24"><path d="M17.679 18.109a5.68 5.68 0 00-3.103-4.64 3.567 3.567 0 10-5.959-3.615A3.568 3.568 0 009.4 13.47a5.68 5.68 0 00-3.101 4.616 8.32 8.32 0 01-2.65-6.085c0-4.606 3.747-8.353 8.352-8.353 4.606 0 8.352 3.747 8.352 8.353a8.325 8.325 0 01-2.674 6.108m-7.52-7.09c0-1.008.821-1.828 1.83-1.828a1.83 1.83 0 011.826 1.829 1.83 1.83 0 01-3.12 1.292 1.819 1.819 0 01-.535-1.292m-2.197 8.287c.016-.066.04-.128.04-.197v-.54a3.99 3.99 0 013.986-3.985 3.99 3.99 0 013.985 3.985v.54c0 .075.025.142.042.21a8.293 8.293 0 01-4.015 1.033 8.295 8.295 0 01-4.038-1.046M12 2C6.487 2 2 6.487 2 12c0 5.515 4.487 10.001 10 10.001 5.515 0 10-4.486 10-10S17.515 2 12 2" fill="currentColor" fill-rule="evenodd"/></svg>