<svg xmlns="http://www.w3.org/2000/svg" viewBox="0 0 24 24"><path d="M20.862 12c0-.34.25-.85.493-1.34.416-.847.889-1.806.5-2.743-.402-.97-1.437-1.317-2.351-1.624-.478-.16-1.02-.342-1.239-.56-.217-.217-.399-.759-.56-1.237-.305-.914-.653-1.95-1.622-2.351-.938-.389-1.896.083-2.742.5-.492.242-1 .492-1.342.492-.34 0-.85-.25-1.34-.492-.846-.417-1.806-.889-2.743-.5-.969.402-1.316 1.437-1.623 2.351-.16.478-.343 1.02-.56 1.237-.218.218-.76.4-1.238.56-.913.307-1.948.655-2.35 1.624-.39.937.084 1.896.5 2.743.243.492.494 1 .494 1.34 0 .34-.25.85-.493 1.341-.417.846-.89 1.805-.5 2.742.401.97 1.437 1.317 2.35 1.624.479.16 1.02.342 1.238.56.217.217.4.76.56 1.237.306.914.654 1.95 1.623 2.351.246.102.493.145.739.145.693 0 1.379-.338 2.003-.645.492-.242 1-.493 1.34-.493.342 0 .85.251 1.342.493.846.417 1.806.889 2.741.5.97-.401 1.317-1.437 1.624-2.35.16-.479.343-1.02.56-1.239.218-.217.76-.399 1.238-.56.914-.306 1.95-.654 2.351-1.623.39-.937-.083-1.896-.5-2.742-.242-.492-.493-1-.493-1.341zM8.667 3.665c.293 0 .841.27 1.256.474.664.327 1.349.665 2.077.665.729 0 1.415-.338 2.078-.665.476-.234 1.126-.555 1.367-.455.269.111.508.823.682 1.342.23.684.466 1.391.961 1.886.495.494 1.202.732 1.886.961.52.175 1.23.414 1.342.683.1.24-.221.891-.456 1.367-.326.663-.664 1.349-.664 2.077 0 .729.337 1.414.663 2.077.235.476.556 1.128.457 1.367-.112.27-.823.508-1.342.682-.685.23-1.392.468-1.886.962-.495.495-.732 1.202-.962 1.886-.174.52-.413 1.23-.682 1.342-.242.1-.892-.222-1.367-.456-.663-.327-1.348-.665-2.077-.665-.729 0-1.415.338-2.077.664-.476.235-1.125.557-1.367.457-.269-.112-.508-.823-.682-1.342-.23-.684-.467-1.391-.962-1.886-.494-.494-1.201-.732-1.885-.962-.519-.174-1.23-.413-1.342-.682-.1-.24.221-.892.456-1.367.327-.663.665-1.349.665-2.078 0-.728-.339-1.414-.665-2.077-.235-.476-.556-1.128-.457-1.366.112-.27.823-.509 1.342-.683.684-.23 1.392-.467 1.886-.962.495-.494.732-1.2.962-1.885.174-.52.413-1.231.682-1.342a.28.28 0 01.11-.02zm6.254 8.553a2.246 2.246 0 00-2.243 2.244 2.245 2.245 0 002.243 2.242 2.245 2.245 0 002.242-2.242 2.245 2.245 0 00-2.242-2.244zm-.257-4.063l-6.507 6.512a.834.834 0 101.18 1.178l6.506-6.512a.834.834 0 10-1.18-1.178zm.257 5.73a.576.576 0 110 1.153.576.576 0 010-1.153zm-5.842-6.59a2.246 2.246 0 00-2.243 2.243 2.246 2.246 0 002.243 2.244 2.246 2.246 0 002.242-2.244 2.245 2.245 0 00-2.242-2.242zm0 1.667a.577.577 0 010 1.153.577.577 0 010-1.153z" fill="currentColor" fill-rule="evenodd"/></svg>