<svg width="13" height="14" fill="none" xmlns="http://www.w3.org/2000/svg"><path d="M3.01 7.261L.882 5.134a2.988 2.988 0 01-.881-2.126A3.011 3.011 0 013.009 0a3.011 3.011 0 013.008 3.008c0 .803-.313 1.558-.881 2.126L3.009 7.261zm0-6.44a2.19 2.19 0 00-1.547 3.733l1.546 1.547 1.547-1.547c.413-.413.64-.962.64-1.546A2.19 2.19 0 003.01.82z" fill="currentColor"/><path d="M3.01 4.375a1.369 1.369 0 01-1.368-1.367c0-.754.614-1.367 1.367-1.367.754 0 1.368.613 1.368 1.367s-.614 1.367-1.368 1.367zm0-1.914a.547.547 0 100 1.095.547.547 0 000-1.095zM10.5 14l-1.767-1.768A2.483 2.483 0 018 10.466c0-1.378 1.121-2.5 2.5-2.5 1.378 0 2.499 1.122 2.499 2.5 0 .668-.26 1.295-.732 1.768L10.5 14zm-1.104-2.43l1.104 1.104 1.105-1.104A1.564 1.564 0 0010.5 8.903a1.564 1.564 0 00-1.104 2.667zM8.219 13.588a.41.41 0 01-.41.41H4.64A2.643 2.643 0 012 11.358 2.643 2.643 0 014.64 8.72h.86a.815.815 0 000-1.628h-.519a.41.41 0 110-.82h.52c.9 0 1.634.733 1.634 1.634 0 .901-.733 1.635-1.634 1.635h-.86c-1.004 0-1.82.816-1.82 1.819 0 1.003.816 1.82 1.82 1.82h3.167a.41.41 0 01.41.41z" fill="currentColor"/></svg>
