<svg width="24" height="24" viewBox="0 0 20 14" xmlns="http://www.w3.org/2000/svg"><path d="M18.494 7.287H13.22V1.43h2.065l1.3 2.78c.057.123.151.228.268.304l1.588 1.01a.108.108 0 01.052.09v1.673zm0 3.711h-.362c-.308-.954-1.242-1.653-2.357-1.653-.945 0-1.76.506-2.176 1.242H6.442a2.488 2.488 0 00-2.177-1.242c-1.098 0-2.02.679-2.343 1.613h-.416v-2.24h16.988v2.28zm-2.719 1.572c-.536 0-.967-.404-.967-.897 0-.494.43-.898.967-.898.538 0 .969.404.969.898 0 .493-.431.897-.969.897zm-11.51 0c-.537 0-.968-.404-.968-.897 0-.494.43-.898.968-.898.537 0 .968.404.968.898 0 .493-.431.897-.968.897zM1.506 1.43h10.209v5.857H1.506V1.43zm17.776 2.908l-1.407-.897L16.464.424A.757.757 0 0015.775 0H.753C.337 0 0 .32 0 .715V11.67c0 .394.264.708.731.716h1.191C2.245 13.321 3.167 14 4.265 14c1.24 0 2.26-.861 2.437-1.983h6.636C13.517 13.139 14.537 14 15.775 14c1.083 0 1.996-.659 2.33-1.572h1.142c.416 0 .753-.32.753-.715v-6.1c0-.512-.27-.99-.718-1.275z" fill="currentColor" fill-rule="evenodd"/></svg>