
<svg width="24px" height="24px" viewBox="0 0 20 14" version="1.1" xmlns="http://www.w3.org/2000/svg" xmlns:xlink="http://www.w3.org/1999/xlink">
    <!-- Generator: Sketch 50.2 (55047) - http://www.bohemiancoding.com/sketch -->
    <desc>Created with Sketch.</desc>
    <defs></defs>
    <g id="styleguide" stroke="none" stroke-width="1" fill="none" fill-rule="evenodd">
        <g id="icons" transform="translate(-533.000000, -227.000000)">
            <g id="IconShippingCompany" transform="translate(531.000000, 222.000000)">
                <rect id="Rectangle-2" fill="#D8D8D8" opacity="0" x="0" y="0" width="24" height="24"></rect>
                <path d="M20.4937269,12.287411 L15.221421,12.287411 L15.221421,6.42960595 L17.2863109,6.42960595 L18.5864268,9.21002861 C18.6432054,9.33321189 18.7370641,9.43769771 18.8540977,9.51358741 L20.4415832,10.5243502 C20.4751869,10.5463473 20.4937269,10.5793428 20.4937269,10.6134381 L20.4937269,12.287411 Z M20.4937269,15.9983073 L20.1321973,15.9983073 C19.8239702,15.0436369 18.8900189,14.3452317 17.7753028,14.3452317 C16.829764,14.3452317 16.0151637,14.851163 15.599173,15.5869632 L8.4415832,15.5869632 C8.02559247,14.851163 7.21099224,14.3452317 6.26545342,14.3452317 C5.16695979,14.3452317 4.24459594,15.0238396 3.92246385,15.9576129 L3.50647312,15.9576129 L3.50647312,13.7172169 L20.4937269,13.7172169 L20.4937269,15.9983073 Z M17.7753028,17.569994 C17.2388022,17.569994 16.8077477,17.1663488 16.8077477,16.6725158 C16.8077477,16.1786829 17.2388022,15.7750376 17.7753028,15.7750376 C18.3129621,15.7750376 18.7440166,16.1786829 18.7440166,16.6725158 C18.7440166,17.1663488 18.3129621,17.569994 17.7753028,17.569994 Z M6.26545342,17.569994 C5.72779409,17.569994 5.29673963,17.1663488 5.29673963,16.6725158 C5.29673963,16.1786829 5.72779409,15.7750376 6.26545342,15.7750376 C6.801954,15.7750376 7.23300846,16.1786829 7.23300846,16.6725158 C7.23300846,17.1663488 6.801954,17.569994 6.26545342,17.569994 Z M3.50647312,6.42960595 L13.7150479,6.42960595 L13.7150479,12.287411 L3.50647312,12.2863111 L3.50647312,6.42960595 Z M21.2816759,9.3376113 L19.8749552,8.44123295 L18.4635994,5.42434238 C18.3430896,5.16697731 18.0731012,4.9998 17.7753028,4.9998 L2.75328656,4.9998 C2.33729583,4.9998 2.0001,5.31985656 2.0001,5.71470298 L2.0001,16.671416 C2.0001,17.0651626 2.26429467,17.37862 2.73127034,17.3874188 L3.92246385,17.3874188 C4.24459594,18.3211921 5.16695979,18.9998 6.26545342,18.9998 C7.50415562,18.9998 8.52501309,18.1386169 8.70230162,17.0167691 L15.3384546,17.0167691 C15.5169019,18.1386169 16.5366006,18.9998 17.7753028,18.9998 C18.8575739,18.9998 19.7706678,18.3409894 20.1055461,17.4281133 L21.2469134,17.4281133 C21.6629042,17.4281133 22.0001,17.1080567 22.0001,16.7132103 L22.0001,10.6134381 C22.0001,10.1009077 21.7301116,9.62357249 21.2816759,9.3376113 Z" id="Fill-1" fill="currentColor"></path>
            </g>
        </g>
    </g>
</svg>
