<svg xmlns="http://www.w3.org/2000/svg" viewBox="0 0 24 24"><path d="M12.663 3.086a.905.905 0 00.7.3h5.407a.911.911 0 01.746.355c.119.15.183.337.182.528v14.507a.908.908 0 01-.983.973h-5.342a.91.91 0 00-.91 1.148.91.91 0 00.928.664h5.36a2.73 2.73 0 002.73-2.73l.083-7.272V4.36a2.73 2.73 0 00-1.22-2.32 2.624 2.624 0 00-1.51-.474h-5.461a.856.856 0 00-.856.537.857.857 0 00.146.983zM2.468 12.008a.91.91 0 00.894.67h11.73l-.108.137-1.82 2.23a.909.909 0 00-.046 1.046.91.91 0 001.511.1l2.976-3.722c.32-.392.32-.955 0-1.347L14.62 7.364a.91.91 0 00-1.247-.136.907.907 0 00-.137 1.283l1.293 1.611.564.737H3.443c-.189-.01-.377.03-.545.119a.909.909 0 00-.43 1.03z" fill="currentColor" fill-rule="evenodd"/></svg>