<svg width="24px" height="24px" viewBox="0 0 24 24" version="1.1" xmlns="http://www.w3.org/2000/svg" xmlns:xlink="http://www.w3.org/1999/xlink">
    <!-- Generator: Sketch 50.2 (55047) - http://www.bohemiancoding.com/sketch -->
    <title>IconStore</title>
    <desc>Created with Sketch.</desc>
    <defs>
        <path d="M21.99616,9.327122 C21.99872,9.30207762 22,9.27673627 22,9.25109794 C22,9.14438709 21.9775509,9.0428237 21.9372803,8.95115928 L20.3459528,4.44940658 C20.039542,3.58245515 19.2187706,3 18.3036736,3 L5.6943572,3 C4.77926016,3 3.95848882,3.58245515 3.65207802,4.44940658 L2.04263364,9.00243592 C2.03288599,9.03262777 2.02678141,9.05420751 2.02146451,9.07618322 C2.01132302,9.12013463 2.00659689,9.14785173 2.00374152,9.17616277 C2.00137845,9.20259301 2,9.2266475 2,9.25109794 C2.0053169,10.102409 2.35249057,10.983516 2.94059845,11.6327891 L2.94059845,18.6980945 C2.94059845,19.9673399 3.96774416,21 5.23021179,21 L6.80421019,21 L9.78108169,21 L18.767819,21 C20.0302866,21 21.0574323,19.9673399 21.0574323,18.6980945 L21.0574323,11.6326901 C21.6318541,10.9985624 21.975877,10.1433907 21.99616,9.327122 Z M20.3625927,9.99352038 C20.1071847,10.6058704 19.5693904,11.1331883 18.9444581,11.1331883 C18.2290401,11.1331883 17.6242923,10.6512077 17.4322933,9.99352038 L20.3625927,9.99352038 Z M5.04372655,4.94663163 C5.14139992,4.67045049 5.40281402,4.48484488 5.6943572,4.48484488 L18.3035751,4.48484488 C18.5951183,4.48484488 18.8566309,4.67045049 18.9542058,4.94663163 L20.2133257,8.50857652 L3.7846066,8.50857652 L5.04372655,4.94663163 Z M15.826295,9.99352038 C15.6341975,10.6512077 15.0295482,11.1331883 14.3141301,11.1331883 C13.5987121,11.1331883 12.9939643,10.6512077 12.8019653,9.99352038 L15.826295,9.99352038 Z M11.1960655,9.99352038 C11.003968,10.6512077 10.3993186,11.1331883 9.68390063,11.1331883 C8.96848262,11.1331883 8.36373482,10.6512077 8.17173577,9.99352038 L11.1960655,9.99352038 Z M6.56573752,9.99352038 C6.37364001,10.6512077 5.76899068,11.1331883 5.05357266,11.1331883 C4.42854189,11.1331883 3.89084608,10.6058704 3.6354381,9.99352038 L6.56573752,9.99352038 Z M10.875903,19.5150561 L10.875903,16.0056573 L12.3758587,16.0056573 L12.3758587,19.5150561 L10.875903,19.5150561 Z M18.767819,19.5150561 L13.8527745,19.5150561 L13.8527745,15.2632349 C13.8527745,14.8531207 13.5221422,14.5208124 13.1143166,14.5208124 L10.1374451,14.5208124 C9.72961938,14.5208124 9.39898716,14.8531207 9.39898716,15.2632349 L9.39898716,19.5150561 L5.23011333,19.5150561 C4.78201707,19.5150561 4.41741579,19.1484974 4.41741579,18.6979955 L4.41741579,12.5411182 C4.62044248,12.59091 4.83282298,12.6179342 5.0534742,12.6179342 C5.9785158,12.6179342 6.80814864,12.2016827 7.36858895,11.5463712 C7.92902927,12.2016827 8.75866211,12.6179342 9.68370371,12.6179342 C10.6087453,12.6179342 11.4383781,12.2016827 11.9988185,11.5463712 C12.5592588,12.2016827 13.3888916,12.6179342 14.3139332,12.6179342 C15.2389748,12.6179342 16.0686077,12.2016827 16.629048,11.5463712 C17.1894883,12.2016827 18.0191211,12.6179342 18.9441627,12.6179342 C19.1649124,12.6179342 19.3772929,12.59091 19.5802211,12.5411182 L19.5802211,18.6979955 C19.5805165,19.1484974 19.2159152,19.5150561 18.767819,19.5150561 Z" id="path-1" fill="currentColor"></path>
    </defs>
    <g id="Page-1">
        <g id="IconStore">
            <mask id="mask-2" fill="white">
                <use xlink:href="#path-1"></use>
            </mask>
            <use id="Shape" fill="#000000" fill-rule="nonzero" xlink:href="#path-1"></use>
        </g>
    </g>
</svg>
