<svg xmlns="http://www.w3.org/2000/svg" xmlns:xlink="http://www.w3.org/1999/xlink" viewBox="0 0 24 24"><defs><path id="a" d="M19.293 4.622A1.016 1.016 0 0018.36 4H5.64a1.016 1.016 0 00-.933.622l-2.63 6.385a1.007 1.007 0 00.933 1.395h1.243v6.722h-.655a.84.84 0 100 1.68h16.804a.84.84 0 100-1.68h-1.025v-6.722h1.613a1.01 1.01 0 00.933-1.395l-2.63-6.385zM9.294 19.124v-4.201h1.68v3.966a.79.79 0 00.051.235h-1.73zm3.361 0a.924.924 0 000-.235v-3.966h1.68v4.2h-1.68zm5.084 0h-1.68V14.25a1.01 1.01 0 00-1.009-1.009H8.64a1.01 1.01 0 00-1.01 1.009v4.873H5.95v-6.722h1.37a.993.993 0 00.597-.193l1.772-1.286 1.68 1.244c.356.26.839.26 1.194 0l1.68-1.244 1.773 1.286c.17.126.377.194.588.193h1.025l.11 6.722zm-.84-8.402l-1.992-1.445a1.007 1.007 0 00-1.193 0L12 10.52l-1.68-1.243a1.008 1.008 0 00-1.194 0l-2.024 1.445H4.01L6.118 5.68h11.764l2.083 5.042h-3.067z"/></defs><g fill="none" fill-rule="evenodd"><path d="M0 0h24v24H0z"/><mask id="b" fill="#fff"><use xlink:href="#a"/></mask><use fill="#169998" fill-rule="nonzero" xlink:href="#a"/><g fill="#333" mask="url(#b)"><path d="M0 0h24v21H0z"/></g></g></svg>