<svg fill="none" xmlns="http://www.w3.org/2000/svg"><path d="M14.765 7.389h-3.177a4.229 4.229 0 00-4.235 4.222v3.167A4.229 4.229 0 0011.588 19h3.177C17.104 19 19 17.11 19 14.778V11.61a4.229 4.229 0 00-4.235-4.222z" fill="#DEF3F3"/><path fill-rule="evenodd" clip-rule="evenodd" d="M16.54 16.366c-.108.19-.519.302-1.098.302H9.16c-.84 0-1.23-.178-1.317-.345-.13-.25.126-.847.365-1.183l.939-1.405h6.138l1.027 1.548c.181.303.36.847.227 1.083zm-5.787-5.032a.68.68 0 00.114-.375v-2.94c.549.009 1.394.002 2.723-.011v2.968c0 .132.04.262.113.373l.686 1.034h-4.338l.702-1.05zm6.706 3.227l-2.512-3.789V7.958h.529a.677.677 0 00.678-.676.677.677 0 00-.678-.676H8.917a.677.677 0 00-.678.676c0 .374.304.676.678.676h.593v2.795L7.094 14.37c-.099.136-.872 1.27-.55 2.309H4.085c-.95 0-1.73-.776-1.73-1.725V3.077c0-.949.78-1.725 1.73-1.725h7.957l.856.062a2.111 2.111 0 012.075 2.106v2.242h1.357V3.52c0-1.872-1.529-3.424-3.407-3.459L12.07 0H4.085A3.086 3.086 0 001 3.077v11.876a3.086 3.086 0 003.086 3.077h7.405l-.011-.01h3.962c1.142 0 1.909-.333 2.28-.993.58-1.029-.164-2.303-.263-2.466z" fill="#333"/><path fill-rule="evenodd" clip-rule="evenodd" d="M13.795 4.414a.587.587 0 00-.588-.586H4.136a.587.587 0 100 1.172h9.07a.587.587 0 00.589-.586M4.136 10.806H7.78a.587.587 0 100-1.172H4.136a.587.587 0 100 1.172M4.136 7.903h2.541a.587.587 0 100-1.172h-2.54a.587.587 0 100 1.172" fill="#333"/></svg>