<svg xmlns="http://www.w3.org/2000/svg" viewBox="0 0 24 24"><path fill="currentColor" fill-rule="evenodd" d="M13.187 2.4c-.6-.533-1.489-.533-2.089 0L5.938 7c-.584.513-.925 1.26-.938 2.05v10.19C5 20.766 6.2 22 7.679 22h8.928c1.48 0 2.679-1.235 2.679-2.76V9.05c.008-.796-.317-1.557-.893-2.088L13.187 2.4zm-1.044 1.5l5.044 4.423c.199.175.313.43.313.7V19.24c0 .508-.4.92-.893.92H7.679c-.494 0-.893-.412-.893-.92V9.05c-.008-.28.107-.547.312-.728L12.143 3.9zm0 3.814c-.79 0-1.429.64-1.429 1.429s.64 1.428 1.429 1.428 1.428-.64 1.428-1.428c0-.79-.64-1.429-1.428-1.429z"/></svg>
