<svg xmlns="http://www.w3.org/2000/svg" viewBox="0 0 24 24"><path d="M7.038 16.962c1.373 1.342 3.027 2.012 4.962 2.012 1.935 0 3.58-.678 4.938-2.036 1.358-1.357 2.036-3.003 2.036-4.938 0-1.935-.678-3.58-2.036-4.938C15.581 5.704 13.935 5.026 12 5.026c-1.935 0-3.58.678-4.938 2.036C5.704 8.419 5.026 10.065 5.026 12c0 1.935.67 3.589 2.012 4.962zm13.902-5.945H23v1.966h-2.06c-.218 2.09-1.076 3.885-2.574 5.383-1.498 1.498-3.292 2.356-5.383 2.574V23h-1.966v-2.06c-2.09-.218-3.885-1.076-5.383-2.574-1.498-1.498-2.356-3.292-2.574-5.383H1v-1.966h2.06c.218-2.09 1.076-3.885 2.574-5.383 1.498-1.498 3.292-2.356 5.383-2.574V1h1.966v2.06c2.09.218 3.885 1.076 5.383 2.574 1.498 1.498 2.356 3.292 2.574 5.383zM9.191 9.191c.78-.78 1.717-1.17 2.809-1.17s2.028.39 2.809 1.17c.78.78 1.17 1.717 1.17 2.809s-.39 2.028-1.17 2.809c-.78.78-1.717 1.17-2.809 1.17s-2.028-.39-2.809-1.17c-.78-.78-1.17-1.717-1.17-2.809s.39-2.028 1.17-2.809z" fill="currentColor" fill-rule="evenodd"/></svg>