<svg width="24px" height="24px" viewBox="0 0 24 24" version="1.1" xmlns="http://www.w3.org/2000/svg" xmlns:xlink="http://www.w3.org/1999/xlink">
    <!-- Generator: Sketch 49.2 (51160) - http://www.bohemiancoding.com/sketch -->
    <title>IconThumbUp</title>
    <desc>Created with Sketch.</desc>
    <defs></defs>
    <g id="Page-1" stroke="none" stroke-width="1" fill="none" fill-rule="evenodd">
        <g id="IconThumbUp">
            <path d="M2,21 L5.63636364,21 L5.63636364,10.2 L2,10.2 L2,21 L2,21 Z M22,11.1 C22,10.11 21.1818182,9.3 20.1818182,9.3 L14.4454545,9.3 L15.3090909,5.187 L15.3363636,4.899 C15.3363636,4.53 15.1818182,4.188 14.9363636,3.945 L13.9727273,3 L7.99090909,8.931 C7.65454545,9.255 7.45454545,9.705 7.45454545,10.2 L7.45454545,19.2 C7.45454545,20.19 8.27272727,21 9.27272727,21 L17.4545455,21 C18.2090909,21 18.8545455,20.55 19.1272727,19.902 L21.8727273,13.557 C21.9545455,13.35 22,13.134 22,12.9 L22,11.181 L21.9909091,11.172 L22,11.1 L22,11.1 Z" id="Mask" fill="currentColor"></path>
        </g>
    </g>
</svg>
