<svg xmlns="http://www.w3.org/2000/svg" viewBox="0 0 24 24"><path d="M11.715 14.422a1.71 1.71 0 00-.108-1.631c-.29-.457-.753-.72-1.271-.72H7.583l5.87-7.762h3.11L12.6 9.483a1.609 1.609 0 00-.25 1.7c.256.574.828.92 1.426.923h2.576l-5.914 5.065 1.277-2.749zm8.968-4.049c-.222-.62-.834-1.045-1.45-1.028h-3.425l3.442-4.718a1.612 1.612 0 00.246-1.707c-.26-.577-.824-.96-1.432-.917h-5.42c-.535.01-1.03.31-1.261.733l-6.996 9.319c-.588.978-.377 1.68-.2 2.012.26.49.762.803 1.322.82H8.67l-2.275 4.818a1.605 1.605 0 00.427 1.96c.282.226.62.335.952.335.367 0 .729-.132 1.01-.394l11.455-9.498c.486-.423.665-1.12.444-1.735z" fill="currentColor" fill-rule="evenodd"/></svg>