<svg xmlns="http://www.w3.org/2000/svg" viewBox="0 0 24 24"><path fill="currentColor" fill-rule="evenodd" d="M14.667 2c.753 0 1.366.613 1.366 1.366l-.001 1.694h5.055c.418 0 .763.313.814.717l.006.103c0 .453-.367.82-.82.82l-1.532-.001-.025 13.39c0 1.003-.778 1.829-1.763 1.905l-.15.006H7.29c-1.055 0-1.913-.858-1.913-1.913L5.351 6.7H3.82c-.418 0-.763-.312-.814-.716L3 5.88c0-.453.367-.82.82-.82h5.054V3.366c0-.709.543-1.293 1.235-1.36L10.24 2zm3.249 4.699H6.991l.025 13.387c0 .128.092.238.212.267l.062.008h10.327c.149 0 .274-.125.274-.274L17.916 6.7zm-7.402 2.623c.452 0 .82.367.82.82v6.612c0 .453-.368.82-.82.82-.453 0-.82-.367-.82-.82v-6.612c0-.453.367-.82.82-.82zm3.88 0c.452 0 .82.367.82.82v6.612c0 .453-.368.82-.82.82-.453 0-.82-.367-.82-.82v-6.612c0-.453.367-.82.82-.82zm0-5.683h-3.88l-.001 1.421h3.88V3.64z"/></svg>