<svg xmlns="http://www.w3.org/2000/svg" viewBox="0 0 24 24"><path fill="currentColor" fill-rule="evenodd" d="M19.288 8.164c-.204-.277-.526-.437-.864-.427h-1.606v-.889c0-1.473-1.16-2.668-2.59-2.668H5.59C4.16 4.18 3 5.375 3 6.848v8.894c0 1.473 1.16 2.668 2.59 2.668h.156c.372 1.055 1.346 1.758 2.436 1.758 1.09 0 2.063-.703 2.435-1.758h2.902c.368 1.061 1.345 1.77 2.44 1.77s2.071-.709 2.44-1.77c.048.004.097.004.146 0h2.419c.572 0 1.036-.478 1.036-1.067v-5.096c.002-.232-.07-.457-.207-.64l-2.505-3.443zM8.182 18.41c-.477 0-.864-.398-.864-.89 0-.49.387-.889.864-.889s.863.398.863.89c0 .49-.386.889-.863.889zm7.772 0c-.477 0-.863-.398-.863-.89 0-.49.386-.889.863-.889s.864.398.864.89c0 .49-.387.889-.864.889zm4.319-1.779h-1.728c-.049-.004-.098-.004-.146 0-.369-1.061-1.345-1.77-2.44-1.77s-2.072.709-2.44 1.77h-2.902c-.372-1.055-1.345-1.758-2.435-1.758s-2.064.703-2.436 1.758h-.155c-.477 0-.864-.398-.864-.89V6.849c0-.491.387-.89.864-.89h8.636c.477 0 .864.399.864.89v6.226c0 .49.386.889.863.889s.864-.398.864-.89V9.517h1.296l2.159 2.962v4.153z"/></svg>
