<svg xmlns="http://www.w3.org/2000/svg" viewBox="0 0 24 24"><path d="M23 5.25c-.81.363-1.68.487-2.592.596.804-.62 1.217-.83 1.859-2.096-.872.52-1.713.482-2.74.686A4.495 4.495 0 0016.231 3c-2.493 0-4.515 2.035-4.515 4.544 0 .356.04.703.118 1.036-3.751-.19-7.143-2.081-9.368-4.83-.388.671-.547 1.533-.547 2.367 0 1.576.797 2.966 2.01 3.782a4.466 4.466 0 01-2.046-.569v.058a4.54 4.54 0 003.62 4.456 4.475 4.475 0 01-2.038.077c.574 1.806 2.16 3.292 4.134 3.329-1.925 2.227-6.247 1.54-6.6 1.5C2.998 20.04 5.371 21 7.919 21c8.302 0 12.842-6.923 12.842-12.928 0-.198-.004-.394-.012-.588.88-.64 1.646-1.321 2.251-2.234" fill="currentColor"/></svg>