<svg xmlns="http://www.w3.org/2000/svg" viewBox="0 0 24 24"><path d="M24 3.938c-.883.393-1.832.527-2.827.645.877-.67 1.327-.899 2.027-2.27-.951.563-1.869.522-2.99.742a4.925 4.925 0 00-8.39 4.49C7.728 7.339 4.028 5.29 1.6 2.313c-.423.727-.596 1.66-.596 2.564 0 1.707.87 3.213 2.192 4.097a4.898 4.898 0 01-2.231-.617v.063a4.927 4.927 0 003.95 4.827 4.914 4.914 0 01-2.225.084c.627 1.956 2.356 3.567 4.51 3.607C5.1 19.35.386 18.605 0 18.563 2.18 19.959 4.769 21 7.548 21c9.057 0 14.01-7.5 14.01-14.006 0-.214-.005-.426-.014-.637.96-.693 1.796-1.43 2.456-2.42" fill="#1DA1F2" fill-rule="evenodd"/></svg>