<svg xmlns="http://www.w3.org/2000/svg" viewBox="0 0 38 30"><g fill="none" fill-rule="evenodd"><rect width="38" height="30" fill="#3C58BF" rx="4"/><g fill-rule="nonzero"><path fill="#FFF" d="M13.467 19.765l1.727-9.412h2.698l-1.673 9.412zm12.52-9.307c-.54-.21-1.403-.419-2.482-.419-2.699 0-4.642 1.307-4.642 3.19 0 1.412 1.35 2.144 2.43 2.614 1.078.47 1.402.784 1.402 1.203 0 .627-.863.94-1.619.94-1.08 0-1.673-.156-2.59-.522l-.378-.157-.378 2.144c.648.261 1.835.523 3.076.523 2.86 0 4.75-1.307 4.75-3.294 0-1.098-.702-1.935-2.321-2.615-.972-.47-1.565-.732-1.565-1.202 0-.419.486-.837 1.565-.837.917 0 1.565.157 2.05.366l.27.105.432-2.04zm4.642-.105c-.648 0-1.134.052-1.404.68l-4.047 8.732h2.914l.54-1.569h3.454l.324 1.569H35l-2.267-9.412H30.63zm-1.242 6.274c.162-.47 1.08-2.77 1.08-2.77s.216-.576.377-.942l.162.889s.54 2.353.648 2.876h-2.267v-.053zm-20.885.314l-.27-1.36c-.486-1.568-2.051-3.293-3.778-4.13l2.429 8.366h2.914l4.371-9.412h-2.914l-2.752 6.536z"/><path fill="#FFBC00" d="M1 10.353l.486.105c3.454.784 5.828 2.77 6.746 5.124l-.972-4.445c-.162-.627-.647-.784-1.24-.784H1z"/></g></g></svg>