<svg fill="currentColor" xmlns="http://www.w3.org/2000/svg"><path d="M3.53 22A3 3 0 0 1 2 21.58a2.9 2.9 0 0 1-1-1.09A3 3 0 0 1 .55 19 3 3 0 0 1 1 17.5L9.43 3.35a3 3 0 0 1 1.09-1.06 3.07 3.07 0 0 1 2.94 0 3.1 3.1 0 0 1 1.1 1.06L23 17.49c.266.455.408.973.41 1.5a3 3 0 0 1-3 3L3.53 22Zm7.62-17.62L2.68 18.51a1 1 0 0 0-.13.49 1 1 0 0 0 .99 1h16.93a1 1 0 0 0 .48-.14.999.999 0 0 0 .37-.36 1.13 1.13 0 0 0 .13-.5 1 1 0 0 0-.14-.5L12.85 4.37a.999.999 0 0 0-.36-.37 1 1 0 0 0-1 0 .87.87 0 0 0-.34.38ZM13 13V9a1 1 0 1 0-2 0v4a1 1 0 0 0 2 0Zm0 4a1 1 0 1 0-2 0 1 1 0 0 0 2 0Z" fill="currentColor"/></svg>
