<svg xmlns="http://www.w3.org/2000/svg" viewBox="0 0 24 24"><path d="M21.23 8.328a.473.473 0 00-.263-.26.475.475 0 00-.368 0 .485.485 0 00-.259.631 8.929 8.929 0 01.696 3.481c0 4.983-4.054 9.035-9.037 9.035h-.026a8.9 8.9 0 01-5.03-1.547L8.13 18.06a.48.48 0 00-.45-.764l-3.075.399a.488.488 0 00-.328.193.486.486 0 00-.086.368l.53 3.057a.482.482 0 00.864.203l.788-1.07a9.845 9.845 0 005.595 1.734H12c5.514 0 10-4.486 10-10a9.903 9.903 0 00-.77-3.852m-5.959 1.181l-3.767 5.92c-.007.012-.02.016-.03.028-.03.04-.058.081-.1.113-.016.01-.033.016-.048.025l-.051.026a.533.533 0 01-.223.056h-.006a.555.555 0 01-.259-.075c-.008-.005-.017-.003-.025-.008-.044-.027-.074-.065-.105-.1-.012-.013-.027-.018-.037-.032L9.005 13.31a.538.538 0 01.862-.646l1.147 1.53 3.35-5.263a.539.539 0 11.907.578m-3.315-4.397a.284.284 0 01.341 0 28.468 28.468 0 005.827 3.374l.039.017a.285.285 0 01.173.26V12.2c0 2.19-1.085 4.112-3.135 5.56-1.529 1.082-3.037 1.516-3.1 1.533a.28.28 0 01-.157 0c-.06-.018-1.52-.452-3-1.535-1.98-1.449-3.026-3.37-3.026-5.557V8.763c0-.112.068-.215.172-.26l.04-.017a28.487 28.487 0 005.826-3.374zm.054-2.932a9.95 9.95 0 013.28.555c.25.09.381.365.295.613a.484.484 0 01-.61.298 8.648 8.648 0 00-2.976-.501c-4.982 0-9.035 4.053-9.035 9.035-.002 1.06.182 2.1.544 3.095a.486.486 0 01-.057.442.482.482 0 01-.849-.112 9.926 9.926 0 01-.603-3.426C2 6.666 6.486 2.18 12 2.18z" fill="currentColor" fill-rule="evenodd"/></svg>