<svg xmlns="http://www.w3.org/2000/svg" viewBox="0 0 24 24"><path d="M20.6 7.888a.472.472 0 01.367 0c.12.048.213.14.263.26A9.9 9.9 0 0122 12c0 5.514-4.486 10-10 10h-.032a9.85 9.85 0 01-5.596-1.734l-.788 1.07a.482.482 0 01-.864-.203l-.53-3.057a.489.489 0 01.086-.368.488.488 0 01.328-.193l3.075-.4a.482.482 0 01.45.765l-1.185 1.608a8.898 8.898 0 005.03 1.547h.025c4.983 0 9.037-4.052 9.037-9.035a8.917 8.917 0 00-.696-3.48.484.484 0 01.26-.632zM12.03 2c2.011 0 3.942.6 5.597 1.734l.788-1.07a.482.482 0 01.864.203l.53 3.057a.49.49 0 01-.086.368.488.488 0 01-.328.193l-3.075.4a.482.482 0 01-.45-.765l1.185-1.608a8.898 8.898 0 00-5.03-1.547H12c-4.983 0-9.037 4.053-9.037 9.035a8.917 8.917 0 00.696 3.48.486.486 0 01-.26.633.484.484 0 01-.63-.26A9.929 9.929 0 012 12C2 6.486 6.486 2 12 2zm3.075 6.585c.251.16.325.492.165.744l-3.767 5.92c-.007.012-.02.016-.03.028-.03.04-.058.081-.1.113-.016.01-.033.016-.048.025l-.051.026a.533.533 0 01-.223.056h-.006a.555.555 0 01-.259-.075c-.008-.005-.017-.003-.025-.008-.044-.027-.074-.065-.105-.1-.012-.013-.027-.018-.037-.032L9.005 13.13a.538.538 0 01.862-.646l1.147 1.53 3.35-5.263a.54.54 0 01.742-.166zm3.057-.262l-.04-.017a28.487 28.487 0 01-5.826-3.374.284.284 0 00-.341 0 28.468 28.468 0 01-5.827 3.374l-.04.017a.285.285 0 00-.17.26v3.438c0 2.186 1.046 4.108 3.026 5.557 1.479 1.083 2.938 1.517 2.999 1.534a.27.27 0 00.157.001c.063-.017 1.571-.45 3.1-1.532 2.05-1.449 3.135-3.372 3.135-5.561V8.583a.285.285 0 00-.173-.26" fill="currentColor"/></svg>