<svg xmlns="http://www.w3.org/2000/svg" viewBox="0 0 24 24"><g fill="currentColor" fill-rule="evenodd" transform="translate(0 .18)"><path id="prefix__a" d="M21.23 8.148c-.05-.12-.143-.212-.263-.26-.12-.05-.25-.049-.368 0-.245.104-.36.385-.259.631.464 1.108.698 2.28.696 3.481 0 4.983-4.054 9.035-9.037 9.035h-.026c-1.805 0-3.54-.534-5.03-1.547L8.13 17.88c.115-.157.126-.365.028-.53-.098-.168-.287-.258-.478-.234l-3.075.399c-.13.017-.25.087-.328.193-.077.105-.108.239-.086.368l.53 3.057c.034.191.177.342.364.386.191.044.385-.027.5-.183l.788-1.07C8.027 21.4 9.958 22 11.968 22H12c5.514 0 10-4.486 10-10 .002-1.33-.258-2.627-.77-3.852m-5.959 1.181l-3.767 5.92c-.007.012-.02.016-.03.028-.03.04-.058.081-.1.113-.016.01-.033.016-.048.025l-.051.026c-.073.034-.148.056-.223.056h-.006c-.092-.002-.178-.03-.259-.075-.008-.005-.017-.003-.025-.008-.044-.027-.074-.065-.105-.1-.012-.013-.027-.018-.037-.032L9.005 13.13c-.178-.238-.13-.575.107-.753.239-.178.576-.13.755.107l1.147 1.53 3.35-5.263c.16-.25.49-.324.742-.166.251.16.325.492.165.744m-3.315-4.397c.101-.076.24-.076.341 0 1.802 1.351 3.758 2.484 5.827 3.374l.039.017c.104.044.173.148.173.26v3.437c0 2.19-1.085 4.112-3.135 5.56-1.529 1.082-3.037 1.516-3.1 1.533-.051.015-.106.015-.157 0-.06-.018-1.52-.452-3-1.535-1.98-1.449-3.026-3.37-3.026-5.557V8.583c0-.112.068-.215.172-.26l.04-.017c2.068-.89 4.024-2.023 5.826-3.374zM12.01 2c1.12 0 2.223.187 3.28.555.25.09.381.365.295.613-.087.249-.361.382-.61.298-.96-.334-1.964-.517-2.976-.501-4.982 0-9.035 4.053-9.035 9.035-.002 1.06.182 2.1.544 3.095.053.148.033.312-.057.442-.092.13-.24.206-.396.206-.202 0-.384-.127-.453-.318-.401-1.1-.605-2.253-.603-3.426C2 6.486 6.486 2 12 2z"/></g></svg>
