<svg xmlns="http://www.w3.org/2000/svg" viewBox="0 0 24 24"><path d="M12 0C5.383 0 0 5.383 0 12s5.383 12 12 12 12-5.383 12-12S18.617 0 12 0zm0 22.575C6.169 22.575 1.425 17.831 1.425 12 1.425 6.169 6.169 1.425 12 1.425c5.831 0 10.575 4.744 10.575 10.575 0 5.831-4.744 10.575-10.575 10.575zm5.657-7.968a.83.83 0 000-1.011.555.555 0 00-.892 0c-2.63 3.24-6.9 3.24-9.53 0a.555.555 0 00-.892 0 .83.83 0 000 1.011c1.515 1.867 3.545 2.879 5.657 2.879s4.142-1.012 5.657-2.879zm-4.295 3.85c-.037-.208-.174-.33-.306-.27a2.545 2.545 0 01-2.112 0c-.132-.06-.27.062-.306.27-.037.21.04.426.172.484.39.173.79.259 1.19.259.4 0 .8-.086 1.19-.259.132-.058.21-.274.172-.483zM6.857 7.2c-1.89 0-3.428 1.547-3.428 3.452 0 .367.293.662.653.662.36 0 .653-.295.653-.662 0-1.172.951-2.127 2.122-2.127 1.171 0 2.122.955 2.122 2.127 0 .367.294.662.653.662.36 0 .654-.295.654-.662 0-1.905-1.54-3.452-3.429-3.452zm10.286 0c-1.89 0-3.429 1.547-3.429 3.452 0 .367.294.662.654.662.36 0 .653-.295.653-.662 0-1.172.95-2.127 2.122-2.127 1.17 0 2.122.955 2.122 2.127 0 .367.293.662.653.662.36 0 .653-.295.653-.662 0-1.905-1.539-3.452-3.428-3.452z" fill="currentColor" fill-rule="nonzero"/></svg>