<?xml version="1.0" encoding="UTF-8"?>
<svg width="24px" height="24px" viewBox="0 0 24 24" version="1.1" xmlns="http://www.w3.org/2000/svg" xmlns:xlink="http://www.w3.org/1999/xlink">
    <!-- Generator: Sketch 51.2 (57519) - http://www.bohemiancoding.com/sketch -->
    <title>IconYouTube</title>
    <desc>Created with Sketch.</desc>
    <defs></defs>
    
    <g id="IconYouTube" transform="translate(-0.200000, 0.000000)">
        <path d="M14.686678,12.6095694 L9.79558631,15.8529514 C9.28259767,16.1956232 9.00000393,15.9182857 9.00000393,15.2402755 L9.00000393,8.76151161 C8.99880396,8.08283476 9.2723979,7.80616394 9.78778648,8.14416901 L14.684878,11.3735508 C15.1996666,11.7122226 14.9980711,12.342232 14.686678,12.6095694 M18.6665067,5.00024 L5.33317333,5.00024 C3.49250667,5.00024 1.99984,6.56684 1.99984,8.50024 L1.99984,15.50024 C1.99984,17.43294 3.49250667,19.00024 5.33317333,19.00024 L18.6665067,19.00024 C20.50784,19.00024 21.99984,17.43294 21.99984,15.50024 L21.99984,8.50024 C21.99984,6.56684 20.50784,5.00024 18.6665067,5.00024" id="Mask" fill="currentColor"></path>
    </g>
    
</svg>