<?xml version="1.0" encoding="UTF-8" standalone="no"?>
<svg width="22px" height="18px" viewBox="0 0 22 18" version="1.1" xmlns="http://www.w3.org/2000/svg" xmlns:xlink="http://www.w3.org/1999/xlink">
    <!-- Generator: Sketch 48.2 (47327) - http://www.bohemiancoding.com/sketch -->
    <title>error-icon</title>
    <desc>Created with Sketch.</desc>
    <defs>
        <path d="M18.3333333,11.9166667 L18.3333333,2.75 L7.16833333,2.75 L5.335,0.916666667 L18.3333333,0.916666667 C19.34625,0.916666667 20.1666667,1.73708333 20.1666667,2.75 L20.1666667,11.9166667 C20.1666667,12.9295833 19.34625,13.75 18.3333333,13.75 L22,13.75 L22,15.5833333 L20.0016667,15.5833333 L16.335,11.9166667 L18.3333333,11.9166667 Z M3.66666667,11.9166667 L11.6691667,11.9166667 L3.66666667,3.91416667 L3.66666667,11.9166667 Z M0.916666667,1.16416667 L2.09,0 L18.3333333,16.2433333 L17.1691667,17.4166667 L15.3358333,15.5833333 L0,15.5833333 L0,13.75 L3.66666667,13.75 C2.64916667,13.75 1.83333333,12.925 1.83333333,11.9166667 L1.83333333,2.75 C1.83333333,2.54833333 1.87,2.35583333 1.925,2.1725 L0.916666667,1.16416667 Z" id="path-1"></path>
    </defs>
    <g id="Page-1" stroke="none" stroke-width="1" fill="none" fill-rule="evenodd">
        <g id="error-icon">
            <g id="Color-/-White">
                <mask id="mask-2" fill="white">
                    <use xlink:href="#path-1"></use>
                </mask>
                <use id="Mask" fill="#000000" xlink:href="#path-1"></use>
                <rect id="Rectangle-20" fill="#FFFFFF" mask="url(#mask-2)" x="0" y="0" width="22" height="18"></rect>
            </g>
        </g>
    </g>
</svg>
