<svg width="768" height="88" xmlns="http://www.w3.org/2000/svg" xmlns:xlink="http://www.w3.org/1999/xlink"><defs><path id="a" d="M0 0h768v88H0z"/><path id="d" d="M0 .218h774.958V5.16H0z"/><path id="f" d="M0 .176h774.958V5.12H0z"/><path id="h" d="M0 154.973h774.958V0H0z"/><filter id="b"><feColorMatrix in="SourceGraphic" values="0 0 0 0 0.800000 0 0 0 0 0.800000 0 0 0 0 0.800000 0 0 0 1.000000 0"/></filter></defs><g fill="none" fill-rule="evenodd" opacity=".631"><mask id="c" fill="#fff"><use xlink:href="#a"/></mask><use fill="#DDD" xlink:href="#a"/><g filter="url(#b)" opacity=".913"><g mask="url(#c)"><g transform="translate(-4 16)"><g transform="translate(0 68.92)"><mask id="e" fill="#fff"><use xlink:href="#d"/></mask><path d="M773.28.218H1.678C.755.218 0 .912 0 1.76v1.856c0 .85.755 1.544 1.678 1.544H773.28c.923 0 1.678-.695 1.678-1.544V1.761c0-.849-.755-1.543-1.678-1.543" fill="#A6C8EF" mask="url(#e)"/></g><g transform="translate(0 28.515)"><mask id="g" fill="#fff"><use xlink:href="#f"/></mask><path d="M773.28.176H1.678C.755.176 0 .871 0 1.72v1.856c0 .849.755 1.543 1.678 1.543H773.28c.923 0 1.678-.694 1.678-1.543V1.72c0-.85-.755-1.544-1.678-1.544" fill="#A6C8EF" mask="url(#g)"/></g><mask id="i" fill="#fff"><use xlink:href="#h"/></mask><path fill="#A6C8EF" mask="url(#i)" d="M6.499 27.56h23.777V16.676H6.499zM34.076 27.56h10.206V16.676H34.076zM34.619 15.578h9.12v-3.296h-9.12z"/><path fill="#F3F9FF" mask="url(#i)" d="M51.014 27.56h21.28V14.78h-21.28z"/><path fill="#A6C8EF" mask="url(#i)" d="M65.616 27.56h6.678V14.78h-6.678zM168.706 27.56h23.777V16.676h-23.777zM196.283 27.56h10.206V16.676h-10.206zM196.826 15.578h9.12v-3.296h-9.12z"/><path fill="#92A8CC" mask="url(#i)" d="M718.798 27.56h23.777V16.676h-23.777z"/><path fill="#A6C8EF" mask="url(#i)" d="M746.376 27.56h10.206V16.676h-10.206zM746.919 15.578h9.12v-3.296h-9.12z"/><path fill="#92A8CC" mask="url(#i)" d="M304.855 27.56h23.778V16.676h-23.778zM332.433 27.56h10.206V16.676h-10.206zM332.976 15.578h9.12v-3.296h-9.12z"/><path fill="#F3F9FF" mask="url(#i)" d="M213.22 27.56h21.28V14.78h-21.28z"/><path fill="#A6C8EF" mask="url(#i)" d="M227.823 27.56h6.677V14.78h-6.677z"/><path fill="#F3F9FF" mask="url(#i)" d="M410.93 27.56h21.28V14.78h-21.28z"/><path fill="#A6C8EF" mask="url(#i)" d="M425.533 27.56h6.678V14.78h-6.678z"/><path fill="#F3F9FF" mask="url(#i)" d="M608.64 27.56h21.28V14.78h-21.28z"/><path fill="#A6C8EF" mask="url(#i)" d="M623.244 27.56h6.677V14.78h-6.677z"/><path d="M77.505 23.966c0 1.977 1.759 3.594 3.909 3.594h5.7c2.15 0 3.908-1.617 3.908-3.594V11.084H77.505v12.882z" fill="#92A8CC" mask="url(#i)"/><path fill="#768AB2" mask="url(#i)" d="M77.505 12.657h13.517v-1.573H77.505z"/><path d="M91.056 8.088H77.457c-.346 0-.63.262-.63.58v2.285c0 .32.284.58.63.58h13.6c.346 0 .63-.26.63-.58V8.67c0-.32-.284-.58-.63-.58" fill="#92A8CC" mask="url(#i)"/><path d="M437.748 23.966c0 1.977 1.759 3.594 3.908 3.594h5.7c2.15 0 3.91-1.617 3.91-3.594V11.084h-13.518v12.882z" fill="#A6C8EF" mask="url(#i)"/><path fill="#94B9DD" mask="url(#i)" d="M437.748 12.657h13.517v-1.573h-13.517z"/><path d="M451.299 8.088H437.7c-.347 0-.63.262-.63.58v2.285c0 .32.283.58.63.58H451.3c.347 0 .631-.26.631-.58V8.67c0-.32-.284-.58-.631-.58" fill="#A6C8EF" mask="url(#i)"/><path fill="#F3F9FF" mask="url(#i)" d="M119.903 27.036h12.377V2.322h-12.377z"/><path fill="#A6C8EF" mask="url(#i)" d="M119.903 6.029h12.377V2.322h-12.377zM120.771 25.963h10.423V8.088h-10.423z"/><path fill="#F3F9FF" mask="url(#i)" d="M122.454 23.866h7.057v-13.68h-7.057zM134.193 27.036h12.378V2.322h-12.378z"/><path fill="#A6C8EF" mask="url(#i)" d="M134.193 6.029h12.378V2.322h-12.378zM135.062 25.963h10.423V8.088h-10.423z"/><path fill="#F3F9FF" mask="url(#i)" d="M136.745 23.866h7.057v-13.68h-7.057z"/><path fill="#93BBED" mask="url(#i)" d="M260.124 27.56h14.006V3.97h-14.006z"/><path fill="#F3F9FF" mask="url(#i)" d="M260.124 8.238h14.006V3.969h-14.006zM260.124 27.56h14.006V16.102h-14.006zM271.687 10.56h-9.202c-.54 0-.977.402-.977.899v1.947c0 .496.437.898.977.898h9.202c.54 0 .977-.402.977-.898v-1.947c0-.497-.438-.9-.977-.9"/><path fill="#93BBED" mask="url(#i)" d="M276.735 27.56h14.006V3.97h-14.006z"/><path fill="#F3F9FF" mask="url(#i)" d="M276.735 8.238h14.006V3.969h-14.006zM276.735 27.56h14.006V16.102h-14.006zM288.352 10.56h-9.31c-.51 0-.923.38-.923.849v2.047c0 .468.414.848.923.848h9.31c.51 0 .923-.38.923-.848v-2.047c0-.47-.413-.85-.923-.85"/><path d="M371.62 11.758h-6.229c-.37 0-.672.277-.672.618v3.108c0 .341.301.618.672.618h6.23c.37 0 .671-.277.671-.618v-3.108c0-.341-.3-.618-.671-.618" fill="#A6C8EF" mask="url(#i)"/><path d="M371.926 13.93h-6.84c-1.12 0-2.036.843-2.036 1.872v9.886c0 1.03.916 1.873 2.036 1.873h6.84c1.12 0 2.036-.843 2.036-1.873v-9.886c0-1.03-.917-1.872-2.036-1.872" fill="#F3F9FF" mask="url(#i)"/><path d="M366.633 19.678v1.148c0 .71.632 1.342 1.405 1.342h5.924v-3.894h-5.924c-.773 0-1.405.693-1.405 1.404M384.73 11.758h-6.229c-.37 0-.671.277-.671.618v3.108c0 .341.3.618.671.618h6.23c.37 0 .671-.277.671-.618v-3.108c0-.341-.3-.618-.671-.618" fill="#A6C8EF" mask="url(#i)"/><path d="M385.036 13.93h-6.84c-1.12 0-2.036.843-2.036 1.872v9.886c0 1.03.916 1.873 2.036 1.873h6.84c1.12 0 2.036-.843 2.036-1.873v-9.886c0-1.03-.916-1.872-2.036-1.872" fill="#F3F9FF" mask="url(#i)"/><path d="M379.743 19.678v1.148c0 .71.632 1.342 1.404 1.342h5.925v-3.894h-5.925c-.772 0-1.404.693-1.404 1.404M397.84 11.758h-6.229c-.37 0-.671.277-.671.618v3.108c0 .341.3.618.671.618h6.23c.37 0 .672-.277.672-.618v-3.108c0-.341-.302-.618-.672-.618" fill="#A6C8EF" mask="url(#i)"/><path d="M398.146 13.93h-6.84c-1.12 0-2.036.843-2.036 1.872v9.886c0 1.03.917 1.873 2.036 1.873h6.84c1.12 0 2.036-.843 2.036-1.873v-9.886c0-1.03-.916-1.872-2.036-1.872" fill="#F3F9FF" mask="url(#i)"/><path d="M392.853 19.678v1.148c0 .71.632 1.342 1.405 1.342h5.924v-3.894h-5.924c-.773 0-1.405.693-1.405 1.404" fill="#A6C8EF" mask="url(#i)"/><path d="M440.896 17.375v2.571c0 .44.391.8.869.8h9.514v-4.17h-9.514c-.478 0-.869.36-.869.8M544.35 26.344c0 .63.56 1.144 1.244 1.144h8.018c.684 0 1.243-.515 1.243-1.144V13.185H544.35v13.159z" fill="#F3F9FF" mask="url(#i)"/><path fill="#A6C8EF" mask="url(#i)" d="M544.35 14.408h10.505v-1.223H544.35z"/><path d="M554.741 10.857h-10.287c-.347 0-.631.261-.631.58v1.517c0 .319.284.58.63.58h10.288c.347 0 .631-.261.631-.58v-1.516c0-.32-.284-.581-.63-.581" fill="#F3F9FF" mask="url(#i)"/><path d="M546.797 19.572v1.998c0 .342.304.621.675.621h7.394v-3.24h-7.394c-.371 0-.675.28-.675.621" fill="#A6C8EF" mask="url(#i)"/><path d="M702.432 26.344c0 .63.56 1.144 1.244 1.144h8.017c.684 0 1.244-.515 1.244-1.144V13.185h-10.505v13.159z" fill="#F3F9FF" mask="url(#i)"/><path fill="#A6C8EF" mask="url(#i)" d="M702.431 14.408h10.506v-1.223H702.43z"/><path d="M712.823 10.857h-10.288c-.347 0-.631.261-.631.58v1.517c0 .319.284.58.631.58h10.288c.347 0 .63-.261.63-.58v-1.516c0-.32-.283-.581-.63-.581" fill="#F3F9FF" mask="url(#i)"/><path d="M704.879 19.572v1.998c0 .342.303.621.675.621h7.393v-3.24h-7.393c-.372 0-.675.28-.675.621M490.297 22.468h-8.143c-.42 0-.76.313-.76.699v3.694c0 .387.34.7.76.7h8.143c.42 0 .76-.313.76-.7v-3.694c0-.386-.34-.7-.76-.7" fill="#A6C8EF" mask="url(#i)"/><path d="M492.418 0h-12.131c-.41 0-.734.315-.712.69l1.267 21.757c.02.347.333.62.712.62h9.482c.378 0 .69-.27.712-.617L493.13.694c.024-.377-.302-.694-.712-.694" fill="#F3F9FF" mask="url(#i)"/><path d="M490.202 7.858H479.98l.266 4.318h9.956c.65 0 1.09-.457 1.09-1.055V8.725c0-.597-.44-.867-1.09-.867M506.583 22.468h-8.143c-.42 0-.76.313-.76.699v3.694c0 .387.34.7.76.7h8.143c.42 0 .76-.313.76-.7v-3.694c0-.386-.34-.7-.76-.7" fill="#A6C8EF" mask="url(#i)"/><path d="M508.704 0h-12.132c-.408 0-.733.315-.712.69l1.268 21.757c.02.347.333.62.712.62h9.482c.377 0 .69-.27.711-.617L509.416.694c.024-.377-.302-.694-.712-.694" fill="#F3F9FF" mask="url(#i)"/><path d="M506.488 7.858h-10.223l.267 4.318h9.956c.65 0 1.236-.457 1.236-1.055V8.725c0-.597-.587-.867-1.236-.867M522.869 22.468h-8.144c-.419 0-.76.313-.76.699v3.694c0 .387.341.7.76.7h8.144c.419 0 .76-.313.76-.7v-3.694c0-.386-.341-.7-.76-.7" fill="#A6C8EF" mask="url(#i)"/><path d="M524.99 0h-12.132c-.409 0-.733.315-.712.69l1.268 21.757c.02.347.333.62.712.62h9.482c.377 0 .69-.27.711-.617L525.702.694C525.725.317 525.4 0 524.99 0" fill="#F3F9FF" mask="url(#i)"/><path d="M522.774 7.858H512.55l.267 4.318h9.956c.65 0 1.047-.457 1.047-1.055V8.725c0-.597-.398-.867-1.047-.867M560.326 27.488h42.777V4.394h-42.777z" fill="#A6C8EF" mask="url(#i)"/><path fill="#F3F9FF" mask="url(#i)" d="M646.152 27.488h42.778V12.195h-42.778z"/><path fill="#A6C8EF" mask="url(#i)" d="M646.152 27.488h42.778v-4.421h-42.778zM683.664 16.077h-21.715c-.477 0-.868.36-.868.799v2.896c0 .439.39.798.868.798h21.715c.478 0 .868-.36.868-.798v-2.896c0-.44-.39-.8-.868-.8"/><path fill="#F3F9FF" mask="url(#i)" d="M44.282 67.404h23.777V56.519H44.282z"/><path fill="#A6C8EF" mask="url(#i)" d="M30.276 67.404h10.206V56.519H30.276zM30.819 55.42h9.12v-3.295h-9.12z"/><path fill="#F3F9FF" mask="url(#i)" d="M16.162 67.404h10.205V56.519H16.162zM16.705 55.42h9.12v-3.295h-9.12zM83.368 67.404h21.28V54.622h-21.28z"/><path fill="#92A8CC" mask="url(#i)" d="M97.97 67.404h6.678V54.622h-6.677z"/><path fill="#A6C8EF" mask="url(#i)" d="M201.603 67.404h23.777V56.519h-23.777zM229.18 67.404h10.206V56.519H229.18zM229.723 55.42h9.12v-3.295h-9.12z"/><path fill="#92A8CC" mask="url(#i)" d="M633.775 67.404h23.777V56.519h-23.777z"/><path fill="#A6C8EF" mask="url(#i)" d="M619.769 67.404h10.206V56.519H619.77zM620.312 55.42h9.12v-3.295h-9.12z"/><path fill="#92A8CC" mask="url(#i)" d="M334.387 67.404h39.738V52.125h-39.738zM377.924 67.404h10.206V56.519h-10.206zM378.467 55.42h9.12v-3.295h-9.12z"/><path fill="#F3F9FF" mask="url(#i)" d="M246.118 67.404h21.28V54.622h-21.28z"/><path fill="#A6C8EF" mask="url(#i)" d="M260.72 67.404h6.678V54.622h-6.677z"/><path fill="#F3F9FF" mask="url(#i)" d="M531.5 67.404h21.28V54.622H531.5z"/><path fill="#A6C8EF" mask="url(#i)" d="M546.103 67.404h6.677V54.622h-6.677z"/><path d="M427.108 63.809c0 1.977 1.759 3.594 3.908 3.594h5.7c2.15 0 3.909-1.617 3.909-3.594V50.927h-13.517V63.81z" fill="#F3F9FF" mask="url(#i)"/><path fill="#A6C8EF" mask="url(#i)" d="M427.107 52.5h13.518v-1.573h-13.518z"/><path d="M440.659 47.931H427.06c-.347 0-.631.262-.631.58v2.285c0 .32.284.58.631.58h13.599c.347 0 .631-.26.631-.58v-2.284c0-.32-.284-.58-.631-.58" fill="#F3F9FF" mask="url(#i)"/><path d="M293.666 54.297h-6.23c-.37 0-.672.277-.672.618v3.108c0 .342.301.618.672.618h6.23c.37 0 .671-.276.671-.618v-3.108c0-.341-.3-.618-.671-.618" fill="#A6C8EF" mask="url(#i)"/><path d="M293.971 56.47h-6.84c-1.12 0-2.036.842-2.036 1.871v7.19c0 1.03.916 1.872 2.036 1.872h6.84c1.12 0 2.036-.842 2.036-1.872v-7.19c0-1.03-.916-1.872-2.036-1.872" fill="#F3F9FF" mask="url(#i)"/><path d="M288.678 61.319v1.148c0 .71.632 1.342 1.405 1.342h5.924v-3.895h-5.924c-.773 0-1.405.694-1.405 1.405M306.776 54.297h-6.23c-.37 0-.671.277-.671.618v3.108c0 .342.3.618.671.618h6.23c.37 0 .671-.276.671-.618v-3.108c0-.341-.3-.618-.671-.618" fill="#A6C8EF" mask="url(#i)"/><path d="M307.081 56.47h-6.84c-1.12 0-2.036.842-2.036 1.871v7.19c0 1.03.916 1.872 2.036 1.872h6.84c1.12 0 2.036-.842 2.036-1.872v-7.19c0-1.03-.916-1.872-2.036-1.872" fill="#F3F9FF" mask="url(#i)"/><path d="M301.788 61.319v1.148c0 .71.632 1.342 1.405 1.342h5.924v-3.895h-5.924c-.773 0-1.405.694-1.405 1.405M319.886 54.297h-6.23c-.37 0-.671.277-.671.618v3.108c0 .342.3.618.672.618h6.229c.37 0 .672-.276.672-.618v-3.108c0-.341-.301-.618-.672-.618" fill="#A6C8EF" mask="url(#i)"/><path d="M320.191 56.47h-6.84c-1.12 0-2.036.842-2.036 1.871v7.19c0 1.03.917 1.872 2.036 1.872h6.84c1.12 0 2.036-.842 2.036-1.872v-7.19c0-1.03-.916-1.872-2.036-1.872" fill="#F3F9FF" mask="url(#i)"/><path d="M314.898 61.319v1.148c0 .71.632 1.342 1.405 1.342h5.924v-3.895h-5.924c-.773 0-1.405.694-1.405 1.405M430.256 57.218v2.571c0 .44.391.8.87.8h9.513v-4.17h-9.514c-.478 0-.869.36-.869.8" fill="#A6C8EF" mask="url(#i)"/><path d="M444.18 63.809c0 1.977 1.76 3.594 3.909 3.594h5.7c2.15 0 3.91-1.617 3.91-3.594V50.927H444.18V63.81z" fill="#F3F9FF" mask="url(#i)"/><path fill="#A6C8EF" mask="url(#i)" d="M444.181 52.5h13.517v-1.573h-13.517z"/><path d="M457.732 47.931h-13.599c-.347 0-.63.262-.63.58v2.285c0 .32.283.58.63.58h13.599c.347 0 .631-.26.631-.58v-2.284c0-.32-.284-.58-.631-.58" fill="#F3F9FF" mask="url(#i)"/><path d="M447.33 57.218v2.571c0 .44.39.8.868.8h9.514v-4.17h-9.514c-.478 0-.869.36-.869.8" fill="#A6C8EF" mask="url(#i)"/><path d="M461.254 63.809c0 1.977 1.759 3.594 3.908 3.594h5.7c2.15 0 3.91-1.617 3.91-3.594V50.927h-13.518V63.81z" fill="#F3F9FF" mask="url(#i)"/><path fill="#A6C8EF" mask="url(#i)" d="M461.254 52.5h13.517v-1.573h-13.517z"/><path d="M474.805 47.931h-13.599c-.347 0-.631.262-.631.58v2.285c0 .32.284.58.631.58h13.599c.347 0 .631-.26.631-.58v-2.284c0-.32-.284-.58-.631-.58" fill="#F3F9FF" mask="url(#i)"/><path d="M464.402 57.218v2.571c0 .44.391.8.87.8h9.513v-4.17h-9.514c-.478 0-.869.36-.869.8" fill="#A6C8EF" mask="url(#i)"/><path d="M663.414 66.187c0 .63.56 1.144 1.244 1.144h8.017c.684 0 1.244-.515 1.244-1.144V53.028h-10.505v13.159z" fill="#F3F9FF" mask="url(#i)"/><path fill="#A6C8EF" mask="url(#i)" d="M663.414 54.25h10.505v-1.222h-10.505z"/><path d="M673.816 50.7h-10.288c-.347 0-.63.261-.63.58v1.517c0 .32.283.58.63.58h10.288c.347 0 .63-.26.63-.58V51.28c0-.319-.283-.58-.63-.58" fill="#F3F9FF" mask="url(#i)"/><path d="M670.797 58.794h-7.394v3.24h7.394c.371 0 .675-.279.675-.62v-1.999c0-.341-.304-.62-.675-.62" fill="#A6C8EF" mask="url(#i)"/><path fill="#F3F9FF" mask="url(#i)" d="M687.421 67.331h42.778V52.04H687.42z"/><path d="M714.401 55.92h-21.714c-.478 0-.869.36-.869.799v2.896c0 .44.391.798.869.798h21.714c.478 0 .869-.359.869-.798v-2.896c0-.44-.391-.8-.869-.8" fill="#A6C8EF" mask="url(#i)"/><path fill="#92A8CC" mask="url(#i)" d="M120.771 67.004h41.855V47.632H120.77zM165.612 67.004h13.951v-9.686h-13.951zM166.751 56.557h11.672v-2.784h-11.672z"/><path d="M566.166 55.056c-.093-.08-.09-.191-.09-.308v-.211c0-.06-.04-.11.025-.11.115 0 .115-.085.115-.192V52.4h-4.168v1.835c0 .107-.001.193.114.193.066 0 .024.049.024.109v.211c0 .117-.01.228-.103.308l-.368.357c-.618.527-.918 1.266-.918 2.04v9.354c0 .39.285.737.709.737h5.252c.423 0 .708-.348.708-.737v-9.353c0-.775-.321-1.514-.939-2.041l-.361-.357z" fill="#F3F9FF" mask="url(#i)"/><path d="M561.943 54.235c0 .107.094.193.21.193.033 0 .063.013.085.033h3.788a.121.121 0 01.084-.033c.116 0 .21-.086.21-.193v-2.122h-4.377v2.122z" fill="#000" mask="url(#i)"/><path d="M561.177 66.595c0 .366.284.615.654.615h4.601c.37 0 .654-.249.654-.615V57.9h-5.909v8.695z" fill="#A6C8EF" mask="url(#i)"/><path d="M566.293 53.12h-4.323c-.136 0-.246.1-.246.226v.403c0 .125.11.226.246.226h4.323c.136 0 .246-.101.246-.226v-.403c0-.125-.11-.227-.246-.227" fill="#92A8CC" mask="url(#i)"/><path d="M566.494 52.113h-4.724c-.116 0-.21.086-.21.193v.646c0 .106.094.193.21.193h4.724c.116 0 .21-.087.21-.193v-.646c0-.107-.094-.193-.21-.193" fill="#B2CEED" mask="url(#i)"/><path d="M564.277 52.381h-2.225c-.1 0-.182.076-.182.168 0 .092.082.168.182.168h2.225c.101 0 .183-.076.183-.168 0-.092-.082-.168-.183-.168M565.317 52.381h-.474c-.1 0-.182.076-.182.168 0 .092.082.168.182.168h.474c.1 0 .183-.076.183-.168 0-.092-.083-.168-.183-.168M562.444 58.27c-.145 0-.264.109-.264.242v3.624c0 .134.119.243.264.243.146 0 .265-.11.265-.243v-3.624c0-.133-.119-.243-.265-.243M562.444 62.664c-.145 0-.264.11-.264.243v.89c0 .133.119.242.264.242.146 0 .265-.11.265-.243v-.889c0-.133-.119-.243-.265-.243M562.444 64.442c-.145 0-.264.11-.264.244v.033c0 .134.119.243.264.243.146 0 .265-.11.265-.243v-.033c0-.135-.119-.244-.265-.244" fill="#FFF" mask="url(#i)"/><path d="M574.2 55.056c-.093-.08-.089-.191-.089-.308v-.211c0-.06-.041-.11.024-.11.116 0 .115-.085.115-.192V52.4h-4.168v1.835c0 .107-.001.193.115.193.065 0 .024.049.024.109v.211c0 .117-.01.228-.104.308l-.368.357c-.617.527-.918 1.266-.918 2.04v9.354c0 .39.285.737.709.737h5.252c.423 0 .709-.348.709-.737v-9.353c0-.775-.322-1.514-.94-2.041l-.361-.357z" fill="#F3F9FF" mask="url(#i)"/><path d="M569.977 54.235c0 .107.094.193.21.193.034 0 .063.013.085.033h3.788a.121.121 0 01.085-.033c.115 0 .21-.086.21-.193v-2.122h-4.378v2.122z" fill="#000" mask="url(#i)"/><path d="M569.211 66.595c0 .366.284.615.654.615h4.602c.37 0 .654-.249.654-.615V57.9h-5.91v8.695z" fill="#A6C8EF" mask="url(#i)"/><path d="M574.327 53.12h-4.322c-.136 0-.246.1-.246.226v.403c0 .125.11.226.246.226h4.322c.136 0 .246-.101.246-.226v-.403c0-.125-.11-.227-.246-.227" fill="#92A8CC" mask="url(#i)"/><path d="M574.528 52.113h-4.724c-.116 0-.21.086-.21.193v.646c0 .106.094.193.21.193h4.724c.116 0 .21-.087.21-.193v-.646c0-.107-.094-.193-.21-.193" fill="#B2CEED" mask="url(#i)"/><path d="M572.312 52.381h-2.225c-.1 0-.183.076-.183.168 0 .092.082.168.183.168h2.225c.1 0 .182-.076.182-.168 0-.092-.082-.168-.182-.168M573.352 52.381h-.475c-.1 0-.182.076-.182.168 0 .092.082.168.182.168h.475c.1 0 .182-.076.182-.168 0-.092-.082-.168-.182-.168M570.479 58.27c-.146 0-.264.109-.264.242v3.624c0 .134.118.243.264.243.145 0 .264-.11.264-.243v-3.624c0-.133-.119-.243-.264-.243M570.479 62.664c-.146 0-.264.11-.264.243v.89c0 .133.118.242.264.242.145 0 .264-.11.264-.243v-.889c0-.133-.119-.243-.264-.243M570.479 64.442c-.146 0-.264.11-.264.244v.033c0 .134.118.243.264.243.145 0 .264-.11.264-.243v-.033c0-.135-.119-.244-.264-.244" fill="#FFF" mask="url(#i)"/><path d="M582.234 55.056c-.092-.08-.089-.191-.089-.308v-.211c0-.06-.041-.11.025-.11.115 0 .114-.085.114-.192V52.4h-4.168v1.835c0 .107 0 .193.115.193.066 0 .024.049.024.109v.211c0 .117-.01.228-.103.308l-.369.357c-.617.527-.918 1.266-.918 2.04v9.354c0 .39.286.737.709.737h5.253c.423 0 .708-.348.708-.737v-9.353c0-.775-.322-1.514-.939-2.041l-.362-.357z" fill="#F3F9FF" mask="url(#i)"/><path d="M578.012 54.235c0 .107.093.193.21.193.033 0 .063.013.085.033h3.787a.121.121 0 01.085-.033c.116 0 .21-.086.21-.193v-2.122h-4.377v2.122z" fill="#000" mask="url(#i)"/><path d="M577.246 66.595c0 .366.283.615.654.615h4.601c.37 0 .654-.249.654-.615V57.9h-5.91v8.695z" fill="#A6C8EF" mask="url(#i)"/><path d="M582.362 53.12h-4.323c-.136 0-.246.1-.246.226v.403c0 .125.11.226.246.226h4.323c.135 0 .246-.101.246-.226v-.403c0-.125-.11-.227-.246-.227" fill="#92A8CC" mask="url(#i)"/><path d="M582.562 52.113h-4.724c-.116 0-.21.086-.21.193v.646c0 .106.094.193.21.193h4.724c.116 0 .21-.087.21-.193v-.646c0-.107-.094-.193-.21-.193" fill="#B2CEED" mask="url(#i)"/><path d="M580.346 52.381h-2.225c-.1 0-.182.076-.182.168 0 .092.081.168.182.168h2.225c.1 0 .183-.076.183-.168 0-.092-.083-.168-.183-.168M581.386 52.381h-.475c-.1 0-.182.076-.182.168 0 .092.082.168.182.168h.475c.1 0 .182-.076.182-.168 0-.092-.082-.168-.182-.168M578.513 58.27c-.145 0-.264.109-.264.242v3.624c0 .134.119.243.264.243.146 0 .265-.11.265-.243v-3.624c0-.133-.12-.243-.265-.243M578.513 62.664c-.145 0-.264.11-.264.243v.89c0 .133.119.242.264.242.146 0 .265-.11.265-.243v-.889c0-.133-.12-.243-.265-.243M578.513 64.442c-.145 0-.264.11-.264.244v.033c0 .134.119.243.264.243.146 0 .265-.11.265-.243v-.033c0-.135-.12-.244-.265-.244" fill="#FFF" mask="url(#i)"/><path d="M590.269 55.056c-.093-.08-.09-.191-.09-.308v-.211c0-.06-.04-.11.025-.11.115 0 .115-.085.115-.192V52.4h-4.169v1.835c0 .107 0 .193.115.193.066 0 .025.049.025.109v.211c0 .117-.01.228-.104.308l-.368.357c-.617.527-.918 1.266-.918 2.04v9.354c0 .39.286.737.708.737h5.253c.423 0 .708-.348.708-.737v-9.353c0-.775-.322-1.514-.939-2.041l-.361-.357z" fill="#F3F9FF" mask="url(#i)"/><path d="M586.046 54.235c0 .107.094.193.21.193.034 0 .063.013.085.033h3.787a.123.123 0 01.086-.033c.115 0 .21-.086.21-.193v-2.122h-4.378v2.122z" fill="#000" mask="url(#i)"/><path d="M585.28 66.595c0 .366.284.615.654.615h4.601c.37 0 .654-.249.654-.615V57.9h-5.909v8.695z" fill="#A6C8EF" mask="url(#i)"/><path d="M590.396 53.12h-4.323c-.136 0-.246.1-.246.226v.403c0 .125.11.226.246.226h4.323c.136 0 .246-.101.246-.226v-.403c0-.125-.11-.227-.246-.227" fill="#92A8CC" mask="url(#i)"/><path d="M590.596 52.113h-4.723c-.116 0-.21.086-.21.193v.646c0 .106.094.193.21.193h4.723c.116 0 .21-.087.21-.193v-.646c0-.107-.094-.193-.21-.193" fill="#B2CEED" mask="url(#i)"/><path d="M588.38 52.381h-2.225c-.1 0-.182.076-.182.168 0 .092.082.168.182.168h2.226c.1 0 .182-.076.182-.168 0-.092-.082-.168-.182-.168M589.42 52.381h-.474c-.1 0-.182.076-.182.168 0 .092.082.168.182.168h.474c.1 0 .182-.076.182-.168 0-.092-.081-.168-.182-.168M586.548 58.27c-.146 0-.265.109-.265.242v3.624c0 .134.119.243.265.243.145 0 .264-.11.264-.243v-3.624c0-.133-.119-.243-.264-.243M586.548 62.664c-.146 0-.265.11-.265.243v.89c0 .133.119.242.265.242.145 0 .264-.11.264-.243v-.889c0-.133-.119-.243-.264-.243M586.548 64.442c-.146 0-.265.11-.265.244v.033c0 .134.119.243.265.243.145 0 .264-.11.264-.243v-.033c0-.135-.119-.244-.264-.244" fill="#FFF" mask="url(#i)"/><path d="M110.198 6.535h-9.58c-.457 0-.831.344-.831.765v2.204c0 .421.374.765.831.765h9.58c.458 0 .832-.344.832-.765V7.3c0-.42-.374-.765-.832-.765" fill="#E7EFF7" mask="url(#i)"/><path d="M108.835 24.254h-6.854c-.664 0-1.207.5-1.207 1.111v.79c0 .612.543 1.111 1.207 1.111h6.854c.664 0 1.208-.5 1.208-1.11v-.79c0-.612-.544-1.112-1.208-1.112" fill="#869DBF" mask="url(#i)"/><path d="M110.363 10.304h-9.91c-.29 0-.525.22-.52.488l.324 15.16c.006.26.237.469.52.469h9.262c.283 0 .514-.208.52-.468l.324-15.16c.005-.269-.229-.489-.52-.489" fill="#92A8CC" mask="url(#i)"/><path d="M110.363 10.304h-9.91c-.29 0-.525.22-.52.488l.024 1.098h10.902l.024-1.098c.005-.268-.229-.488-.52-.488" fill="#000" mask="url(#i)"/><path d="M110.808 13.299h-10.8c-.074 0-.134.056-.133.125l.214 10.006c.001.067.06.12.133.12h10.373c.072 0 .131-.053.133-.12l.213-10.006c.002-.069-.058-.125-.133-.125" fill="#F4F4F4" mask="url(#i)"/><path d="M110.94 6.817H99.876c-.457 0-.831.344-.831.765v2.697c0 .421.374.765.831.765h11.066c.457 0 .831-.344.831-.765V7.582c0-.42-.374-.765-.831-.765" fill="#F3F9FF" mask="url(#i)"/><path d="M101.505 12.421h-.01c-.275.009-.49.22-.482.472l.192 5.571c.01.263.258.466.542.441h.01c.263-.023.462-.228.453-.47l-.192-5.57c-.009-.254-.239-.452-.513-.444M101.72 19.651l-.01.001c-.26.024-.456.23-.447.47l.076 2.197c.009.26.25.46.531.443a.11.11 0 01.01 0c.268-.017.472-.226.464-.472l-.076-2.198c-.01-.265-.261-.466-.548-.44M101.874 23.502h-.01c-.27.016-.477.224-.468.472l.02.574c.008.253.238.451.513.443h.01c.275-.008.49-.22.481-.472l-.02-.574c-.008-.258-.246-.46-.526-.443" fill="#FFF" mask="url(#i)"/><path d="M104.63 15.694v.45c0 .697.594 1.275 1.353 1.275h4.873l.064-3.084h-4.937c-.759 0-1.353.662-1.353 1.36" fill="#828282" mask="url(#i)"/><path d="M99.786 7.41c-.11 0-.2.083-.2.184v2.65c0 .101.09.184.2.184.11 0 .2-.083.2-.184v-2.65c0-.1-.09-.183-.2-.183M100.584 7.41c-.11 0-.2.083-.2.184v2.65c0 .101.09.184.2.184.11 0 .2-.083.2-.184v-2.65c0-.1-.09-.183-.2-.183M101.381 7.41c-.11 0-.2.083-.2.184v2.65c0 .101.09.184.2.184.11 0 .2-.083.2-.184v-2.65c0-.1-.09-.183-.2-.183M102.179 7.41c-.11 0-.2.083-.2.184v2.65c0 .101.09.184.2.184.11 0 .2-.083.2-.184v-2.65c0-.1-.09-.183-.2-.183M102.977 7.41c-.11 0-.2.083-.2.184v2.65c0 .101.09.184.2.184.11 0 .2-.083.2-.184v-2.65c0-.1-.09-.183-.2-.183M103.774 7.41c-.11 0-.199.083-.199.184v2.65c0 .101.09.184.2.184.109 0 .199-.083.199-.184v-2.65c0-.1-.09-.183-.2-.183M104.572 7.41c-.11 0-.2.083-.2.184v2.65c0 .101.09.184.2.184.11 0 .2-.083.2-.184v-2.65c0-.1-.09-.183-.2-.183M105.37 7.41c-.11 0-.2.083-.2.184v2.65c0 .101.09.184.2.184.11 0 .2-.083.2-.184v-2.65c0-.1-.09-.183-.2-.183M106.168 7.41c-.11 0-.2.083-.2.184v2.65c0 .101.09.184.2.184.11 0 .2-.083.2-.184v-2.65c0-.1-.09-.183-.2-.183M106.965 7.41c-.11 0-.2.083-.2.184v2.65c0 .101.09.184.2.184.11 0 .2-.083.2-.184v-2.65c0-.1-.09-.183-.2-.183M107.763 7.41c-.11 0-.2.083-.2.184v2.65c0 .101.09.184.2.184.11 0 .2-.083.2-.184v-2.65c0-.1-.09-.183-.2-.183M108.56 7.41c-.109 0-.199.083-.199.184v2.65c0 .101.09.184.2.184.11 0 .2-.083.2-.184v-2.65c0-.1-.09-.183-.2-.183M109.359 7.41c-.11 0-.2.083-.2.184v2.65c0 .101.09.184.2.184.11 0 .199-.083.199-.184v-2.65c0-.1-.09-.183-.2-.183M110.156 7.41c-.11 0-.2.083-.2.184v2.65c0 .101.09.184.2.184.11 0 .2-.083.2-.184v-2.65c0-.1-.09-.183-.2-.183M110.954 7.41c-.11 0-.2.083-.2.184v2.65c0 .101.09.184.2.184.11 0 .2-.083.2-.184v-2.65c0-.1-.09-.183-.2-.183" fill="#E7EFF7" mask="url(#i)"/><path fill="#92A8CC" mask="url(#i)" d="M488.288 67.544h30.475v-22.01h-30.475z"/></g></g></g></g></svg>
