<svg width="616" height="79" xmlns="http://www.w3.org/2000/svg" xmlns:xlink="http://www.w3.org/1999/xlink"><defs><path d="M8 0h600a8 8 0 018 8v71H0V8a8 8 0 018-8z" id="a"/><path id="d" d="M0 .17h606.967v3.872H0z"/><path id="f" d="M0 .138h606.967V4.01H0z"/><path id="h" d="M0 121.386h606.967V0H0z"/><filter id="b"><feColorMatrix in="SourceGraphic" values="0 0 0 0 0.800000 0 0 0 0 0.800000 0 0 0 0 0.800000 0 0 0 1.000000 0"/></filter></defs><g fill="none" fill-rule="evenodd" opacity=".631"><mask id="c" fill="#fff"><use xlink:href="#a"/></mask><use fill="#DDD" xlink:href="#a"/><g filter="url(#b)" opacity=".913"><g mask="url(#c)"><g transform="translate(3 19)"><g transform="translate(0 53.983)"><mask id="e" fill="#fff"><use xlink:href="#d"/></mask><path d="M605.653.17H1.314C.591.17 0 .715 0 1.38v1.453c0 .665.591 1.21 1.314 1.21h604.339c.722 0 1.314-.545 1.314-1.21V1.38c0-.665-.592-1.208-1.314-1.208" fill="#A6C8EF" mask="url(#e)"/></g><g transform="translate(0 22.335)"><mask id="g" fill="#fff"><use xlink:href="#f"/></mask><path d="M605.653.138H1.314C.591.138 0 .682 0 1.347v1.454C0 3.466.591 4.01 1.314 4.01h604.339c.722 0 1.314-.544 1.314-1.21V1.348c0-.665-.592-1.209-1.314-1.209" fill="#A6C8EF" mask="url(#g)"/></g><mask id="i" fill="#fff"><use xlink:href="#h"/></mask><path fill="#A6C8EF" mask="url(#i)" d="M5.09 21.587h18.623v-8.525H5.09zM26.69 21.587h7.993v-8.525h-7.994zM27.114 12.202h7.144V9.62h-7.144z"/><path fill="#F3F9FF" mask="url(#i)" d="M39.955 21.587h16.667V11.576H39.955z"/><path fill="#A6C8EF" mask="url(#i)" d="M51.392 21.587h5.23V11.576h-5.23zM132.135 21.587h18.623v-8.525h-18.623zM153.734 21.587h7.994v-8.525h-7.994zM154.16 12.202h7.142V9.62h-7.143z"/><path fill="#92A8CC" mask="url(#i)" d="M562.981 21.587h18.623v-8.525h-18.623z"/><path fill="#A6C8EF" mask="url(#i)" d="M584.58 21.587h7.994v-8.525h-7.993zM585.006 12.202h7.143V9.62h-7.143z"/><path fill="#92A8CC" mask="url(#i)" d="M238.77 21.587h18.623v-8.525h-18.622zM260.37 21.587h7.993v-8.525h-7.993zM260.795 12.202h7.143V9.62h-7.143z"/><path fill="#F3F9FF" mask="url(#i)" d="M167 21.587h16.667V11.576H167z"/><path fill="#A6C8EF" mask="url(#i)" d="M178.437 21.587h5.23V11.576h-5.23z"/><path fill="#F3F9FF" mask="url(#i)" d="M321.851 21.587h16.667V11.576h-16.667z"/><path fill="#A6C8EF" mask="url(#i)" d="M333.289 21.587h5.23V11.576h-5.23z"/><path fill="#F3F9FF" mask="url(#i)" d="M476.703 21.587h16.667V11.576h-16.667z"/><path fill="#A6C8EF" mask="url(#i)" d="M488.14 21.587h5.23V11.576h-5.23z"/><path d="M60.704 18.772c0 1.548 1.378 2.815 3.061 2.815h4.465c1.684 0 3.06-1.267 3.06-2.815V8.682H60.705v10.09z" fill="#92A8CC" mask="url(#i)"/><path fill="#768AB2" mask="url(#i)" d="M60.704 9.914H71.29V8.682H60.704z"/><path d="M71.318 6.335H60.667c-.272 0-.494.205-.494.455v1.79c0 .25.222.454.494.454h10.65c.272 0 .495-.205.495-.455V6.79c0-.25-.223-.455-.494-.455" fill="#92A8CC" mask="url(#i)"/><path d="M342.855 18.772c0 1.548 1.378 2.815 3.062 2.815h4.464c1.684 0 3.062-1.267 3.062-2.815V8.682h-10.588v10.09z" fill="#A6C8EF" mask="url(#i)"/><path fill="#94B9DD" mask="url(#i)" d="M342.855 9.914h10.588V8.682h-10.588z"/><path d="M353.469 6.335h-10.65c-.273 0-.495.205-.495.455v1.79c0 .25.222.454.494.454h10.65c.273 0 .495-.205.495-.455V6.79c0-.25-.222-.455-.494-.455" fill="#A6C8EF" mask="url(#i)"/><path fill="#F3F9FF" mask="url(#i)" d="M93.91 21.177h9.695V1.819h-9.694z"/><path fill="#A6C8EF" mask="url(#i)" d="M93.91 4.722h9.695V1.818h-9.694zM94.591 20.336h8.164v-14H94.59z"/><path fill="#F3F9FF" mask="url(#i)" d="M95.91 18.693h5.527V7.978h-5.528zM105.104 21.177h9.694V1.819h-9.694z"/><path fill="#A6C8EF" mask="url(#i)" d="M105.104 4.722h9.694V1.818h-9.694zM105.784 20.336h8.164v-14h-8.164z"/><path fill="#F3F9FF" mask="url(#i)" d="M107.102 18.693h5.527V7.978h-5.527z"/><path fill="#93BBED" mask="url(#i)" d="M203.736 21.587h10.97V3.11h-10.97z"/><path fill="#F3F9FF" mask="url(#i)" d="M203.736 6.453h10.97V3.109h-10.97zM203.736 21.587h10.97v-8.975h-10.97zM212.792 8.271h-7.207c-.423 0-.765.315-.765.704V10.5c0 .389.342.704.765.704h7.207c.423 0 .765-.315.765-.704V8.975c0-.389-.342-.704-.765-.704"/><path fill="#93BBED" mask="url(#i)" d="M216.746 21.587h10.97V3.11h-10.97z"/><path fill="#F3F9FF" mask="url(#i)" d="M216.746 6.453h10.97V3.109h-10.97zM216.746 21.587h10.97v-8.975h-10.97zM225.845 8.271h-7.292c-.4 0-.723.298-.723.665v1.603c0 .368.324.665.723.665h7.292c.4 0 .723-.297.723-.665V8.936c0-.367-.324-.665-.723-.665"/><path d="M291.063 9.21h-4.88c-.29 0-.525.217-.525.484v2.434c0 .268.235.484.526.484h4.879c.29 0 .526-.216.526-.484V9.694c0-.267-.236-.484-.526-.484" fill="#A6C8EF" mask="url(#i)"/><path d="M291.302 10.911h-5.357c-.877 0-1.595.66-1.595 1.467v7.743c0 .806.718 1.466 1.595 1.466h5.357c.877 0 1.594-.66 1.594-1.466v-7.743c0-.807-.717-1.467-1.594-1.467" fill="#F3F9FF" mask="url(#i)"/><path d="M287.157 15.413v.9c0 .556.495 1.05 1.1 1.05h4.64v-3.05h-4.64c-.605 0-1.1.544-1.1 1.1M301.331 9.21h-4.88c-.29 0-.525.217-.525.484v2.434c0 .268.235.484.526.484h4.879c.29 0 .526-.216.526-.484V9.694c0-.267-.235-.484-.526-.484" fill="#A6C8EF" mask="url(#i)"/><path d="M301.57 10.911h-5.357c-.877 0-1.595.66-1.595 1.467v7.743c0 .806.718 1.466 1.595 1.466h5.357c.877 0 1.594-.66 1.594-1.466v-7.743c0-.807-.717-1.467-1.594-1.467" fill="#F3F9FF" mask="url(#i)"/><path d="M297.425 15.413v.9c0 .556.495 1.05 1.1 1.05h4.64v-3.05h-4.64c-.605 0-1.1.544-1.1 1.1M311.599 9.21h-4.879c-.29 0-.526.217-.526.484v2.434c0 .268.235.484.526.484h4.879c.29 0 .526-.216.526-.484V9.694c0-.267-.235-.484-.526-.484" fill="#A6C8EF" mask="url(#i)"/><path d="M311.838 10.911h-5.357c-.877 0-1.595.66-1.595 1.467v7.743c0 .806.718 1.466 1.595 1.466h5.357c.877 0 1.595-.66 1.595-1.466v-7.743c0-.807-.718-1.467-1.595-1.467" fill="#F3F9FF" mask="url(#i)"/><path d="M307.693 15.413v.9c0 .556.495 1.05 1.1 1.05h4.64v-3.05h-4.64c-.605 0-1.1.544-1.1 1.1" fill="#A6C8EF" mask="url(#i)"/><path d="M345.321 13.61v2.013c0 .345.306.626.68.626h7.452v-3.265h-7.451c-.375 0-.68.281-.68.625M426.35 20.634c0 .494.438.896.973.896h6.28c.536 0 .974-.402.974-.896V10.328h-8.228v10.306z" fill="#F3F9FF" mask="url(#i)"/><path fill="#A6C8EF" mask="url(#i)" d="M426.35 11.285h8.227v-.957h-8.228z"/><path d="M434.488 8.504h-8.058c-.272 0-.494.205-.494.455v1.187c0 .25.222.455.494.455h8.058c.271 0 .494-.205.494-.455V8.96c0-.25-.223-.455-.494-.455" fill="#F3F9FF" mask="url(#i)"/><path d="M428.266 15.33v1.566c0 .267.238.486.529.486h5.79v-2.538h-5.79c-.291 0-.53.219-.53.486" fill="#A6C8EF" mask="url(#i)"/><path d="M550.163 20.634c0 .494.438.896.974.896h6.279c.536 0 .974-.402.974-.896V10.328h-8.227v10.306z" fill="#F3F9FF" mask="url(#i)"/><path fill="#A6C8EF" mask="url(#i)" d="M550.162 11.285h8.228v-.957h-8.228z"/><path d="M558.301 8.504h-8.057c-.272 0-.495.205-.495.455v1.187c0 .25.223.455.495.455h8.057c.272 0 .494-.205.494-.455V8.96c0-.25-.222-.455-.494-.455" fill="#F3F9FF" mask="url(#i)"/><path d="M552.08 15.33v1.566c0 .267.237.486.528.486h5.79v-2.538h-5.79c-.291 0-.529.219-.529.486M384.013 17.598h-6.378c-.328 0-.595.246-.595.548v2.894c0 .302.267.548.595.548h6.378c.329 0 .595-.246.595-.548v-2.894c0-.302-.266-.548-.595-.548" fill="#A6C8EF" mask="url(#i)"/><path d="M385.675 0h-9.502c-.32 0-.575.247-.558.54l.993 17.042c.016.272.26.486.557.486h7.427c.296 0 .54-.212.557-.484l1.083-17.04c.019-.295-.236-.544-.557-.544" fill="#F3F9FF" mask="url(#i)"/><path d="M383.939 6.155h-8.007l.209 3.382h7.798c.508 0 .853-.358.853-.826V6.834c0-.468-.345-.68-.853-.68M396.769 17.598h-6.378c-.329 0-.595.246-.595.548v2.894c0 .302.266.548.595.548h6.378c.328 0 .595-.246.595-.548v-2.894c0-.302-.267-.548-.595-.548" fill="#A6C8EF" mask="url(#i)"/><path d="M398.43 0h-9.502c-.32 0-.574.247-.557.54l.992 17.042c.016.272.261.486.558.486h7.427c.295 0 .54-.212.557-.484l1.083-17.04c.018-.295-.237-.544-.558-.544" fill="#F3F9FF" mask="url(#i)"/><path d="M396.694 6.155h-8.006l.208 3.382h7.798c.509 0 .969-.358.969-.826V6.834c0-.468-.46-.68-.969-.68M409.524 17.598h-6.378c-.328 0-.595.246-.595.548v2.894c0 .302.267.548.595.548h6.378c.329 0 .596-.246.596-.548v-2.894c0-.302-.267-.548-.596-.548" fill="#A6C8EF" mask="url(#i)"/><path d="M411.186 0h-9.502c-.32 0-.575.247-.558.54l.993 17.042c.016.272.26.486.557.486h7.427c.296 0 .54-.212.557-.484l1.083-17.04c.019-.295-.236-.544-.557-.544" fill="#F3F9FF" mask="url(#i)"/><path d="M409.45 6.155h-8.007l.209 3.382h7.798c.509 0 .82-.358.82-.826V6.834c0-.468-.311-.68-.82-.68M438.862 21.53h33.504V3.442h-33.504z" fill="#A6C8EF" mask="url(#i)"/><path fill="#F3F9FF" mask="url(#i)" d="M506.083 21.53h33.505V9.553h-33.505z"/><path fill="#A6C8EF" mask="url(#i)" d="M506.083 21.53h33.505v-3.462h-33.505zM535.463 12.593h-17.007c-.374 0-.68.281-.68.625v2.269c0 .344.306.625.68.625h17.007c.374 0 .68-.281.68-.625v-2.269c0-.344-.306-.625-.68-.625"/><path fill="#F3F9FF" mask="url(#i)" d="M34.683 52.796h18.623V44.27H34.683z"/><path fill="#A6C8EF" mask="url(#i)" d="M23.713 52.796h7.993V44.27h-7.993zM24.138 43.41h7.143v-2.582h-7.143z"/><path fill="#F3F9FF" mask="url(#i)" d="M12.658 52.796h7.994V44.27h-7.994zM13.083 43.41h7.143v-2.582h-7.143zM65.296 52.796h16.667V42.784H65.296z"/><path fill="#92A8CC" mask="url(#i)" d="M76.733 52.796h5.23V42.784h-5.23z"/><path fill="#A6C8EF" mask="url(#i)" d="M157.9 52.796h18.624V44.27H157.9zM179.5 52.796h7.993V44.27H179.5zM179.925 43.41h7.143v-2.582h-7.143z"/><path fill="#92A8CC" mask="url(#i)" d="M496.389 52.796h18.623V44.27h-18.623z"/><path fill="#A6C8EF" mask="url(#i)" d="M485.419 52.796h7.994V44.27h-7.994zM485.844 43.41h7.143v-2.582h-7.143z"/><path fill="#92A8CC" mask="url(#i)" d="M261.9 52.796h31.124V40.828h-31.123zM296 52.796h7.994V44.27H296zM296.425 43.41h7.143v-2.582h-7.143z"/><path fill="#F3F9FF" mask="url(#i)" d="M192.766 52.796h16.667V42.784h-16.667z"/><path fill="#A6C8EF" mask="url(#i)" d="M204.203 52.796h5.23V42.784h-5.23z"/><path fill="#F3F9FF" mask="url(#i)" d="M416.284 52.796h16.667V42.784h-16.667z"/><path fill="#A6C8EF" mask="url(#i)" d="M427.722 52.796h5.23V42.784h-5.23z"/><path d="M334.522 49.98c0 1.548 1.377 2.815 3.061 2.815h4.464c1.684 0 3.062-1.267 3.062-2.815V39.89h-10.587v10.09z" fill="#F3F9FF" mask="url(#i)"/><path fill="#A6C8EF" mask="url(#i)" d="M334.522 41.122h10.587V39.89h-10.587z"/><path d="M345.135 37.543h-10.65c-.272 0-.495.205-.495.455v1.79c0 .25.223.454.494.454h10.651c.272 0 .495-.205.495-.455v-1.789c0-.25-.223-.455-.495-.455" fill="#F3F9FF" mask="url(#i)"/><path d="M230.006 42.53h-4.878c-.291 0-.527.216-.527.484v2.434c0 .267.236.484.527.484h4.878c.291 0 .527-.217.527-.484v-2.434c0-.268-.236-.484-.527-.484" fill="#A6C8EF" mask="url(#i)"/><path d="M230.246 44.23h-5.357c-.878 0-1.595.66-1.595 1.467v5.632c0 .807.717 1.466 1.595 1.466h5.357c.877 0 1.594-.66 1.594-1.466v-5.632c0-.806-.717-1.466-1.594-1.466" fill="#F3F9FF" mask="url(#i)"/><path d="M226.1 48.03v.899c0 .556.495 1.05 1.1 1.05h4.64v-3.05h-4.64c-.605 0-1.1.544-1.1 1.1M240.275 42.53h-4.88c-.29 0-.526.216-.526.484v2.434c0 .267.236.484.527.484h4.879c.29 0 .526-.217.526-.484v-2.434c0-.268-.236-.484-.526-.484" fill="#A6C8EF" mask="url(#i)"/><path d="M240.514 44.23h-5.357c-.877 0-1.595.66-1.595 1.467v5.632c0 .807.718 1.466 1.595 1.466h5.357c.877 0 1.594-.66 1.594-1.466v-5.632c0-.806-.717-1.466-1.594-1.466" fill="#F3F9FF" mask="url(#i)"/><path d="M236.368 48.03v.899c0 .556.495 1.05 1.1 1.05h4.64v-3.05h-4.64c-.605 0-1.1.544-1.1 1.1M250.543 42.53h-4.879c-.29 0-.526.216-.526.484v2.434c0 .267.235.484.526.484h4.879c.29 0 .526-.217.526-.484v-2.434c0-.268-.236-.484-.526-.484" fill="#A6C8EF" mask="url(#i)"/><path d="M250.782 44.23h-5.357c-.877 0-1.595.66-1.595 1.467v5.632c0 .807.718 1.466 1.595 1.466h5.357c.877 0 1.594-.66 1.594-1.466v-5.632c0-.806-.717-1.466-1.594-1.466" fill="#F3F9FF" mask="url(#i)"/><path d="M246.636 48.03v.899c0 .556.496 1.05 1.1 1.05h4.64v-3.05h-4.64c-.604 0-1.1.544-1.1 1.1M336.988 44.817v2.014c0 .345.306.626.68.626h7.452v-3.265h-7.452c-.374 0-.68.281-.68.625" fill="#A6C8EF" mask="url(#i)"/><path d="M347.894 49.98c0 1.548 1.378 2.815 3.06 2.815h4.466c1.683 0 3.061-1.267 3.061-2.815V39.89h-10.587v10.09z" fill="#F3F9FF" mask="url(#i)"/><path fill="#A6C8EF" mask="url(#i)" d="M347.894 41.122h10.587V39.89h-10.587z"/><path d="M358.507 37.543h-10.65c-.272 0-.495.205-.495.455v1.79c0 .25.223.454.495.454h10.65c.272 0 .495-.205.495-.455v-1.789c0-.25-.223-.455-.495-.455" fill="#F3F9FF" mask="url(#i)"/><path d="M350.36 44.817v2.014c0 .345.306.626.68.626h7.451v-3.265h-7.45c-.375 0-.681.281-.681.625" fill="#A6C8EF" mask="url(#i)"/><path d="M361.266 49.98c0 1.548 1.377 2.815 3.061 2.815h4.464c1.684 0 3.062-1.267 3.062-2.815V39.89h-10.587v10.09z" fill="#F3F9FF" mask="url(#i)"/><path fill="#A6C8EF" mask="url(#i)" d="M361.266 41.122h10.587V39.89h-10.587z"/><path d="M371.88 37.543h-10.651c-.272 0-.495.205-.495.455v1.79c0 .25.223.454.495.454h10.65c.272 0 .495-.205.495-.455v-1.789c0-.25-.223-.455-.494-.455" fill="#F3F9FF" mask="url(#i)"/><path d="M363.732 44.817v2.014c0 .345.306.626.68.626h7.452v-3.265h-7.452c-.374 0-.68.281-.68.625" fill="#A6C8EF" mask="url(#i)"/><path d="M519.603 51.842c0 .493.438.897.974.897h6.28c.535 0 .974-.404.974-.897V41.535h-8.228v10.307z" fill="#F3F9FF" mask="url(#i)"/><path fill="#A6C8EF" mask="url(#i)" d="M519.603 42.493h8.228v-.957h-8.228z"/><path d="M527.75 39.712h-8.058c-.271 0-.494.205-.494.455v1.188c0 .25.223.454.494.454h8.058c.272 0 .494-.204.494-.454v-1.188c0-.25-.222-.455-.494-.455" fill="#F3F9FF" mask="url(#i)"/><path d="M525.386 46.052h-5.791v2.538h5.79c.291 0 .53-.219.53-.486v-1.566c0-.267-.239-.486-.53-.486" fill="#A6C8EF" mask="url(#i)"/><path fill="#F3F9FF" mask="url(#i)" d="M538.406 52.739h33.504V40.76h-33.504z"/><path d="M559.537 43.8H542.53c-.374 0-.68.282-.68.626v2.269c0 .344.306.625.68.625h17.007c.375 0 .68-.281.68-.625v-2.269c0-.344-.305-.625-.68-.625" fill="#A6C8EF" mask="url(#i)"/><path fill="#92A8CC" mask="url(#i)" d="M94.591 52.483h32.782V37.309H94.59zM129.711 52.483h10.928v-7.587H129.71zM130.604 44.3h9.142v-2.18h-9.142z"/><path d="M443.436 43.124c-.073-.062-.07-.15-.07-.241v-.166c0-.047-.033-.085.019-.085.09 0 .09-.068.09-.151v-1.437h-3.265v1.437c0 .083 0 .151.09.151.051 0 .019.038.019.085v.166c0 .091-.008.179-.081.24l-.289.28a2.066 2.066 0 00-.719 1.6v7.325c0 .305.224.578.556.578h4.113c.332 0 .555-.273.555-.578v-7.326c0-.606-.252-1.186-.735-1.598l-.283-.28z" fill="#F3F9FF" mask="url(#i)"/><path d="M440.128 42.48c0 .084.074.152.164.152.027 0 .05.01.067.026h2.967a.095.095 0 01.066-.026c.09 0 .165-.068.165-.151v-1.662h-3.429v1.662z" fill="#000" mask="url(#i)"/><path d="M439.528 52.162c0 .287.223.482.512.482h3.604c.29 0 .513-.195.513-.482v-6.81h-4.629v6.81z" fill="#A6C8EF" mask="url(#i)"/><path d="M443.535 41.607h-3.385c-.107 0-.193.08-.193.177v.316c0 .098.086.177.193.177h3.385c.107 0 .193-.08.193-.177v-.316c0-.097-.086-.177-.193-.177" fill="#92A8CC" mask="url(#i)"/><path d="M443.692 40.819h-3.7c-.09 0-.164.067-.164.15v.507c0 .083.074.15.165.15h3.7c.09 0 .163-.067.163-.15v-.506c0-.084-.073-.151-.164-.151" fill="#B2CEED" mask="url(#i)"/><path d="M441.957 41.03h-1.743c-.079 0-.143.058-.143.13 0 .073.064.132.143.132h1.743c.078 0 .142-.06.142-.132 0-.072-.064-.13-.142-.13M442.771 41.03h-.371c-.079 0-.143.058-.143.13 0 .073.064.132.143.132h.371c.079 0 .143-.06.143-.132 0-.072-.064-.13-.143-.13M440.521 45.64c-.114 0-.207.086-.207.191v2.838c0 .105.093.19.207.19.114 0 .207-.085.207-.19v-2.838c0-.105-.093-.19-.207-.19M440.521 49.083c-.114 0-.207.086-.207.19v.697c0 .105.093.19.207.19.114 0 .207-.085.207-.19v-.696c0-.105-.093-.19-.207-.19M440.521 50.476c-.114 0-.207.085-.207.19v.027c0 .104.093.19.207.19.114 0 .207-.086.207-.19v-.027c0-.105-.093-.19-.207-.19" fill="#FFF" mask="url(#i)"/><path d="M449.728 43.124c-.072-.062-.07-.15-.07-.241v-.166c0-.047-.032-.085.02-.085.09 0 .09-.068.09-.151v-1.437h-3.265v1.437c0 .083 0 .151.09.151.051 0 .019.038.019.085v.166c0 .091-.009.179-.082.24l-.288.28a2.066 2.066 0 00-.719 1.6v7.325c0 .305.224.578.555.578h4.114c.331 0 .555-.273.555-.578v-7.326c0-.606-.252-1.186-.735-1.598l-.284-.28z" fill="#F3F9FF" mask="url(#i)"/><path d="M446.421 42.48c0 .084.074.152.164.152.027 0 .05.01.067.026h2.967a.095.095 0 01.066-.026c.09 0 .164-.068.164-.151v-1.662h-3.428v1.662z" fill="#000" mask="url(#i)"/><path d="M445.821 52.162c0 .287.222.482.512.482h3.604c.29 0 .512-.195.512-.482v-6.81h-4.628v6.81z" fill="#A6C8EF" mask="url(#i)"/><path d="M449.828 41.607h-3.386c-.106 0-.192.08-.192.177v.316c0 .098.086.177.192.177h3.386c.106 0 .193-.08.193-.177v-.316c0-.097-.087-.177-.193-.177" fill="#92A8CC" mask="url(#i)"/><path d="M449.985 40.819h-3.7c-.09 0-.164.067-.164.15v.507c0 .083.073.15.164.15h3.7c.09 0 .164-.067.164-.15v-.506c0-.084-.073-.151-.164-.151" fill="#B2CEED" mask="url(#i)"/><path d="M448.25 41.03h-1.743c-.079 0-.143.058-.143.13 0 .073.064.132.143.132h1.742c.08 0 .143-.06.143-.132 0-.072-.064-.13-.143-.13M449.064 41.03h-.372c-.078 0-.143.058-.143.13 0 .073.065.132.143.132h.372c.078 0 .142-.06.142-.132 0-.072-.064-.13-.142-.13M446.814 45.64c-.114 0-.207.086-.207.191v2.838c0 .105.093.19.207.19.114 0 .207-.085.207-.19v-2.838c0-.105-.093-.19-.207-.19M446.814 49.083c-.114 0-.207.086-.207.19v.697c0 .105.093.19.207.19.114 0 .207-.085.207-.19v-.696c0-.105-.093-.19-.207-.19M446.814 50.476c-.114 0-.207.085-.207.19v.027c0 .104.093.19.207.19.114 0 .207-.086.207-.19v-.027c0-.105-.093-.19-.207-.19" fill="#FFF" mask="url(#i)"/><path d="M456.021 43.124c-.073-.062-.07-.15-.07-.241v-.166c0-.047-.032-.085.02-.085.09 0 .09-.068.09-.151v-1.437h-3.265v1.437c0 .083-.001.151.09.151.05 0 .018.038.018.085v.166c0 .091-.008.179-.08.24l-.29.28a2.066 2.066 0 00-.718 1.6v7.325c0 .305.224.578.555.578h4.114c.331 0 .555-.273.555-.578v-7.326c0-.606-.253-1.186-.736-1.598l-.283-.28z" fill="#F3F9FF" mask="url(#i)"/><path d="M452.714 42.48c0 .084.073.152.164.152.026 0 .05.01.067.026h2.966a.095.095 0 01.067-.026c.09 0 .164-.068.164-.151v-1.662h-3.428v1.662z" fill="#000" mask="url(#i)"/><path d="M452.114 52.162c0 .287.222.482.512.482h3.604c.29 0 .512-.195.512-.482v-6.81h-4.628v6.81z" fill="#A6C8EF" mask="url(#i)"/><path d="M456.12 41.607h-3.385c-.106 0-.193.08-.193.177v.316c0 .098.087.177.193.177h3.386c.106 0 .192-.08.192-.177v-.316c0-.097-.086-.177-.192-.177" fill="#92A8CC" mask="url(#i)"/><path d="M456.278 40.819h-3.7c-.09 0-.164.067-.164.15v.507c0 .083.073.15.164.15h3.7c.09 0 .164-.067.164-.15v-.506c0-.084-.074-.151-.164-.151" fill="#B2CEED" mask="url(#i)"/><path d="M454.542 41.03H452.8c-.078 0-.143.058-.143.13 0 .073.065.132.143.132h1.743c.079 0 .143-.06.143-.132 0-.072-.064-.13-.143-.13M455.356 41.03h-.371c-.079 0-.143.058-.143.13 0 .073.064.132.143.132h.371c.079 0 .143-.06.143-.132 0-.072-.064-.13-.143-.13M453.106 45.64c-.114 0-.207.086-.207.191v2.838c0 .105.093.19.207.19.114 0 .208-.085.208-.19v-2.838c0-.105-.094-.19-.208-.19M453.106 49.083c-.114 0-.207.086-.207.19v.697c0 .105.093.19.207.19.114 0 .208-.085.208-.19v-.696c0-.105-.094-.19-.208-.19M453.106 50.476c-.114 0-.207.085-.207.19v.027c0 .104.093.19.207.19.114 0 .208-.086.208-.19v-.027c0-.105-.094-.19-.208-.19" fill="#FFF" mask="url(#i)"/><path d="M462.314 43.124c-.073-.062-.07-.15-.07-.241v-.166c0-.047-.032-.085.019-.085.09 0 .09-.068.09-.151v-1.437h-3.265v1.437c0 .083 0 .151.09.151.052 0 .02.038.02.085v.166c0 .091-.009.179-.082.24l-.288.28a2.066 2.066 0 00-.72 1.6v7.325c0 .305.224.578.556.578h4.114c.33 0 .554-.273.554-.578v-7.326c0-.606-.252-1.186-.735-1.598l-.283-.28z" fill="#F3F9FF" mask="url(#i)"/><path d="M459.006 42.48c0 .084.074.152.165.152.026 0 .05.01.066.026h2.967a.096.096 0 01.067-.026c.09 0 .164-.068.164-.151v-1.662h-3.429v1.662z" fill="#000" mask="url(#i)"/><path d="M458.407 52.162c0 .287.221.482.512.482h3.603c.29 0 .513-.195.513-.482v-6.81h-4.628v6.81z" fill="#A6C8EF" mask="url(#i)"/><path d="M462.413 41.607h-3.385c-.107 0-.193.08-.193.177v.316c0 .098.086.177.193.177h3.385c.107 0 .193-.08.193-.177v-.316c0-.097-.086-.177-.193-.177" fill="#92A8CC" mask="url(#i)"/><path d="M462.57 40.819h-3.7c-.09 0-.164.067-.164.15v.507c0 .083.074.15.165.15h3.7c.09 0 .164-.067.164-.15v-.506c0-.084-.074-.151-.165-.151" fill="#B2CEED" mask="url(#i)"/><path d="M460.835 41.03h-1.743c-.079 0-.143.058-.143.13 0 .073.064.132.143.132h1.743c.078 0 .143-.06.143-.132 0-.072-.065-.13-.143-.13M461.649 41.03h-.371c-.079 0-.143.058-.143.13 0 .073.064.132.143.132h.37c.08 0 .144-.06.144-.132 0-.072-.064-.13-.143-.13M459.4 45.64c-.115 0-.208.086-.208.191v2.838c0 .105.093.19.207.19.114 0 .207-.085.207-.19v-2.838c0-.105-.093-.19-.207-.19M459.4 49.083c-.115 0-.208.086-.208.19v.697c0 .105.093.19.207.19.114 0 .207-.085.207-.19v-.696c0-.105-.093-.19-.207-.19M459.4 50.476c-.115 0-.208.085-.208.19v.027c0 .104.093.19.207.19.114 0 .207-.086.207-.19v-.027c0-.105-.093-.19-.207-.19" fill="#FFF" mask="url(#i)"/><path d="M86.31 5.119h-7.503c-.358 0-.652.27-.652.599v1.727c0 .33.294.599.652.599h7.503c.358 0 .651-.27.651-.6V5.719c0-.33-.293-.6-.65-.6" fill="#E7EFF7" mask="url(#i)"/><path d="M85.242 18.998h-5.367c-.52 0-.947.391-.947.87v.619c0 .479.426.87.947.87h5.367c.52 0 .946-.391.946-.87v-.619c0-.479-.426-.87-.946-.87" fill="#869DBF" mask="url(#i)"/><path d="M86.439 8.071h-7.761c-.228 0-.412.172-.407.382l.253 11.875c.005.204.186.367.407.367h7.255c.221 0 .402-.163.407-.367l.253-11.875c.005-.21-.179-.382-.407-.382" fill="#92A8CC" mask="url(#i)"/><path d="M86.439 8.071h-7.761c-.228 0-.412.172-.407.382l.018.86h8.539l.018-.86c.005-.21-.179-.382-.407-.382" fill="#000" mask="url(#i)"/><path d="M86.788 10.417h-8.459c-.058 0-.105.044-.104.097l.167 7.838c.001.052.047.094.104.094h8.125c.056 0 .103-.042.104-.094l.167-7.838c.001-.053-.046-.097-.104-.097" fill="#F4F4F4" mask="url(#i)"/><path d="M86.892 5.34h-8.667c-.358 0-.651.27-.651.598v2.114c0 .33.293.599.651.599h8.667c.358 0 .65-.27.65-.6V5.939c0-.329-.292-.598-.65-.598" fill="#F3F9FF" mask="url(#i)"/><path d="M79.501 9.73h-.008c-.215.006-.384.171-.377.37l.15 4.363c.008.205.202.365.425.345h.008c.206-.018.361-.179.355-.369l-.151-4.363c-.007-.198-.187-.353-.402-.347M79.67 15.392l-.008.001c-.204.018-.357.18-.35.368l.059 1.721c.007.203.196.36.416.347h.008c.21-.013.37-.177.363-.37l-.06-1.721c-.006-.208-.204-.366-.429-.346M79.79 18.408h-.007c-.211.013-.374.176-.367.37l.015.45c.007.198.187.353.403.347h.007c.216-.007.384-.172.377-.37l-.015-.45c-.007-.202-.194-.36-.413-.347" fill="#FFF" mask="url(#i)"/><path d="M81.949 12.293v.352c0 .546.465 1 1.06 1h3.816l.05-2.417h-3.867c-.594 0-1.06.518-1.06 1.065" fill="#828282" mask="url(#i)"/><path d="M78.155 5.805c-.086 0-.156.064-.156.143v2.076c0 .08.07.144.156.144s.156-.065.156-.144V5.948c0-.079-.07-.143-.156-.143M78.78 5.805c-.086 0-.157.064-.157.143v2.076c0 .08.07.144.157.144.086 0 .156-.065.156-.144V5.948c0-.079-.07-.143-.156-.143M79.404 5.805c-.086 0-.156.064-.156.143v2.076c0 .08.07.144.156.144s.157-.065.157-.144V5.948c0-.079-.07-.143-.157-.143M80.03 5.805c-.087 0-.157.064-.157.143v2.076c0 .08.07.144.156.144s.156-.065.156-.144V5.948c0-.079-.07-.143-.156-.143M80.654 5.805c-.086 0-.156.064-.156.143v2.076c0 .08.07.144.156.144s.156-.065.156-.144V5.948c0-.079-.07-.143-.156-.143M81.279 5.805c-.086 0-.156.064-.156.143v2.076c0 .08.07.144.156.144s.156-.065.156-.144V5.948c0-.079-.07-.143-.156-.143M81.904 5.805c-.086 0-.157.064-.157.143v2.076c0 .08.07.144.157.144.085 0 .156-.065.156-.144V5.948c0-.079-.07-.143-.156-.143M82.528 5.805c-.086 0-.156.064-.156.143v2.076c0 .08.07.144.156.144s.157-.065.157-.144V5.948c0-.079-.07-.143-.157-.143M83.153 5.805c-.086 0-.156.064-.156.143v2.076c0 .08.07.144.156.144s.157-.065.157-.144V5.948c0-.079-.07-.143-.157-.143M83.778 5.805c-.086 0-.156.064-.156.143v2.076c0 .08.07.144.156.144s.156-.065.156-.144V5.948c0-.079-.07-.143-.156-.143M84.403 5.805c-.086 0-.157.064-.157.143v2.076c0 .08.07.144.157.144.086 0 .156-.065.156-.144V5.948c0-.079-.07-.143-.156-.143M85.028 5.805c-.086 0-.157.064-.157.143v2.076c0 .08.07.144.157.144.085 0 .156-.065.156-.144V5.948c0-.079-.07-.143-.156-.143M85.652 5.805c-.085 0-.156.064-.156.143v2.076c0 .08.07.144.156.144s.156-.065.156-.144V5.948c0-.079-.07-.143-.156-.143M86.277 5.805c-.086 0-.156.064-.156.143v2.076c0 .08.07.144.156.144s.156-.065.156-.144V5.948c0-.079-.07-.143-.156-.143M86.902 5.805c-.086 0-.156.064-.156.143v2.076c0 .08.07.144.156.144s.156-.065.156-.144V5.948c0-.079-.07-.143-.156-.143" fill="#E7EFF7" mask="url(#i)"/><path fill="#92A8CC" mask="url(#i)" d="M382.44 52.905h23.869V35.666h-23.87z"/></g></g></g></g></svg>
