<?xml version="1.0" encoding="UTF-8"?>
<svg width="616px" height="79px" viewBox="0 0 616 79" version="1.1" xmlns="http://www.w3.org/2000/svg" xmlns:xlink="http://www.w3.org/1999/xlink">
    <title>8DB3C250-920C-4516-BA2E-881F75D0AE70</title>
    <defs>
        <path d="M8,0 L608,0 C612.418278,-8.11624501e-16 616,3.581722 616,8 L616,79 L616,79 L0,79 L0,8 C-5.41083001e-16,3.581722 3.581722,8.11624501e-16 8,0 Z" id="path-1"></path>
        <filter id="filter-3">
            <feColorMatrix in="SourceGraphic" type="matrix" values="0 0 0 0 0.800000 0 0 0 0 0.800000 0 0 0 0 0.800000 0 0 0 1.000000 0"></feColorMatrix>
        </filter>
        <polygon id="path-4" points="2.62656859e-05 0.170585572 606.966905 0.170585572 606.966905 4.04228132 2.62656859e-05 4.04228132"></polygon>
        <polygon id="path-6" points="2.62656859e-05 0.138140249 606.966905 0.138140249 606.966905 4.009836 2.62656859e-05 4.009836"></polygon>
        <polygon id="path-8" points="0 121.386093 606.966905 121.386093 606.966905 0 0 0"></polygon>
    </defs>
    <g id="@-MODAL" stroke="none" stroke-width="1" fill="none" fill-rule="evenodd" opacity="0.630998884">
        <g id="@1440•1220-MODAL-LOJA-(informações)" transform="translate(-412.000000, -216.000000)">
            <g id="O/Modal/Dados-da-loja/-Desktop" transform="translate(412.000000, 216.000000)">
                <g id="Group-2">
                    <mask id="mask-2" fill="white">
                        <use xlink:href="#path-1"></use>
                    </mask>
                    <use id="Rectangle-Copy" fill="#DDDDDD" xlink:href="#path-1"></use>
                    <g filter="url(#filter-3)" id="Group-628" opacity="0.912760417">
                        <g mask="url(#mask-2)">
                            <g transform="translate(3.000000, 19.000000)" id="Group-627">
                                <g>
                                    <g id="Group-6" transform="translate(0.000000, 53.982929)">
                                        <mask id="mask-5" fill="white">
                                            <use xlink:href="#path-4"></use>
                                        </mask>
                                        <g id="Clip-5"></g>
                                        <path d="M605.652597,0.170585572 L1.31436119,0.170585572 C0.591266854,0.170585572 2.62656859e-05,0.714401067 2.62656859e-05,1.37925235 L2.62656859e-05,2.83337295 C2.62656859e-05,3.49822424 0.591266854,4.04228132 1.31436119,4.04228132 L605.652597,4.04228132 C606.375428,4.04228132 606.966932,3.49822424 606.966932,2.83337295 L606.966932,1.37925235 C606.966932,0.714401067 606.375428,0.170585572 605.652597,0.170585572" id="Fill-4" fill="#A6C8EF" mask="url(#mask-5)"></path>
                                    </g>
                                    <g id="Group-12" transform="translate(0.000000, 22.334848)">
                                        <mask id="mask-7" fill="white">
                                            <use xlink:href="#path-6"></use>
                                        </mask>
                                        <g id="Clip-11"></g>
                                        <path d="M605.652597,0.138140249 L1.31436119,0.138140249 C0.591266854,0.138140249 2.62656859e-05,0.681955745 2.62656859e-05,1.34704862 L2.62656859e-05,2.80092763 C2.62656859e-05,3.46577892 0.591266854,4.009836 1.31436119,4.009836 L605.652597,4.009836 C606.375428,4.009836 606.966932,3.46577892 606.966932,2.80092763 L606.966932,1.34704862 C606.966932,0.681955745 606.375428,0.138140249 605.652597,0.138140249" id="Fill-10" fill="#A6C8EF" mask="url(#mask-7)"></path>
                                    </g>
                                    <mask id="mask-9" fill="white">
                                        <use xlink:href="#path-8"></use>
                                    </mask>
                                    <g id="Clip-14"></g>
                                    <polygon id="Fill-13" fill="#A6C8EF" mask="url(#mask-9)" points="5.09002726 21.5873734 23.7129238 21.5873734 23.7129238 13.0617186 5.09002726 13.0617186"></polygon>
                                    <polygon id="Fill-15" fill="#A6C8EF" mask="url(#mask-9)" points="26.6893514 21.5873734 34.6827875 21.5873734 34.6827875 13.0617186 26.6893514 13.0617186"></polygon>
                                    <polygon id="Fill-16" fill="#A6C8EF" mask="url(#mask-9)" points="27.1143302 12.2016639 34.2575461 12.2016639 34.2575461 9.62053339 27.1143302 9.62053339"></polygon>
                                    <polygon id="Fill-17" fill="#F3F9FF" mask="url(#mask-9)" points="39.9550987 21.5873734 56.6222523 21.5873734 56.6222523 11.5757083 39.9550987 11.5757083"></polygon>
                                    <polygon id="Fill-18" fill="#A6C8EF" mask="url(#mask-9)" points="51.3924916 21.5873734 56.6222523 21.5873734 56.6222523 11.5757083 51.3924916 11.5757083"></polygon>
                                    <polygon id="Fill-19" fill="#A6C8EF" mask="url(#mask-9)" points="132.134523 21.5873734 150.757682 21.5873734 150.757682 13.0617186 132.134523 13.0617186"></polygon>
                                    <polygon id="Fill-20" fill="#A6C8EF" mask="url(#mask-9)" points="153.73411 21.5873734 161.727546 21.5873734 161.727546 13.0617186 153.73411 13.0617186"></polygon>
                                    <polygon id="Fill-21" fill="#A6C8EF" mask="url(#mask-9)" points="154.159089 12.2016639 161.302042 12.2016639 161.302042 9.62053339 154.159089 9.62053339"></polygon>
                                    <polygon id="Fill-22" fill="#92A8CC" mask="url(#mask-9)" points="562.981337 21.5873734 581.604234 21.5873734 581.604234 13.0617186 562.981337 13.0617186"></polygon>
                                    <polygon id="Fill-23" fill="#A6C8EF" mask="url(#mask-9)" points="584.580924 21.5873734 592.57436 21.5873734 592.57436 13.0617186 584.580924 13.0617186"></polygon>
                                    <polygon id="Fill-24" fill="#A6C8EF" mask="url(#mask-9)" points="585.006165 12.2016639 592.149119 12.2016639 592.149119 9.62053339 585.006165 9.62053339"></polygon>
                                    <polygon id="Fill-25" fill="#92A8CC" mask="url(#mask-9)" points="238.770581 21.5873734 257.393478 21.5873734 257.393478 13.0617186 238.770581 13.0617186"></polygon>
                                    <polygon id="Fill-26" fill="#92A8CC" mask="url(#mask-9)" points="260.369905 21.5873734 268.363341 21.5873734 268.363341 13.0617186 260.369905 13.0617186"></polygon>
                                    <polygon id="Fill-27" fill="#92A8CC" mask="url(#mask-9)" points="260.795147 12.2016639 267.938363 12.2016639 267.938363 9.62053339 260.795147 9.62053339"></polygon>
                                    <polygon id="Fill-28" fill="#F3F9FF" mask="url(#mask-9)" points="166.999857 21.5873734 183.667011 21.5873734 183.667011 11.5757083 166.999857 11.5757083"></polygon>
                                    <polygon id="Fill-29" fill="#A6C8EF" mask="url(#mask-9)" points="178.436987 21.5873734 183.666748 21.5873734 183.666748 11.5757083 178.436987 11.5757083"></polygon>
                                    <polygon id="Fill-30" fill="#F3F9FF" mask="url(#mask-9)" points="321.851309 21.5873734 338.518463 21.5873734 338.518463 11.5757083 321.851309 11.5757083"></polygon>
                                    <polygon id="Fill-31" fill="#A6C8EF" mask="url(#mask-9)" points="333.288702 21.5873734 338.518463 21.5873734 338.518463 11.5757083 333.288702 11.5757083"></polygon>
                                    <polygon id="Fill-32" fill="#F3F9FF" mask="url(#mask-9)" points="476.703024 21.5873734 493.370178 21.5873734 493.370178 11.5757083 476.703024 11.5757083"></polygon>
                                    <polygon id="Fill-33" fill="#A6C8EF" mask="url(#mask-9)" points="488.140417 21.5873734 493.370178 21.5873734 493.370178 11.5757083 488.140417 11.5757083"></polygon>
                                    <path d="M60.7039924,18.7716605 C60.7039924,20.3202422 62.0816276,21.5873734 63.7652581,21.5873734 L68.2296367,21.5873734 C69.9135298,21.5873734 71.2909024,20.3202422 71.2909024,18.7716605 L71.2909024,8.68172086 L60.7039924,8.68172086 L60.7039924,18.7716605 Z" id="Fill-34" fill="#92A8CC" mask="url(#mask-9)"></path>
                                    <polygon id="Fill-35" fill="#768AB2" mask="url(#mask-9)" points="60.7039399 9.91358013 71.2908498 9.91358013 71.2908498 8.68172086 60.7039399 8.68172086"></polygon>
                                    <path d="M71.3176146,6.33541429 L60.6666163,6.33541429 C60.3950291,6.33541429 60.1725588,6.54003966 60.1725588,6.79008366 L60.1725588,8.57928738 C60.1725588,8.82933137 60.3950291,9.03371516 60.6666163,9.03371516 L71.3176146,9.03371516 C71.5894644,9.03371516 71.8119348,8.82933137 71.8119348,8.57928738 L71.8119348,6.79008366 C71.8119348,6.54003966 71.5894644,6.33541429 71.3176146,6.33541429" id="Fill-36" fill="#92A8CC" mask="url(#mask-9)"></path>
                                    <path d="M342.855427,18.7716605 C342.855427,20.3202422 344.233062,21.5873734 345.916692,21.5873734 L350.381071,21.5873734 C352.064964,21.5873734 353.442599,20.3202422 353.442599,18.7716605 L353.442599,8.68172086 L342.855427,8.68172086 L342.855427,18.7716605 Z" id="Fill-37" fill="#A6C8EF" mask="url(#mask-9)"></path>
                                    <polygon id="Fill-38" fill="#94B9DD" mask="url(#mask-9)" points="342.855453 9.91358013 353.442626 9.91358013 353.442626 8.68172086 342.855453 8.68172086"></polygon>
                                    <path d="M353.468918,6.33541429 L342.818182,6.33541429 C342.546332,6.33541429 342.323862,6.54003966 342.323862,6.79008366 L342.323862,8.57928738 C342.323862,8.82933137 342.546332,9.03371516 342.818182,9.03371516 L353.468918,9.03371516 C353.740768,9.03371516 353.963238,8.82933137 353.963238,8.57928738 L353.963238,6.79008366 C353.963238,6.54003966 353.740768,6.33541429 353.468918,6.33541429" id="Fill-39" fill="#A6C8EF" mask="url(#mask-9)"></path>
                                    <polygon id="Fill-40" fill="#F3F9FF" mask="url(#mask-9)" points="93.9108585 21.1769147 103.604998 21.1769147 103.604998 1.8186775 93.9108585 1.8186775"></polygon>
                                    <polygon id="Fill-41" fill="#A6C8EF" mask="url(#mask-9)" points="93.9108585 4.72208693 103.604998 4.72208693 103.604998 1.81843591 93.9108585 1.81843591"></polygon>
                                    <polygon id="Fill-42" fill="#A6C8EF" mask="url(#mask-9)" points="94.5911398 20.3359454 102.754778 20.3359454 102.754778 6.33541429 94.5911398 6.33541429"></polygon>
                                    <polygon id="Fill-43" fill="#F3F9FF" mask="url(#mask-9)" points="95.9091519 18.6933859 101.436503 18.6933859 101.436503 7.97797384 95.9091519 7.97797384"></polygon>
                                    <polygon id="Fill-44" fill="#F3F9FF" mask="url(#mask-9)" points="105.103718 21.1769147 114.797857 21.1769147 114.797857 1.8186775 105.103718 1.8186775"></polygon>
                                    <polygon id="Fill-45" fill="#A6C8EF" mask="url(#mask-9)" points="105.103718 4.72208693 114.797857 4.72208693 114.797857 1.81843591 105.103718 1.81843591"></polygon>
                                    <polygon id="Fill-46" fill="#A6C8EF" mask="url(#mask-9)" points="105.783999 20.3359454 113.947637 20.3359454 113.947637 6.33541429 105.783999 6.33541429"></polygon>
                                    <polygon id="Fill-47" fill="#F3F9FF" mask="url(#mask-9)" points="107.102011 18.6933859 112.629362 18.6933859 112.629362 7.97797384 107.102011 7.97797384"></polygon>
                                    <polygon id="Fill-60" fill="#93BBED" mask="url(#mask-9)" points="203.735571 21.5873734 214.705434 21.5873734 214.705434 3.10900116 203.735571 3.10900116"></polygon>
                                    <polygon id="Fill-61" fill="#F3F9FF" mask="url(#mask-9)" points="203.735571 6.45258466 214.705434 6.45258466 214.705434 3.10900116 203.735571 3.10900116"></polygon>
                                    <polygon id="Fill-62" fill="#F3F9FF" mask="url(#mask-9)" points="203.735571 21.5873734 214.705434 21.5873734 214.705434 12.6121226 203.735571 12.6121226"></polygon>
                                    <path d="M212.791953,8.27118969 L205.585174,8.27118969 C205.162297,8.27118969 204.819792,8.58646255 204.819792,8.97517829 L204.819792,10.5003259 C204.819792,10.8890416 205.162297,11.2043145 205.585174,11.2043145 L212.791953,11.2043145 C213.214568,11.2043145 213.557335,10.8890416 213.557335,10.5003259 L213.557335,8.97517829 C213.557335,8.58646255 213.214568,8.27118969 212.791953,8.27118969" id="Fill-63" fill="#F3F9FF" mask="url(#mask-9)"></path>
                                    <polygon id="Fill-64" fill="#93BBED" mask="url(#mask-9)" points="216.746278 21.5873734 227.715879 21.5873734 227.715879 3.10900116 216.746278 3.10900116"></polygon>
                                    <polygon id="Fill-65" fill="#F3F9FF" mask="url(#mask-9)" points="216.746278 6.45258466 227.715879 6.45258466 227.715879 3.10900116 216.746278 3.10900116"></polygon>
                                    <polygon id="Fill-66" fill="#F3F9FF" mask="url(#mask-9)" points="216.746278 21.5873734 227.715879 21.5873734 227.715879 12.6121226 216.746278 12.6121226"></polygon>
                                    <path d="M225.845001,8.27118969 L218.553121,8.27118969 C218.153883,8.27118969 217.830289,8.5688266 217.830289,8.93604097 L217.830289,10.5394632 C217.830289,10.9066776 218.153883,11.2043145 218.553121,11.2043145 L225.845001,11.2043145 C226.244239,11.2043145 226.567832,10.9066776 226.567832,10.5394632 L226.567832,8.93604097 C226.567832,8.5688266 226.244239,8.27118969 225.845001,8.27118969" id="Fill-67" fill="#F3F9FF" mask="url(#mask-9)"></path>
                                    <path d="M291.062777,9.20980895 L286.183926,9.20980895 C285.893165,9.20980895 285.657562,9.42651375 285.657562,9.69371052 L285.657562,12.1281969 C285.657562,12.3956352 285.893165,12.6120984 286.183926,12.6120984 L291.062777,12.6120984 C291.353276,12.6120984 291.588879,12.3956352 291.588879,12.1281969 L291.588879,9.69371052 C291.588879,9.42651375 291.353276,9.20980895 291.062777,9.20980895" id="Fill-68" fill="#A6C8EF" mask="url(#mask-9)"></path>
                                    <path d="M291.301848,10.9109537 L285.944698,10.9109537 C285.067687,10.9109537 284.350109,11.5709732 284.350109,12.3776369 L284.350109,20.1210284 C284.350109,20.9274505 285.067687,21.58747 285.944698,21.58747 L291.301848,21.58747 C292.178859,21.58747 292.896438,20.9274505 292.896438,20.1210284 L292.896438,12.3776369 C292.896438,11.5709732 292.178859,10.9109537 291.301848,10.9109537" id="Fill-69" fill="#F3F9FF" mask="url(#mask-9)"></path>
                                    <path d="M287.156545,15.4132435 L287.156545,16.3126771 C287.156545,16.8692968 287.651653,17.3638283 288.256552,17.3638283 L292.896648,17.3638283 L292.896648,14.3132915 L288.256552,14.3132915 C287.651653,14.3132915 287.156545,14.8566238 287.156545,15.4132435" id="Fill-70" fill="#A6C8EF" mask="url(#mask-9)"></path>
                                    <path d="M301.331032,9.20980895 L296.451918,9.20980895 C296.16142,9.20980895 295.925817,9.42651375 295.925817,9.69371052 L295.925817,12.1281969 C295.925817,12.3956352 296.16142,12.6120984 296.451918,12.6120984 L301.331032,12.6120984 C301.621531,12.6120984 301.857134,12.3956352 301.857134,12.1281969 L301.857134,9.69371052 C301.857134,9.42651375 301.621531,9.20980895 301.331032,9.20980895" id="Fill-71" fill="#A6C8EF" mask="url(#mask-9)"></path>
                                    <path d="M301.570076,10.9109537 L296.212927,10.9109537 C295.335916,10.9109537 294.618337,11.5709732 294.618337,12.3776369 L294.618337,20.1210284 C294.618337,20.9274505 295.335916,21.58747 296.212927,21.58747 L301.570076,21.58747 C302.447087,21.58747 303.164403,20.9274505 303.164403,20.1210284 L303.164403,12.3776369 C303.164403,11.5709732 302.447087,10.9109537 301.570076,10.9109537" id="Fill-72" fill="#F3F9FF" mask="url(#mask-9)"></path>
                                    <path d="M297.42451,15.4132435 L297.42451,16.3126771 C297.42451,16.8692968 297.919619,17.3638283 298.524517,17.3638283 L303.164613,17.3638283 L303.164613,14.3132915 L298.524517,14.3132915 C297.919619,14.3132915 297.42451,14.8566238 297.42451,15.4132435" id="Fill-73" fill="#A6C8EF" mask="url(#mask-9)"></path>
                                    <path d="M311.599024,9.20980895 L306.720173,9.20980895 C306.429412,9.20980895 306.194071,9.42651375 306.194071,9.69371052 L306.194071,12.1281969 C306.194071,12.3956352 306.429412,12.6120984 306.720173,12.6120984 L311.599024,12.6120984 C311.889523,12.6120984 312.125389,12.3956352 312.125389,12.1281969 L312.125389,9.69371052 C312.125389,9.42651375 311.889523,9.20980895 311.599024,9.20980895" id="Fill-74" fill="#A6C8EF" mask="url(#mask-9)"></path>
                                    <path d="M311.838331,10.9109537 L306.481182,10.9109537 C305.60417,10.9109537 304.886329,11.5709732 304.886329,12.3776369 L304.886329,20.1210284 C304.886329,20.9274505 305.60417,21.58747 306.481182,21.58747 L311.838331,21.58747 C312.715342,21.58747 313.432658,20.9274505 313.432658,20.1210284 L313.432658,12.3776369 C313.432658,11.5709732 312.715342,10.9109537 311.838331,10.9109537" id="Fill-75" fill="#F3F9FF" mask="url(#mask-9)"></path>
                                    <path d="M307.692765,15.4132435 L307.692765,16.3126771 C307.692765,16.8692968 308.187873,17.3638283 308.792772,17.3638283 L313.432868,17.3638283 L313.432868,14.3132915 L308.792772,14.3132915 C308.187873,14.3132915 307.692765,14.8566238 307.692765,15.4132435" id="Fill-76" fill="#A6C8EF" mask="url(#mask-9)"></path>
                                    <path d="M345.321433,13.609472 L345.321433,15.6233529 C345.321433,15.9676164 345.627428,16.2493085 346.001714,16.2493085 L353.453027,16.2493085 L353.453027,12.983758 L346.001714,12.983758 C345.627428,12.983758 345.321433,13.2652085 345.321433,13.609472" id="Fill-77" fill="#F3F9FF" mask="url(#mask-9)"></path>
                                    <path d="M426.349288,20.6344279 C426.349288,21.1275098 426.787662,21.5304793 427.323482,21.5304793 L433.60282,21.5304793 C434.13864,21.5304793 434.577014,21.1275098 434.577014,20.6344279 L434.577014,10.3275419 L426.349288,10.3275419 L426.349288,20.6344279 Z" id="Fill-78" fill="#F3F9FF" mask="url(#mask-9)"></path>
                                    <polygon id="Fill-79" fill="#A6C8EF" mask="url(#mask-9)" points="426.349341 11.2850775 434.577067 11.2850775 434.577067 10.3276627 426.349341 10.3276627"></polygon>
                                    <path d="M434.487527,8.50403259 L426.430265,8.50403259 C426.158415,8.50403259 425.935945,8.70865797 425.935945,8.95870196 L425.935945,10.1463506 C425.935945,10.3963946 426.158415,10.6012615 426.430265,10.6012615 L434.487527,10.6012615 C434.759377,10.6012615 434.981847,10.3963946 434.981847,10.1463506 L434.981847,8.95870196 C434.981847,8.70865797 434.759377,8.50403259 434.487527,8.50403259" id="Fill-80" fill="#F3F9FF" mask="url(#mask-9)"></path>
                                    <path d="M428.265843,15.3303304 L428.265843,16.8955816 C428.265843,17.16302 428.503547,17.3818991 428.794571,17.3818991 L434.585367,17.3818991 L434.585367,14.8440129 L428.794571,14.8440129 C428.503547,14.8440129 428.265843,15.062892 428.265843,15.3303304" id="Fill-81" fill="#A6C8EF" mask="url(#mask-9)"></path>
                                    <path d="M550.1625,20.6344279 C550.1625,21.1275098 550.600875,21.5304793 551.136957,21.5304793 L557.416032,21.5304793 C557.951852,21.5304793 558.390489,21.1275098 558.390489,20.6344279 L558.390489,10.3275419 L550.1625,10.3275419 L550.1625,20.6344279 Z" id="Fill-82" fill="#F3F9FF" mask="url(#mask-9)"></path>
                                    <polygon id="Fill-83" fill="#A6C8EF" mask="url(#mask-9)" points="550.162369 11.2850775 558.390358 11.2850775 558.390358 10.3276627 550.162369 10.3276627"></polygon>
                                    <path d="M558.301002,8.50403259 L550.24374,8.50403259 C549.97189,8.50403259 549.749157,8.70865797 549.749157,8.95870196 L549.749157,10.1463506 C549.749157,10.3963946 549.97189,10.6012615 550.24374,10.6012615 L558.301002,10.6012615 C558.572852,10.6012615 558.795322,10.3963946 558.795322,10.1463506 L558.795322,8.95870196 C558.795322,8.70865797 558.572852,8.50403259 558.301002,8.50403259" id="Fill-84" fill="#F3F9FF" mask="url(#mask-9)"></path>
                                    <path d="M552.079055,15.3303304 L552.079055,16.8955816 C552.079055,17.16302 552.316759,17.3818991 552.607783,17.3818991 L558.398842,17.3818991 L558.398842,14.8440129 L552.607783,14.8440129 C552.316759,14.8440129 552.079055,15.062892 552.079055,15.3303304" id="Fill-85" fill="#A6C8EF" mask="url(#mask-9)"></path>
                                    <path d="M384.013047,17.5984106 L377.635476,17.5984106 C377.30663,17.5984106 377.040033,17.8436228 377.040033,18.1458499 L377.040033,21.0398374 C377.040033,21.3423061 377.30663,21.5875183 377.635476,21.5875183 L384.013047,21.5875183 C384.341894,21.5875183 384.60849,21.3423061 384.60849,21.0398374 L384.60849,18.1458499 C384.60849,17.8436228 384.341894,17.5984106 384.013047,17.5984106" id="Fill-86" fill="#A6C8EF" mask="url(#mask-9)"></path>
                                    <path d="M385.674667,-4.83176807e-05 L376.172793,-4.83176807e-05 C375.852614,-4.83176807e-05 375.598362,0.24685503 375.615172,0.540868117 L376.607752,17.5817893 C376.623774,17.854301 376.868571,18.0676236 377.165373,18.0676236 L384.591996,18.0676236 C384.887747,18.0676236 385.132281,17.8557506 385.149353,17.5842052 L386.232025,0.543284001 C386.250674,0.248546149 385.995896,-4.83176807e-05 385.674667,-4.83176807e-05" id="Fill-87" fill="#F3F9FF" mask="url(#mask-9)"></path>
                                    <path d="M383.938663,6.15492359 L375.932357,6.15492359 L376.140906,9.53716124 L383.938663,9.53716124 C384.447429,9.53716124 384.792298,9.17912722 384.792298,8.71117049 L384.792298,6.83402859 C384.792298,6.36631344 384.447429,6.15492359 383.938663,6.15492359" id="Fill-88" fill="#A6C8EF" mask="url(#mask-9)"></path>
                                    <path d="M396.768584,17.5984106 L390.391013,17.5984106 C390.062166,17.5984106 389.795569,17.8436228 389.795569,18.1458499 L389.795569,21.0398374 C389.795569,21.3423061 390.062166,21.5875183 390.391013,21.5875183 L396.768584,21.5875183 C397.09743,21.5875183 397.364027,21.3423061 397.364027,21.0398374 L397.364027,18.1458499 C397.364027,17.8436228 397.09743,17.5984106 396.768584,17.5984106" id="Fill-89" fill="#A6C8EF" mask="url(#mask-9)"></path>
                                    <path d="M398.430204,-4.83176807e-05 L388.928329,-4.83176807e-05 C388.60815,-4.83176807e-05 388.353898,0.24685503 388.370708,0.540868117 L389.363289,17.5817893 C389.379311,17.854301 389.624107,18.0676236 389.920909,18.0676236 L397.347532,18.0676236 C397.643284,18.0676236 397.887554,17.8557506 397.90489,17.5842052 L398.987561,0.543284001 C399.00621,0.248546149 398.751433,-4.83176807e-05 398.430204,-4.83176807e-05" id="Fill-90" fill="#F3F9FF" mask="url(#mask-9)"></path>
                                    <path d="M396.694199,6.15492359 L388.687893,6.15492359 L388.896442,9.53716124 L396.694199,9.53716124 C397.202966,9.53716124 397.662615,9.17912722 397.662615,8.71117049 L397.662615,6.83402859 C397.662615,6.36631344 397.202966,6.15492359 396.694199,6.15492359" id="Fill-91" fill="#A6C8EF" mask="url(#mask-9)"></path>
                                    <path d="M409.52412,17.5984106 L403.146286,17.5984106 C402.817702,17.5984106 402.551106,17.8436228 402.551106,18.1458499 L402.551106,21.0398374 C402.551106,21.3423061 402.817702,21.5875183 403.146286,21.5875183 L409.52412,21.5875183 C409.852704,21.5875183 410.119563,21.3423061 410.119563,21.0398374 L410.119563,18.1458499 C410.119563,17.8436228 409.852704,17.5984106 409.52412,17.5984106" id="Fill-92" fill="#A6C8EF" mask="url(#mask-9)"></path>
                                    <path d="M411.185714,-4.83176807e-05 L401.683839,-4.83176807e-05 C401.36366,-4.83176807e-05 401.109409,0.24685503 401.126219,0.540868117 L402.118799,17.5817893 C402.134821,17.854301 402.379617,18.0676236 402.676419,18.0676236 L410.103042,18.0676236 C410.398531,18.0676236 410.643065,17.8557506 410.660137,17.5842052 L411.743071,0.543284001 C411.76172,0.248546149 411.506943,-4.83176807e-05 411.185714,-4.83176807e-05" id="Fill-93" fill="#F3F9FF" mask="url(#mask-9)"></path>
                                    <path d="M409.449736,6.15492359 L401.443429,6.15492359 L401.651979,9.53716124 L409.449736,9.53716124 C409.958502,9.53716124 410.270013,9.17912722 410.270013,8.71117049 L410.270013,6.83402859 C410.270013,6.36631344 409.958502,6.15492359 409.449736,6.15492359" id="Fill-94" fill="#A6C8EF" mask="url(#mask-9)"></path>
                                    <polygon id="Fill-95" fill="#A6C8EF" mask="url(#mask-9)" points="438.861525 21.5306001 472.366034 21.5306001 472.366034 3.4414268 438.861525 3.4414268"></polygon>
                                    <polygon id="Fill-96" fill="#F3F9FF" mask="url(#mask-9)" points="506.083032 21.5306001 539.587541 21.5306001 539.587541 9.55240546 506.083032 9.55240546"></polygon>
                                    <polygon id="Fill-97" fill="#A6C8EF" mask="url(#mask-9)" points="506.083032 21.5306001 539.587541 21.5306001 539.587541 18.0676719 506.083032 18.0676719"></polygon>
                                    <path d="M535.463198,12.5926264 L518.455904,12.5926264 C518.081618,12.5926264 517.775623,12.8743185 517.775623,13.2183404 L517.775623,15.4866139 C517.775623,15.8306358 518.081618,16.1123279 518.455904,16.1123279 L535.463198,16.1123279 C535.837484,16.1123279 536.14348,15.8306358 536.14348,15.4866139 L536.14348,13.2183404 C536.14348,12.8743185 535.837484,12.5926264 535.463198,12.5926264" id="Fill-98" fill="#A6C8EF" mask="url(#mask-9)"></path>
                                    <polygon id="Fill-99" fill="#F3F9FF" mask="url(#mask-9)" points="34.6827875 52.7955217 53.3056841 52.7955217 53.3056841 44.2701085 34.6827875 44.2701085"></polygon>
                                    <polygon id="Fill-100" fill="#A6C8EF" mask="url(#mask-9)" points="23.7129238 52.7955217 31.70636 52.7955217 31.70636 44.2701085 23.7129238 44.2701085"></polygon>
                                    <polygon id="Fill-101" fill="#A6C8EF" mask="url(#mask-9)" points="24.1381653 43.4095706 31.2811186 43.4095706 31.2811186 40.8284401 24.1381653 40.8284401"></polygon>
                                    <polygon id="Fill-102" fill="#F3F9FF" mask="url(#mask-9)" points="12.658222 52.7955217 20.6516582 52.7955217 20.6516582 44.2701085 12.658222 44.2701085"></polygon>
                                    <polygon id="Fill-103" fill="#F3F9FF" mask="url(#mask-9)" points="13.0834634 43.4095706 20.2264167 43.4095706 20.2264167 40.8284401 13.0834634 40.8284401"></polygon>
                                    <polygon id="Fill-104" fill="#F3F9FF" mask="url(#mask-9)" points="65.2959697 52.7955217 81.963386 52.7955217 81.963386 42.7840983 65.2959697 42.7840983"></polygon>
                                    <polygon id="Fill-105" fill="#92A8CC" mask="url(#mask-9)" points="76.7333626 52.7955217 81.9631233 52.7955217 81.9631233 42.7840983 76.7333626 42.7840983"></polygon>
                                    <polygon id="Fill-106" fill="#A6C8EF" mask="url(#mask-9)" points="157.900636 52.7955217 176.523532 52.7955217 176.523532 44.2701085 157.900636 44.2701085"></polygon>
                                    <polygon id="Fill-107" fill="#A6C8EF" mask="url(#mask-9)" points="179.49996 52.7955217 187.493396 52.7955217 187.493396 44.2701085 179.49996 44.2701085"></polygon>
                                    <polygon id="Fill-108" fill="#A6C8EF" mask="url(#mask-9)" points="179.925201 43.4095706 187.068417 43.4095706 187.068417 40.8284401 179.925201 40.8284401"></polygon>
                                    <polygon id="Fill-109" fill="#92A8CC" mask="url(#mask-9)" points="496.388893 52.7955217 515.01179 52.7955217 515.01179 44.2701085 496.388893 44.2701085"></polygon>
                                    <polygon id="Fill-110" fill="#A6C8EF" mask="url(#mask-9)" points="485.419029 52.7955217 493.412728 52.7955217 493.412728 44.2701085 485.419029 44.2701085"></polygon>
                                    <polygon id="Fill-111" fill="#A6C8EF" mask="url(#mask-9)" points="485.844271 43.4095706 492.987224 43.4095706 492.987224 40.8284401 485.844271 40.8284401"></polygon>
                                    <polygon id="Fill-112" fill="#92A8CC" mask="url(#mask-9)" points="261.900669 52.7955217 293.024194 52.7955217 293.024194 40.8284401 261.900669 40.8284401"></polygon>
                                    <polygon id="Fill-113" fill="#92A8CC" mask="url(#mask-9)" points="296.000096 52.7955217 303.993795 52.7955217 303.993795 44.2701085 296.000096 44.2701085"></polygon>
                                    <polygon id="Fill-114" fill="#92A8CC" mask="url(#mask-9)" points="296.425338 43.4095706 303.568291 43.4095706 303.568291 40.8284401 296.425338 40.8284401"></polygon>
                                    <polygon id="Fill-115" fill="#F3F9FF" mask="url(#mask-9)" points="192.765707 52.7955217 209.432861 52.7955217 209.432861 42.7840983 192.765707 42.7840983"></polygon>
                                    <polygon id="Fill-116" fill="#A6C8EF" mask="url(#mask-9)" points="204.203363 52.7955217 209.433123 52.7955217 209.433123 42.7840983 204.203363 42.7840983"></polygon>
                                    <polygon id="Fill-117" fill="#F3F9FF" mask="url(#mask-9)" points="416.28433 52.7955217 432.951483 52.7955217 432.951483 42.7840983 416.28433 42.7840983"></polygon>
                                    <polygon id="Fill-118" fill="#A6C8EF" mask="url(#mask-9)" points="427.721723 52.7955217 432.951483 52.7955217 432.951483 42.7840983 427.721723 42.7840983"></polygon>
                                    <path d="M334.521719,49.9796156 C334.521719,51.5284388 335.899354,52.7953284 337.582984,52.7953284 L342.047363,52.7953284 C343.731256,52.7953284 345.108891,51.5284388 345.108891,49.9796156 L345.108891,39.8899175 L334.521719,39.8899175 L334.521719,49.9796156 Z" id="Fill-119" fill="#F3F9FF" mask="url(#mask-9)"></path>
                                    <polygon id="Fill-120" fill="#A6C8EF" mask="url(#mask-9)" points="334.521614 41.1217285 345.108786 41.1217285 345.108786 39.8898692 334.521614 39.8898692"></polygon>
                                    <path d="M345.135472,37.5433694 L334.484474,37.5433694 C334.212624,37.5433694 333.990154,37.7479947 333.990154,37.9980387 L333.990154,39.7872424 C333.990154,40.0372864 334.212624,40.2419118 334.484474,40.2419118 L345.135472,40.2419118 C345.407322,40.2419118 345.629792,40.0372864 345.629792,39.7872424 L345.629792,37.9980387 C345.629792,37.7479947 345.407322,37.5433694 345.135472,37.5433694" id="Fill-121" fill="#F3F9FF" mask="url(#mask-9)"></path>
                                    <path d="M230.006483,42.5296574 L225.127632,42.5296574 C224.836871,42.5296574 224.601268,42.7463622 224.601268,43.0135589 L224.601268,45.4480453 C224.601268,45.7154836 224.836871,45.9319468 225.127632,45.9319468 L230.006483,45.9319468 C230.296982,45.9319468 230.532585,45.7154836 230.532585,45.4480453 L230.532585,43.0135589 C230.532585,42.7463622 230.296982,42.5296574 230.006483,42.5296574" id="Fill-122" fill="#A6C8EF" mask="url(#mask-9)"></path>
                                    <path d="M230.245659,44.2308021 L224.88851,44.2308021 C224.011498,44.2308021 223.29392,44.8908216 223.29392,45.6972437 L223.29392,51.328911 C223.29392,52.1355747 224.011498,52.7953526 224.88851,52.7953526 L230.245659,52.7953526 C231.12267,52.7953526 231.840249,52.1355747 231.840249,51.328911 L231.840249,45.6972437 C231.840249,44.8908216 231.12267,44.2308021 230.245659,44.2308021" id="Fill-123" fill="#F3F9FF" mask="url(#mask-9)"></path>
                                    <path d="M226.100224,48.0292241 L226.100224,48.9286577 C226.100224,49.4852774 226.595333,49.9795673 227.200231,49.9795673 L231.840327,49.9795673 L231.840327,46.9292721 L227.200231,46.9292721 C226.595333,46.9292721 226.100224,47.4726044 226.100224,48.0292241" id="Fill-124" fill="#A6C8EF" mask="url(#mask-9)"></path>
                                    <path d="M240.274712,42.5296574 L235.395598,42.5296574 C235.1051,42.5296574 234.869496,42.7463622 234.869496,43.0135589 L234.869496,45.4480453 C234.869496,45.7154836 235.1051,45.9319468 235.395598,45.9319468 L240.274712,45.9319468 C240.56521,45.9319468 240.800814,45.7154836 240.800814,45.4480453 L240.800814,43.0135589 C240.800814,42.7463622 240.56521,42.5296574 240.274712,42.5296574" id="Fill-125" fill="#A6C8EF" mask="url(#mask-9)"></path>
                                    <path d="M240.513782,44.2308021 L235.156633,44.2308021 C234.279622,44.2308021 233.562043,44.8908216 233.562043,45.6972437 L233.562043,51.328911 C233.562043,52.1355747 234.279622,52.7953526 235.156633,52.7953526 L240.513782,52.7953526 C241.390793,52.7953526 242.108372,52.1355747 242.108372,51.328911 L242.108372,45.6972437 C242.108372,44.8908216 241.390793,44.2308021 240.513782,44.2308021" id="Fill-126" fill="#F3F9FF" mask="url(#mask-9)"></path>
                                    <path d="M236.368348,48.0292241 L236.368348,48.9286577 C236.368348,49.4852774 236.863456,49.9795673 237.468355,49.9795673 L242.108451,49.9795673 L242.108451,46.9292721 L237.468355,46.9292721 C236.863456,46.9292721 236.368348,47.4726044 236.368348,48.0292241" id="Fill-127" fill="#A6C8EF" mask="url(#mask-9)"></path>
                                    <path d="M250.542835,42.5296574 L245.663984,42.5296574 C245.373223,42.5296574 245.13762,42.7463622 245.13762,43.0135589 L245.13762,45.4480453 C245.13762,45.7154836 245.373223,45.9319468 245.663984,45.9319468 L250.542835,45.9319468 C250.833334,45.9319468 251.068937,45.7154836 251.068937,45.4480453 L251.068937,43.0135589 C251.068937,42.7463622 250.833334,42.5296574 250.542835,42.5296574" id="Fill-128" fill="#A6C8EF" mask="url(#mask-9)"></path>
                                    <path d="M250.782037,44.2308021 L245.424888,44.2308021 C244.547876,44.2308021 243.830298,44.8908216 243.830298,45.6972437 L243.830298,51.328911 C243.830298,52.1355747 244.547876,52.7953526 245.424888,52.7953526 L250.782037,52.7953526 C251.659048,52.7953526 252.376364,52.1355747 252.376364,51.328911 L252.376364,45.6972437 C252.376364,44.8908216 251.659048,44.2308021 250.782037,44.2308021" id="Fill-129" fill="#F3F9FF" mask="url(#mask-9)"></path>
                                    <path d="M246.636445,48.0292241 L246.636445,48.9286577 C246.636445,49.4852774 247.131553,49.9795673 247.736714,49.9795673 L252.376548,49.9795673 L252.376548,46.9292721 L247.736714,46.9292721 C247.131553,46.9292721 246.636445,47.4726044 246.636445,48.0292241" id="Fill-130" fill="#A6C8EF" mask="url(#mask-9)"></path>
                                    <path d="M336.987988,44.8174512 L336.987988,46.8313322 C336.987988,47.1755956 337.293983,47.4572877 337.668269,47.4572877 L345.119581,47.4572877 L345.119581,44.1917373 L337.668269,44.1917373 C337.293983,44.1917373 336.987988,44.4734293 336.987988,44.8174512" id="Fill-131" fill="#A6C8EF" mask="url(#mask-9)"></path>
                                    <path d="M347.893895,49.9796156 C347.893895,51.5284388 349.27153,52.7953284 350.954898,52.7953284 L355.419539,52.7953284 C357.103432,52.7953284 358.481067,51.5284388 358.481067,49.9796156 L358.481067,39.8899175 L347.893895,39.8899175 L347.893895,49.9796156 Z" id="Fill-132" fill="#F3F9FF" mask="url(#mask-9)"></path>
                                    <polygon id="Fill-133" fill="#A6C8EF" mask="url(#mask-9)" points="347.894 41.1217285 358.481172 41.1217285 358.481172 39.8898692 347.894 39.8898692"></polygon>
                                    <path d="M358.507385,37.5433694 L347.85665,37.5433694 C347.5848,37.5433694 347.36233,37.7479947 347.36233,37.9980387 L347.36233,39.7872424 C347.36233,40.0372864 347.5848,40.2419118 347.85665,40.2419118 L358.507385,40.2419118 C358.779235,40.2419118 359.001706,40.0372864 359.001706,39.7872424 L359.001706,37.9980387 C359.001706,37.7479947 358.779235,37.5433694 358.507385,37.5433694" id="Fill-134" fill="#F3F9FF" mask="url(#mask-9)"></path>
                                    <path d="M350.359875,44.8174512 L350.359875,46.8313322 C350.359875,47.1755956 350.66587,47.4572877 351.040156,47.4572877 L358.491468,47.4572877 L358.491468,44.1917373 L351.040156,44.1917373 C350.66587,44.1917373 350.359875,44.4734293 350.359875,44.8174512" id="Fill-135" fill="#A6C8EF" mask="url(#mask-9)"></path>
                                    <path d="M361.265781,49.9796156 C361.265781,51.5284388 362.643417,52.7953284 364.327047,52.7953284 L368.791426,52.7953284 C370.475319,52.7953284 371.852954,51.5284388 371.852954,49.9796156 L371.852954,39.8899175 L361.265781,39.8899175 L361.265781,49.9796156 Z" id="Fill-136" fill="#F3F9FF" mask="url(#mask-9)"></path>
                                    <polygon id="Fill-137" fill="#A6C8EF" mask="url(#mask-9)" points="361.26586 41.1217285 371.853033 41.1217285 371.853033 39.8898692 361.26586 39.8898692"></polygon>
                                    <path d="M371.879535,37.5433694 L361.228537,37.5433694 C360.956687,37.5433694 360.734216,37.7479947 360.734216,37.9980387 L360.734216,39.7872424 C360.734216,40.0372864 360.956687,40.2419118 361.228537,40.2419118 L371.879535,40.2419118 C372.151385,40.2419118 372.373855,40.0372864 372.373855,39.7872424 L372.373855,37.9980387 C372.373855,37.7479947 372.151385,37.5433694 371.879535,37.5433694" id="Fill-138" fill="#F3F9FF" mask="url(#mask-9)"></path>
                                    <path d="M363.731788,44.8174512 L363.731788,46.8313322 C363.731788,47.1755956 364.038046,47.4572877 364.412332,47.4572877 L371.863644,47.4572877 L371.863644,44.1917373 L364.412332,44.1917373 C364.038046,44.1917373 363.731788,44.4734293 363.731788,44.8174512" id="Fill-139" fill="#A6C8EF" mask="url(#mask-9)"></path>
                                    <path d="M519.602979,51.842383 C519.602979,52.3354649 520.041353,52.738676 520.577436,52.738676 L526.856511,52.738676 C527.392331,52.738676 527.830968,52.3354649 527.830968,51.842383 L527.830968,41.5354969 L519.602979,41.5354969 L519.602979,51.842383 Z" id="Fill-140" fill="#F3F9FF" mask="url(#mask-9)"></path>
                                    <polygon id="Fill-141" fill="#A6C8EF" mask="url(#mask-9)" points="519.603032 42.4929842 527.83102 42.4929842 527.83102 41.5355694 519.603032 41.5355694"></polygon>
                                    <path d="M527.749702,39.7119877 L519.69244,39.7119877 C519.42059,39.7119877 519.19812,39.916613 519.19812,40.166657 L519.19812,41.3545472 C519.19812,41.6045912 519.42059,41.8092166 519.69244,41.8092166 L527.749702,41.8092166 C528.021552,41.8092166 528.244022,41.6045912 528.244022,41.3545472 L528.244022,40.166657 C528.244022,39.916613 528.021552,39.7119877 527.749702,39.7119877" id="Fill-142" fill="#F3F9FF" mask="url(#mask-9)"></path>
                                    <path d="M525.385527,46.0521612 L519.594732,46.0521612 L519.594732,48.5898058 L525.385527,48.5898058 C525.676289,48.5898058 525.914518,48.3711683 525.914518,48.10373 L525.914518,46.5384787 C525.914518,46.2710403 525.676289,46.0521612 525.385527,46.0521612" id="Fill-143" fill="#A6C8EF" mask="url(#mask-9)"></path>
                                    <polygon id="Fill-144" fill="#F3F9FF" mask="url(#mask-9)" points="538.405848 52.7387484 571.910357 52.7387484 571.910357 40.7605538 538.405848 40.7605538"></polygon>
                                    <path d="M559.537354,43.8006056 L542.530323,43.8006056 C542.156036,43.8006056 541.849779,44.0822977 541.849779,44.4263196 L541.849779,46.6945931 C541.849779,47.0388566 542.156036,47.3203071 542.530323,47.3203071 L559.537354,47.3203071 C559.91164,47.3203071 560.217898,47.0388566 560.217898,46.6945931 L560.217898,44.4263196 C560.217898,44.0822977 559.91164,43.8006056 559.537354,43.8006056" id="Fill-145" fill="#A6C8EF" mask="url(#mask-9)"></path>
                                    <polygon id="Fill-243" fill="#92A8CC" mask="url(#mask-9)" points="94.5911398 52.4826647 127.372817 52.4826647 127.372817 37.3087387 94.5911398 37.3087387"></polygon>
                                    <polygon id="Fill-244" fill="#92A8CC" mask="url(#mask-9)" points="129.711251 52.4826647 140.638564 52.4826647 140.638564 44.8958225 129.711251 44.8958225"></polygon>
                                    <polygon id="Fill-245" fill="#92A8CC" mask="url(#mask-9)" points="130.604022 44.2993407 139.745531 44.2993407 139.745531 42.119247 130.604022 42.119247"></polygon>
                                    <path d="M443.435563,43.1236025 C443.362807,43.0615142 443.365959,42.9740592 443.365959,42.8827388 L443.365959,42.7172508 C443.365959,42.670141 443.33339,42.6319701 443.38487,42.6319701 C443.475224,42.6319701 443.474699,42.5643253 443.474699,42.4807357 L443.474699,41.0437679 L440.210137,41.0437679 L440.210137,42.4807357 C440.210137,42.5643253 440.209349,42.6319701 440.299966,42.6319701 C440.351446,42.6319701 440.318877,42.670141 440.318877,42.7172508 L440.318877,42.8827388 C440.318877,42.9740592 440.310735,43.0615142 440.237716,43.1236025 L439.949319,43.4036034 C439.46603,43.816478 439.230427,44.3955654 439.230427,45.0021939 L439.230427,52.3283622 C439.230427,52.6332468 439.454211,52.9055169 439.785683,52.9055169 L443.899415,52.9055169 C444.230625,52.9055169 444.454146,52.6332468 444.454146,52.3283622 L444.454146,45.0021939 C444.454146,44.3955654 444.202259,43.816478 443.718707,43.4036034 L443.435563,43.1236025 Z" id="Fill-246" fill="#F3F9FF" mask="url(#mask-9)"></path>
                                    <path d="M440.128241,42.4808323 C440.128241,42.5644219 440.201784,42.6318251 440.292401,42.6318251 C440.318929,42.6318251 440.342043,42.6419718 440.359116,42.6581582 L443.325825,42.6581582 C443.342373,42.6419718 443.366012,42.6318251 443.392277,42.6318251 C443.482894,42.6318251 443.556701,42.5644219 443.556701,42.4808323 L443.556701,40.8187041 L440.128241,40.8187041 L440.128241,42.4808323 Z" id="Fill-247" fill="#000000" mask="url(#mask-9)"></path>
                                    <path d="M439.528306,52.1620528 C439.528306,52.4488182 439.750514,52.64378 440.040487,52.64378 L443.644402,52.64378 C443.934375,52.64378 444.156583,52.4488182 444.156583,52.1620528 L444.156583,45.3516757 L439.528306,45.3516757 L439.528306,52.1620528 Z" id="Fill-248" fill="#A6C8EF" mask="url(#mask-9)"></path>
                                    <path d="M443.535084,41.6070796 L440.1497,41.6070796 C440.043061,41.6070796 439.956909,41.6865622 439.956909,41.7844055 L439.956909,42.0999199 C439.956909,42.1977632 440.043061,42.2772458 440.1497,42.2772458 L443.535084,42.2772458 C443.641723,42.2772458 443.727874,42.1977632 443.727874,42.0999199 L443.727874,41.7844055 C443.727874,41.6865622 443.641723,41.6070796 443.535084,41.6070796" id="Fill-249" fill="#92A8CC" mask="url(#mask-9)"></path>
                                    <path d="M443.692337,40.8187283 L439.992552,40.8187283 C439.901673,40.8187283 439.828129,40.886373 439.828129,40.969721 L439.828129,41.4756072 C439.828129,41.5591968 439.901673,41.6268415 439.992552,41.6268415 L443.692337,41.6268415 C443.783216,41.6268415 443.856497,41.5591968 443.856497,41.4756072 L443.856497,40.969721 C443.856497,40.886373 443.783216,40.8187283 443.692337,40.8187283" id="Fill-250" fill="#B2CEED" mask="url(#mask-9)"></path>
                                    <path d="M441.956595,41.0290552 L440.213867,41.0290552 C440.135332,41.0290552 440.070981,41.0882443 440.070981,41.1602377 C440.070981,41.2327142 440.135332,41.2916618 440.213867,41.2916618 L441.956595,41.2916618 C442.035392,41.2916618 442.09948,41.2327142 442.09948,41.1602377 C442.09948,41.0882443 442.035392,41.0290552 441.956595,41.0290552" id="Fill-251" fill="#FFFFFF" mask="url(#mask-9)"></path>
                                    <path d="M442.770989,41.0290552 L442.399592,41.0290552 C442.321058,41.0290552 442.256707,41.0882443 442.256707,41.1602377 C442.256707,41.2327142 442.321058,41.2916618 442.399592,41.2916618 L442.770989,41.2916618 C442.849523,41.2916618 442.913874,41.2327142 442.913874,41.1602377 C442.913874,41.0882443 442.849523,41.0290552 442.770989,41.0290552" id="Fill-252" fill="#FFFFFF" mask="url(#mask-9)"></path>
                                    <path d="M440.520965,45.640712 L440.520965,45.640712 C440.406972,45.640712 440.313991,45.7264759 440.313991,45.8313253 L440.313991,48.6692643 C440.313991,48.7741136 440.406972,48.8596359 440.520965,48.8596359 C440.635221,48.8596359 440.728201,48.7741136 440.728201,48.6692643 L440.728201,45.8313253 C440.728201,45.7264759 440.635221,45.640712 440.520965,45.640712" id="Fill-253" fill="#FFFFFF" mask="url(#mask-9)"></path>
                                    <path d="M440.520965,49.0831052 L440.520965,49.0831052 C440.406972,49.0831052 440.313991,49.1688691 440.313991,49.2737184 L440.313991,49.9699762 C440.313991,50.074584 440.406972,50.1603479 440.520965,50.1603479 C440.635221,50.1603479 440.728201,50.074584 440.728201,49.9699762 L440.728201,49.2737184 C440.728201,49.1688691 440.635221,49.0831052 440.520965,49.0831052" id="Fill-254" fill="#FFFFFF" mask="url(#mask-9)"></path>
                                    <path d="M440.520965,50.4758865 L440.520965,50.4758865 C440.406972,50.4758865 440.313991,50.5614088 440.313991,50.6664997 L440.313991,50.6925913 C440.313991,50.7974407 440.406972,50.8832045 440.520965,50.8832045 C440.635221,50.8832045 440.728201,50.7974407 440.728201,50.6925913 L440.728201,50.6664997 C440.728201,50.5614088 440.635221,50.4758865 440.520965,50.4758865" id="Fill-255" fill="#FFFFFF" mask="url(#mask-9)"></path>
                                    <path d="M449.728296,43.1236025 C449.65554,43.0615142 449.658692,42.9740592 449.658692,42.8827388 L449.658692,42.7172508 C449.658692,42.670141 449.626123,42.6319701 449.677603,42.6319701 C449.767957,42.6319701 449.767432,42.5643253 449.767432,42.4807357 L449.767432,41.0437679 L446.50287,41.0437679 L446.50287,42.4807357 C446.50287,42.5643253 446.502082,42.6319701 446.592699,42.6319701 C446.644179,42.6319701 446.61161,42.670141 446.61161,42.7172508 L446.61161,42.8827388 C446.61161,42.9740592 446.603468,43.0615142 446.530449,43.1236025 L446.242052,43.4036034 C445.758763,43.816478 445.52316,44.3955654 445.52316,45.0021939 L445.52316,52.3283622 C445.52316,52.6332468 445.746681,52.9055169 446.078154,52.9055169 L450.192148,52.9055169 C450.523359,52.9055169 450.747142,52.6332468 450.747142,52.3283622 L450.747142,45.0021939 C450.747142,44.3955654 450.494992,43.816478 450.011703,43.4036034 L449.728296,43.1236025 Z" id="Fill-256" fill="#F3F9FF" mask="url(#mask-9)"></path>
                                    <path d="M446.420974,42.4808323 C446.420974,42.5644219 446.494517,42.6318251 446.585134,42.6318251 C446.611662,42.6318251 446.634776,42.6419718 446.651849,42.6581582 L449.618558,42.6581582 C449.635106,42.6419718 449.658745,42.6318251 449.68501,42.6318251 C449.775627,42.6318251 449.849434,42.5644219 449.849434,42.4808323 L449.849434,40.8187041 L446.420974,40.8187041 L446.420974,42.4808323 Z" id="Fill-257" fill="#000000" mask="url(#mask-9)"></path>
                                    <path d="M445.821039,52.1620528 C445.821039,52.4488182 446.042984,52.64378 446.33322,52.64378 L449.937135,52.64378 C450.227108,52.64378 450.449316,52.4488182 450.449316,52.1620528 L450.449316,45.3516757 L445.821039,45.3516757 L445.821039,52.1620528 Z" id="Fill-258" fill="#A6C8EF" mask="url(#mask-9)"></path>
                                    <path d="M449.827817,41.6070796 L446.442433,41.6070796 C446.335794,41.6070796 446.249642,41.6865622 446.249642,41.7844055 L446.249642,42.0999199 C446.249642,42.1977632 446.335794,42.2772458 446.442433,42.2772458 L449.827817,42.2772458 C449.934193,42.2772458 450.020607,42.1977632 450.020607,42.0999199 L450.020607,41.7844055 C450.020607,41.6865622 449.934193,41.6070796 449.827817,41.6070796" id="Fill-259" fill="#92A8CC" mask="url(#mask-9)"></path>
                                    <path d="M449.98507,40.8187283 L446.285285,40.8187283 C446.194406,40.8187283 446.120862,40.886373 446.120862,40.969721 L446.120862,41.4756072 C446.120862,41.5591968 446.194406,41.6268415 446.285285,41.6268415 L449.98507,41.6268415 C450.075686,41.6268415 450.14923,41.5591968 450.14923,41.4756072 L450.14923,40.969721 C450.14923,40.886373 450.075686,40.8187283 449.98507,40.8187283" id="Fill-260" fill="#B2CEED" mask="url(#mask-9)"></path>
                                    <path d="M448.249328,41.0290552 L446.5066,41.0290552 C446.428065,41.0290552 446.363714,41.0882443 446.363714,41.1602377 C446.363714,41.2327142 446.428065,41.2916618 446.5066,41.2916618 L448.249328,41.2916618 C448.328125,41.2916618 448.392213,41.2327142 448.392213,41.1602377 C448.392213,41.0882443 448.328125,41.0290552 448.249328,41.0290552" id="Fill-261" fill="#FFFFFF" mask="url(#mask-9)"></path>
                                    <path d="M449.063722,41.0290552 L448.692325,41.0290552 C448.613528,41.0290552 448.54944,41.0882443 448.54944,41.1602377 C448.54944,41.2327142 448.613528,41.2916618 448.692325,41.2916618 L449.063722,41.2916618 C449.142256,41.2916618 449.206344,41.2327142 449.206344,41.1602377 C449.206344,41.0882443 449.142256,41.0290552 449.063722,41.0290552" id="Fill-262" fill="#FFFFFF" mask="url(#mask-9)"></path>
                                    <path d="M446.813698,45.640712 C446.699705,45.640712 446.606724,45.7264759 446.606724,45.8313253 L446.606724,48.6692643 C446.606724,48.7741136 446.699705,48.8596359 446.813698,48.8596359 C446.927691,48.8596359 447.020934,48.7741136 447.020934,48.6692643 L447.020934,45.8313253 C447.020934,45.7264759 446.927691,45.640712 446.813698,45.640712" id="Fill-263" fill="#FFFFFF" mask="url(#mask-9)"></path>
                                    <path d="M446.813698,49.0831052 C446.699705,49.0831052 446.606724,49.1688691 446.606724,49.2737184 L446.606724,49.9699762 C446.606724,50.074584 446.699705,50.1603479 446.813698,50.1603479 C446.927691,50.1603479 447.020934,50.074584 447.020934,49.9699762 L447.020934,49.2737184 C447.020934,49.1688691 446.927691,49.0831052 446.813698,49.0831052" id="Fill-264" fill="#FFFFFF" mask="url(#mask-9)"></path>
                                    <path d="M446.813698,50.4758865 C446.699705,50.4758865 446.606724,50.5614088 446.606724,50.6664997 L446.606724,50.6925913 C446.606724,50.7974407 446.699705,50.8832045 446.813698,50.8832045 C446.927691,50.8832045 447.020934,50.7974407 447.020934,50.6925913 L447.020934,50.6664997 C447.020934,50.5614088 446.927691,50.4758865 446.813698,50.4758865" id="Fill-265" fill="#FFFFFF" mask="url(#mask-9)"></path>
                                    <path d="M456.021029,43.1236025 C455.948273,43.0615142 455.951162,42.9740592 455.951162,42.8827388 L455.951162,42.7172508 C455.951162,42.670141 455.918856,42.6319701 455.970336,42.6319701 C456.06069,42.6319701 456.060165,42.5643253 456.060165,42.4807357 L456.060165,41.0437679 L452.795603,41.0437679 L452.795603,42.4807357 C452.795603,42.5643253 452.794815,42.6319701 452.885432,42.6319701 C452.936912,42.6319701 452.90408,42.670141 452.90408,42.7172508 L452.90408,42.8827388 C452.90408,42.9740592 452.896201,43.0615142 452.823182,43.1236025 L452.534785,43.4036034 C452.051496,43.816478 451.815893,44.3955654 451.815893,45.0021939 L451.815893,52.3283622 C451.815893,52.6332468 452.039677,52.9055169 452.370887,52.9055169 L456.484881,52.9055169 C456.816092,52.9055169 457.039613,52.6332468 457.039613,52.3283622 L457.039613,45.0021939 C457.039613,44.3955654 456.787462,43.816478 456.304436,43.4036034 L456.021029,43.1236025 Z" id="Fill-266" fill="#F3F9FF" mask="url(#mask-9)"></path>
                                    <path d="M452.713733,42.4808323 C452.713733,42.5644219 452.787014,42.6318251 452.877893,42.6318251 C452.904159,42.6318251 452.927536,42.6419718 452.944608,42.6581582 L455.911317,42.6581582 C455.927865,42.6419718 455.951504,42.6318251 455.97777,42.6318251 C456.068386,42.6318251 456.142193,42.5644219 456.142193,42.4808323 L456.142193,40.8187041 L452.713733,40.8187041 L452.713733,42.4808323 Z" id="Fill-267" fill="#000000" mask="url(#mask-9)"></path>
                                    <path d="M452.113772,52.1620528 C452.113772,52.4488182 452.335717,52.64378 452.625953,52.64378 L456.229868,52.64378 C456.519841,52.64378 456.742049,52.4488182 456.742049,52.1620528 L456.742049,45.3516757 L452.113772,45.3516757 L452.113772,52.1620528 Z" id="Fill-268" fill="#A6C8EF" mask="url(#mask-9)"></path>
                                    <path d="M456.120576,41.6070796 L452.734929,41.6070796 C452.628553,41.6070796 452.542139,41.6865622 452.542139,41.7844055 L452.542139,42.0999199 C452.542139,42.1977632 452.628553,42.2772458 452.734929,42.2772458 L456.120576,42.2772458 C456.226952,42.2772458 456.313366,42.1977632 456.313366,42.0999199 L456.313366,41.7844055 C456.313366,41.6865622 456.226952,41.6070796 456.120576,41.6070796" id="Fill-269" fill="#92A8CC" mask="url(#mask-9)"></path>
                                    <path d="M456.277803,40.8187283 L452.578018,40.8187283 C452.487139,40.8187283 452.413595,40.886373 452.413595,40.969721 L452.413595,41.4756072 C452.413595,41.5591968 452.487139,41.6268415 452.578018,41.6268415 L456.277803,41.6268415 C456.368419,41.6268415 456.441963,41.5591968 456.441963,41.4756072 L456.441963,40.969721 C456.441963,40.886373 456.368419,40.8187283 456.277803,40.8187283" id="Fill-270" fill="#B2CEED" mask="url(#mask-9)"></path>
                                    <path d="M454.542061,41.0290552 L452.799333,41.0290552 C452.720536,41.0290552 452.656447,41.0882443 452.656447,41.1602377 C452.656447,41.2327142 452.720536,41.2916618 452.799333,41.2916618 L454.542061,41.2916618 C454.620595,41.2916618 454.684946,41.2327142 454.684946,41.1602377 C454.684946,41.0882443 454.620595,41.0290552 454.542061,41.0290552" id="Fill-271" fill="#FFFFFF" mask="url(#mask-9)"></path>
                                    <path d="M455.356455,41.0290552 L454.984795,41.0290552 C454.906261,41.0290552 454.842173,41.0882443 454.842173,41.1602377 C454.842173,41.2327142 454.906261,41.2916618 454.984795,41.2916618 L455.356455,41.2916618 C455.434989,41.2916618 455.499077,41.2327142 455.499077,41.1602377 C455.499077,41.0882443 455.434989,41.0290552 455.356455,41.0290552" id="Fill-272" fill="#FFFFFF" mask="url(#mask-9)"></path>
                                    <path d="M453.106431,45.640712 C452.992438,45.640712 452.899458,45.7264759 452.899458,45.8313253 L452.899458,48.6692643 C452.899458,48.7741136 452.992438,48.8596359 453.106431,48.8596359 C453.220424,48.8596359 453.313667,48.7741136 453.313667,48.6692643 L453.313667,45.8313253 C453.313667,45.7264759 453.220424,45.640712 453.106431,45.640712" id="Fill-273" fill="#FFFFFF" mask="url(#mask-9)"></path>
                                    <path d="M453.106431,49.0831052 C452.992438,49.0831052 452.899458,49.1688691 452.899458,49.2737184 L452.899458,49.9699762 C452.899458,50.074584 452.992438,50.1603479 453.106431,50.1603479 C453.220424,50.1603479 453.313667,50.074584 453.313667,49.9699762 L453.313667,49.2737184 C453.313667,49.1688691 453.220424,49.0831052 453.106431,49.0831052" id="Fill-274" fill="#FFFFFF" mask="url(#mask-9)"></path>
                                    <path d="M453.106431,50.4758865 C452.992438,50.4758865 452.899458,50.5614088 452.899458,50.6664997 L452.899458,50.6925913 C452.899458,50.7974407 452.992438,50.8832045 453.106431,50.8832045 C453.220424,50.8832045 453.313667,50.7974407 453.313667,50.6925913 L453.313667,50.6664997 C453.313667,50.5614088 453.220424,50.4758865 453.106431,50.4758865" id="Fill-275" fill="#FFFFFF" mask="url(#mask-9)"></path>
                                    <path d="M462.313788,43.1236025 C462.241033,43.0615142 462.243922,42.9740592 462.243922,42.8827388 L462.243922,42.7172508 C462.243922,42.670141 462.211615,42.6319701 462.262833,42.6319701 C462.35345,42.6319701 462.352924,42.5643253 462.352924,42.4807357 L462.352924,41.0437679 L459.0881,41.0437679 L459.0881,42.4807357 C459.0881,42.5643253 459.087574,42.6319701 459.178191,42.6319701 C459.229672,42.6319701 459.197102,42.670141 459.197102,42.7172508 L459.197102,42.8827388 C459.197102,42.9740592 459.18896,43.0615142 459.115941,43.1236025 L458.827544,43.4036034 C458.344255,43.816478 458.108652,44.3955654 458.108652,45.0021939 L458.108652,52.3283622 C458.108652,52.6332468 458.332436,52.9055169 458.663646,52.9055169 L462.777641,52.9055169 C463.108851,52.9055169 463.332372,52.6332468 463.332372,52.3283622 L463.332372,45.0021939 C463.332372,44.3955654 463.080221,43.816478 462.596933,43.4036034 L462.313788,43.1236025 Z" id="Fill-276" fill="#F3F9FF" mask="url(#mask-9)"></path>
                                    <path d="M459.006466,42.4808323 C459.006466,42.5644219 459.079747,42.6318251 459.170626,42.6318251 C459.197155,42.6318251 459.220269,42.6419718 459.237341,42.6581582 L462.203788,42.6581582 C462.220598,42.6419718 462.244237,42.6318251 462.270503,42.6318251 C462.361119,42.6318251 462.434663,42.5644219 462.434663,42.4808323 L462.434663,40.8187041 L459.006466,40.8187041 L459.006466,42.4808323 Z" id="Fill-277" fill="#000000" mask="url(#mask-9)"></path>
                                    <path d="M458.406505,52.1620528 C458.406505,52.4488182 458.62845,52.64378 458.918686,52.64378 L462.522338,52.64378 C462.812574,52.64378 463.034782,52.4488182 463.034782,52.1620528 L463.034782,45.3516757 L458.406505,45.3516757 L458.406505,52.1620528 Z" id="Fill-278" fill="#A6C8EF" mask="url(#mask-9)"></path>
                                    <path d="M462.413309,41.6070796 L459.027662,41.6070796 C458.921286,41.6070796 458.834872,41.6865622 458.834872,41.7844055 L458.834872,42.0999199 C458.834872,42.1977632 458.921286,42.2772458 459.027662,42.2772458 L462.413309,42.2772458 C462.519685,42.2772458 462.606099,42.1977632 462.606099,42.0999199 L462.606099,41.7844055 C462.606099,41.6865622 462.519685,41.6070796 462.413309,41.6070796" id="Fill-279" fill="#92A8CC" mask="url(#mask-9)"></path>
                                    <path d="M462.570273,40.8187283 L458.870751,40.8187283 C458.779872,40.8187283 458.706328,40.886373 458.706328,40.969721 L458.706328,41.4756072 C458.706328,41.5591968 458.779872,41.6268415 458.870751,41.6268415 L462.570273,41.6268415 C462.661152,41.6268415 462.734696,41.5591968 462.734696,41.4756072 L462.734696,40.969721 C462.734696,40.886373 462.661152,40.8187283 462.570273,40.8187283" id="Fill-280" fill="#B2CEED" mask="url(#mask-9)"></path>
                                    <path d="M460.834794,41.0290552 L459.092066,41.0290552 C459.013269,41.0290552 458.94918,41.0882443 458.94918,41.1602377 C458.94918,41.2327142 459.013269,41.2916618 459.092066,41.2916618 L460.834794,41.2916618 C460.913328,41.2916618 460.977679,41.2327142 460.977679,41.1602377 C460.977679,41.0882443 460.913328,41.0290552 460.834794,41.0290552" id="Fill-281" fill="#FFFFFF" mask="url(#mask-9)"></path>
                                    <path d="M461.648925,41.0290552 L461.277528,41.0290552 C461.198994,41.0290552 461.134906,41.0882443 461.134906,41.1602377 C461.134906,41.2327142 461.198994,41.2916618 461.277528,41.2916618 L461.648925,41.2916618 C461.727722,41.2916618 461.791811,41.2327142 461.791811,41.1602377 C461.791811,41.0882443 461.727722,41.0290552 461.648925,41.0290552" id="Fill-282" fill="#FFFFFF" mask="url(#mask-9)"></path>
                                    <path d="M459.399164,45.640712 C459.285171,45.640712 459.192191,45.7264759 459.192191,45.8313253 L459.192191,48.6692643 C459.192191,48.7741136 459.285171,48.8596359 459.399164,48.8596359 C459.513157,48.8596359 459.6064,48.7741136 459.6064,48.6692643 L459.6064,45.8313253 C459.6064,45.7264759 459.513157,45.640712 459.399164,45.640712" id="Fill-283" fill="#FFFFFF" mask="url(#mask-9)"></path>
                                    <path d="M459.399164,49.0831052 C459.285171,49.0831052 459.192191,49.1688691 459.192191,49.2737184 L459.192191,49.9699762 C459.192191,50.074584 459.285171,50.1603479 459.399164,50.1603479 C459.513157,50.1603479 459.6064,50.074584 459.6064,49.9699762 L459.6064,49.2737184 C459.6064,49.1688691 459.513157,49.0831052 459.399164,49.0831052" id="Fill-284" fill="#FFFFFF" mask="url(#mask-9)"></path>
                                    <path d="M459.399164,50.4758865 C459.285171,50.4758865 459.192191,50.5614088 459.192191,50.6664997 L459.192191,50.6925913 C459.192191,50.7974407 459.285171,50.8832045 459.399164,50.8832045 C459.513157,50.8832045 459.6064,50.7974407 459.6064,50.6925913 L459.6064,50.6664997 C459.6064,50.5614088 459.513157,50.4758865 459.399164,50.4758865" id="Fill-285" fill="#FFFFFF" mask="url(#mask-9)"></path>
                                    <path d="M86.3100943,5.11884756 L78.8067759,5.11884756 C78.4485119,5.11884756 78.1553868,5.38846022 78.1553868,5.71774522 L78.1553868,7.44461912 C78.1553868,7.7741457 78.4485119,8.04351677 78.8067759,8.04351677 L86.3100943,8.04351677 C86.6683583,8.04351677 86.9612207,7.7741457 86.9612207,7.44461912 L86.9612207,5.71774522 C86.9612207,5.38846022 86.6683583,5.11884756 86.3100943,5.11884756" id="Fill-363" fill="#E7EFF7" mask="url(#mask-9)"></path>
                                    <path d="M85.2421578,18.9977873 L79.8745023,18.9977873 C79.354179,18.9977873 78.9284122,19.3894021 78.9284122,19.8679887 L78.9284122,20.4869382 C78.9284122,20.9655248 79.354179,21.356898 79.8745023,21.356898 L85.2421578,21.356898 C85.762481,21.356898 86.1882478,20.9655248 86.1882478,20.4869382 L86.1882478,19.8679887 C86.1882478,19.3894021 85.762481,18.9977873 85.2421578,18.9977873" id="Fill-364" fill="#869DBF" mask="url(#mask-9)"></path>
                                    <path d="M86.4389801,8.07122696 L78.6777325,8.07122696 C78.4497464,8.07122696 78.2658866,8.2434795 78.2706144,8.45341982 L78.5240783,20.327973 C78.5285434,20.531632 78.709514,20.6947042 78.9311964,20.6947042 L86.1855162,20.6947042 C86.4071986,20.6947042 86.5881691,20.531632 86.5926343,20.327973 L86.846178,8.45341982 C86.8505633,8.2434795 86.6672289,8.07122696 86.4389801,8.07122696" id="Fill-365" fill="#92A8CC" mask="url(#mask-9)"></path>
                                    <path d="M86.4389801,8.07122696 L78.6777325,8.07122696 C78.4497464,8.07122696 78.2658866,8.2434795 78.2706144,8.45341982 L78.2890004,9.31299136 L86.8277122,9.31299136 L86.846178,8.45341982 C86.8505633,8.2434795 86.6672289,8.07122696 86.4389801,8.07122696" id="Fill-366" fill="#000000" mask="url(#mask-9)"></path>
                                    <path d="M86.7878409,10.4165672 L78.3289768,10.4165672 C78.2706669,10.4165672 78.2236514,10.4607779 78.2246847,10.5144105 L78.3920144,18.3520215 C78.393065,18.4042046 78.4392926,18.4459994 78.4962892,18.4459994 L86.6205285,18.4459994 C86.6772624,18.4459994 86.7237526,18.4042046 86.7248032,18.3520215 L86.8921329,10.5144105 C86.8931663,10.4607779 86.8461507,10.4165672 86.7878409,10.4165672" id="Fill-367" fill="#F4F4F4" mask="url(#mask-9)"></path>
                                    <path d="M86.8915904,5.33956273 L78.2249646,5.33956273 C77.8669633,5.33956273 77.5738383,5.60917539 77.5738383,5.93846038 L77.5738383,8.05163414 C77.5738383,8.38116073 77.8669633,8.65077338 78.2249646,8.65077338 L86.8915904,8.65077338 C87.2498543,8.65077338 87.5427167,8.38116073 87.5427167,8.05163414 L87.5427167,5.93846038 C87.5427167,5.60917539 87.2498543,5.33956273 86.8915904,5.33956273" id="Fill-368" fill="#F3F9FF" mask="url(#mask-9)"></path>
                                    <path d="M79.5011618,9.72919986 L79.4932821,9.72944145 C79.2781661,9.73572274 79.1092778,9.9012108 79.1161068,10.0990717 L79.2666092,14.4626414 C79.2739636,14.6684748 79.468067,14.8276815 79.6908,14.8081129 C79.6934266,14.8078713 79.6960532,14.8076297 79.6986797,14.8076297 C79.9046027,14.7895106 80.0603582,14.6290959 80.0537918,14.4392074 L79.9030268,10.0761208 C79.8961977,9.8782599 79.7162778,9.72291856 79.5011618,9.72919986" id="Fill-369" fill="#FFFFFF" mask="url(#mask-9)"></path>
                                    <path d="M79.6694198,15.3922495 C79.6667932,15.392491 79.6641666,15.3927326 79.6615401,15.3929742 C79.457981,15.4113349 79.3051147,15.5729576 79.3116811,15.761155 L79.3710416,17.4822307 C79.3781333,17.6854066 79.5669836,17.8417143 79.7873527,17.8286685 C79.7899793,17.8284269 79.7926058,17.8281853 79.7952324,17.8281853 C80.0045699,17.8158643 80.1647906,17.6518258 80.1582242,17.4590382 L80.0986011,15.7377209 C80.0915093,15.5297133 79.894254,15.3721976 79.6694198,15.3922495" id="Fill-370" fill="#FFFFFF" mask="url(#mask-9)"></path>
                                    <path d="M79.7904783,18.4084565 C79.7878518,18.4086981 79.7852252,18.4086981 79.7825986,18.4089397 C79.5716852,18.4210191 79.4091006,18.5840913 79.4159296,18.7783284 L79.4314264,19.2279244 C79.4382555,19.4257853 79.6181754,19.5811266 79.833554,19.5748453 L79.8411711,19.5746037 C80.0565497,19.5683224 80.2251754,19.4028344 80.2183463,19.2049735 L80.2028496,18.7551359 C80.1960205,18.5534096 80.0092715,18.3958939 79.7904783,18.4084565" id="Fill-371" fill="#FFFFFF" mask="url(#mask-9)"></path>
                                    <path d="M81.9489399,12.2928877 L81.9489399,12.6446404 C81.9489399,13.1908718 82.4143678,13.6440916 83.008235,13.6440916 L86.8254271,13.6440916 L86.8753319,11.2282076 L83.008235,11.2282076 C82.4143678,11.2282076 81.9489399,11.7464147 81.9489399,12.2928877" id="Fill-372" fill="#828282" mask="url(#mask-9)"></path>
                                    <path d="M78.1547827,5.80469288 C78.0688939,5.80469288 77.9985019,5.86943857 77.9985019,5.94843798 L77.9985019,8.02416554 C77.9985019,8.10316495 78.0688939,8.16791064 78.1547827,8.16791064 C78.2406715,8.16791064 78.3110636,8.10316495 78.3110636,8.02416554 L78.3110636,5.94843798 C78.3110636,5.86943857 78.2406715,5.80469288 78.1547827,5.80469288" id="Fill-373" fill="#E7EFF7" mask="url(#mask-9)"></path>
                                    <path d="M78.7796171,5.80469288 C78.6937283,5.80469288 78.6233363,5.86943857 78.6233363,5.94843798 L78.6233363,8.02416554 C78.6233363,8.10316495 78.6937283,8.16791064 78.7796171,8.16791064 C78.8655059,8.16791064 78.935898,8.10316495 78.935898,8.02416554 L78.935898,5.94843798 C78.935898,5.86943857 78.8655059,5.80469288 78.7796171,5.80469288" id="Fill-374" fill="#E7EFF7" mask="url(#mask-9)"></path>
                                    <path d="M79.4043202,5.80469288 C79.3184314,5.80469288 79.2480394,5.86943857 79.2480394,5.94843798 L79.2480394,8.02416554 C79.2480394,8.10316495 79.3184314,8.16791064 79.4043202,8.16791064 C79.490209,8.16791064 79.560601,8.10316495 79.560601,8.02416554 L79.560601,5.94843798 C79.560601,5.86943857 79.490209,5.80469288 79.4043202,5.80469288" id="Fill-375" fill="#E7EFF7" mask="url(#mask-9)"></path>
                                    <path d="M80.0291546,5.80469288 C79.9432658,5.80469288 79.8728738,5.86943857 79.8728738,5.94843798 L79.8728738,8.02416554 C79.8728738,8.10316495 79.9432658,8.16791064 80.0291546,8.16791064 C80.1150434,8.16791064 80.1854354,8.10316495 80.1854354,8.02416554 L80.1854354,5.94843798 C80.1854354,5.86943857 80.1150434,5.80469288 80.0291546,5.80469288" id="Fill-376" fill="#E7EFF7" mask="url(#mask-9)"></path>
                                    <path d="M80.653989,5.80469288 C80.5681002,5.80469288 80.4977082,5.86943857 80.4977082,5.94843798 L80.4977082,8.02416554 C80.4977082,8.10316495 80.5681002,8.16791064 80.653989,8.16791064 C80.7398778,8.16791064 80.8102698,8.10316495 80.8102698,8.02416554 L80.8102698,5.94843798 C80.8102698,5.86943857 80.7398778,5.80469288 80.653989,5.80469288" id="Fill-377" fill="#E7EFF7" mask="url(#mask-9)"></path>
                                    <path d="M81.2786921,5.80469288 C81.1928033,5.80469288 81.1226739,5.86943857 81.1226739,5.94843798 L81.1226739,8.02416554 C81.1226739,8.10316495 81.1928033,8.16791064 81.2786921,8.16791064 C81.3645809,8.16791064 81.4349729,8.10316495 81.4349729,8.02416554 L81.4349729,5.94843798 C81.4349729,5.86943857 81.3645809,5.80469288 81.2786921,5.80469288" id="Fill-378" fill="#E7EFF7" mask="url(#mask-9)"></path>
                                    <path d="M81.9035265,5.80469288 C81.8176377,5.80469288 81.7472457,5.86943857 81.7472457,5.94843798 L81.7472457,8.02416554 C81.7472457,8.10316495 81.8176377,8.16791064 81.9035265,8.16791064 C81.9894153,8.16791064 82.0598073,8.10316495 82.0598073,8.02416554 L82.0598073,5.94843798 C82.0598073,5.86943857 81.9894153,5.80469288 81.9035265,5.80469288" id="Fill-379" fill="#E7EFF7" mask="url(#mask-9)"></path>
                                    <path d="M82.5283871,5.80469288 C82.4424984,5.80469288 82.3721063,5.86943857 82.3721063,5.94843798 L82.3721063,8.02416554 C82.3721063,8.10316495 82.4424984,8.16791064 82.5283871,8.16791064 C82.6142759,8.16791064 82.684668,8.10316495 82.684668,8.02416554 L82.684668,5.94843798 C82.684668,5.86943857 82.6142759,5.80469288 82.5283871,5.80469288" id="Fill-380" fill="#E7EFF7" mask="url(#mask-9)"></path>
                                    <path d="M83.1532215,5.80469288 C83.0673328,5.80469288 82.9969407,5.86943857 82.9969407,5.94843798 L82.9969407,8.02416554 C82.9969407,8.10316495 83.0673328,8.16791064 83.1532215,8.16791064 C83.2391103,8.16791064 83.3095024,8.10316495 83.3095024,8.02416554 L83.3095024,5.94843798 C83.3095024,5.86943857 83.2391103,5.80469288 83.1532215,5.80469288" id="Fill-381" fill="#E7EFF7" mask="url(#mask-9)"></path>
                                    <path d="M83.7779246,5.80469288 C83.6920358,5.80469288 83.6216438,5.86943857 83.6216438,5.94843798 L83.6216438,8.02416554 C83.6216438,8.10316495 83.6920358,8.16791064 83.7779246,8.16791064 C83.8638134,8.16791064 83.9342055,8.10316495 83.9342055,8.02416554 L83.9342055,5.94843798 C83.9342055,5.86943857 83.8638134,5.80469288 83.7779246,5.80469288" id="Fill-382" fill="#E7EFF7" mask="url(#mask-9)"></path>
                                    <path d="M84.402759,5.80469288 C84.3168702,5.80469288 84.2464782,5.86943857 84.2464782,5.94843798 L84.2464782,8.02416554 C84.2464782,8.10316495 84.3168702,8.16791064 84.402759,8.16791064 C84.4886478,8.16791064 84.5590399,8.10316495 84.5590399,8.02416554 L84.5590399,5.94843798 C84.5590399,5.86943857 84.4886478,5.80469288 84.402759,5.80469288" id="Fill-383" fill="#E7EFF7" mask="url(#mask-9)"></path>
                                    <path d="M85.0275934,5.80469288 C84.9417046,5.80469288 84.8713126,5.86943857 84.8713126,5.94843798 L84.8713126,8.02416554 C84.8713126,8.10316495 84.9417046,8.16791064 85.0275934,8.16791064 C85.1134822,8.16791064 85.1838743,8.10316495 85.1838743,8.02416554 L85.1838743,5.94843798 C85.1838743,5.86943857 85.1134822,5.80469288 85.0275934,5.80469288" id="Fill-384" fill="#E7EFF7" mask="url(#mask-9)"></path>
                                    <path d="M85.6524278,5.80469288 C85.566539,5.80469288 85.496147,5.86943857 85.496147,5.94843798 L85.496147,8.02416554 C85.496147,8.10316495 85.566539,8.16791064 85.6524278,8.16791064 C85.7383166,8.16791064 85.808446,8.10316495 85.808446,8.02416554 L85.808446,5.94843798 C85.808446,5.86943857 85.7383166,5.80469288 85.6524278,5.80469288" id="Fill-385" fill="#E7EFF7" mask="url(#mask-9)"></path>
                                    <path d="M86.2771309,5.80469288 C86.1912421,5.80469288 86.1208501,5.86943857 86.1208501,5.94843798 L86.1208501,8.02416554 C86.1208501,8.10316495 86.1912421,8.16791064 86.2771309,8.16791064 C86.3630197,8.16791064 86.4334117,8.10316495 86.4334117,8.02416554 L86.4334117,5.94843798 C86.4334117,5.86943857 86.3630197,5.80469288 86.2771309,5.80469288" id="Fill-386" fill="#E7EFF7" mask="url(#mask-9)"></path>
                                    <path d="M86.9019653,5.80469288 C86.8160765,5.80469288 86.7456845,5.86943857 86.7456845,5.94843798 L86.7456845,8.02416554 C86.7456845,8.10316495 86.8160765,8.16791064 86.9019653,8.16791064 C86.9878541,8.16791064 87.0582461,8.10316495 87.0582461,8.02416554 L87.0582461,5.94843798 C87.0582461,5.86943857 86.9878541,5.80469288 86.9019653,5.80469288" id="Fill-387" fill="#E7EFF7" mask="url(#mask-9)"></path>
                                    <polygon id="Fill-626" fill="#92A8CC" mask="url(#mask-9)" points="382.439943 52.9054444 406.308622 52.9054444 406.308622 35.6661791 382.439943 35.6661791"></polygon>
                                </g>
                            </g>
                        </g>
                    </g>
                </g>
            </g>
        </g>
    </g>
</svg>